<?xml version="1.0" encoding="utf-8"?>
<!-- Generator: Adobe Illustrator 25.0.0, SVG Export Plug-In . SVG Version: 6.00 Build 0)  -->
<svg version="1.1" id="Capa_1" xmlns="http://www.w3.org/2000/svg" xmlns:xlink="http://www.w3.org/1999/xlink" x="0px" y="0px"
	 viewBox="0 0 512 512" style="enable-background:new 0 0 512 512;" xml:space="preserve">
<style type="text/css">
	.st0{fill:#FFFFFF;}
</style>
<g>
	<path class="st0" d="M188,144h-39.4c-12.5,0-22.6,10.1-22.6,22.6s10.1,22.6,22.6,22.6h16.8v159.1c0,12.5,10.1,22.6,22.6,22.6
		s22.6-10.1,22.6-22.6V166.6C210.6,154.1,200.5,144,188,144z M195.6,348.2c0,4.2-3.4,7.6-7.6,7.6s-7.6-3.4-7.6-7.6V181.7
		c0-4.1-3.4-7.5-7.5-7.5h-24.3c-4.2,0-7.6-3.4-7.6-7.6s3.4-7.6,7.6-7.6H188c4.2,0,7.6,3.4,7.6,7.6V348.2z M335,202.8
		c0-17.2-14-31.3-31.3-31.3s-31.3,14-31.3,31.3s14,31.3,31.3,31.3C321,234,335,220,335,202.8L335,202.8z M287.4,202.8
		c0-9,7.3-16.3,16.3-16.3s16.3,7.3,16.3,16.3s-7.3,16.3-16.3,16.3S287.4,211.7,287.4,202.8L287.4,202.8z M500.6,138.6l-25.7-25.7
		h18.7c7.5,0,13.7-6.1,13.7-13.7V81.5c0-7.5-6.1-13.7-13.7-13.7h-49.8V18c0-7.5-6.1-13.7-13.7-13.7h-17.7c-7.5,0-13.7,6.1-13.7,13.7
		v18.7l-25.4-25.4C366.1,4,356.3,0,345.9,0H166.1c-10.4,0-20.2,4-27.5,11.4L11.4,138.6C4,145.9,0,155.7,0,166.1v179.8
		c0,10.4,4,20.2,11.4,27.5l127.2,127.2c7.4,7.4,17.1,11.4,27.5,11.4h179.8c10.4,0,20.2-4,27.5-11.4l127.2-127.2
		c7.4-7.4,11.4-17.1,11.4-27.5V166.1C512,155.7,508,145.9,500.6,138.6z M403.3,82.8c5.8,0,10.5-4.7,10.5-10.5V19.4h15.1v52.9
		c0,5.8,4.7,10.5,10.5,10.5h52.9v15.1h-52.9c-5.8,0-10.5,4.7-10.5,10.5v52.9h-15.1v-52.9c0-5.8-4.7-10.5-10.5-10.5h-52.9V82.8H403.3
		z M497,345.9c0,6.4-2.5,12.4-7,16.9L362.8,490c-4.5,4.5-10.5,7-16.9,7H166.1c-6.4,0-12.4-2.5-16.9-7L22,362.8
		c-4.5-4.5-7-10.5-7-16.9V166.1c0-6.4,2.5-12.4,7-16.9L149.2,22c4.5-4.5,10.5-7,16.9-7h179.8c6.4,0,12.4,2.5,16.9,7l36,36v9.8h-11.5
		l-30.5-30.5c-4.7-4.7-10.8-7.2-17.4-7.2H172.6c-6.6,0-12.8,2.6-17.4,7.2L37.3,155.2c-4.7,4.7-7.2,10.8-7.2,17.4v166.7
		c0,6.6,2.6,12.8,7.2,17.4l117.9,117.9c4.7,4.7,10.8,7.2,17.4,7.2h166.7c6.6,0,12.8-2.6,17.4-7.2l117.9-117.9
		c4.7-4.7,7.2-10.8,7.2-17.4V172.6c0-6.6-2.6-12.8-7.2-17.4l-5.7-5.7c-2.9-2.9-7.7-2.9-10.6,0c-2.9,2.9-2.9,7.7,0,10.6l5.7,5.7
		c1.8,1.8,2.8,4.2,2.8,6.8v166.7c0,2.6-1,5-2.8,6.8L346.2,464.1c-1.8,1.8-4.2,2.8-6.8,2.8H172.6c-2.6,0-5-1-6.8-2.8L47.9,346.2
		c-1.8-1.8-2.8-4.2-2.8-6.8V172.6c0-2.6,1-5,2.8-6.8L165.8,47.9c1.8-1.8,4.2-2.8,6.8-2.8h166.7c2.6,0,5,1,6.8,2.8l19.9,19.9H349
		c-7.5,0-13.7,6.1-13.7,13.7v17.7c0,7.5,6.1,13.7,13.7,13.7h49.8v49.8c0,7.5,6.1,13.7,13.7,13.7h17.7c7.5,0,13.7-6.1,13.7-13.7
		v-49.8h9.8l36.3,36.3c4.5,4.5,7,10.5,7,16.9L497,345.9L497,345.9z M353.9,238.1c7.3-10.3,11.2-22.6,11.2-35.3
		c0-33.9-27.6-61.4-61.4-61.4s-61.4,27.6-61.4,61.4c0,12.7,3.9,25,11.2,35.3c-16.2,14.3-25.7,35.1-25.7,56.8c0,4.1,3.4,7.5,7.5,7.5
		s7.5-3.4,7.5-7.5c0-19.6,9.6-38.1,25.6-49.6c3.6-2.6,4.1-7.9,1.2-11.2c-7.9-8.6-12.3-19.8-12.3-31.4c0-25.6,20.8-46.4,46.4-46.4
		c25.6,0,46.4,20.8,46.4,46.4c0,11.7-4.4,22.8-12.3,31.4c-3,3.3-2.5,8.6,1.2,11.2c16,11.5,25.6,30,25.6,49.6
		c0,33.6-27.3,60.9-60.9,60.9c-25.1,0-47.3-15.1-56.6-38.4c-1.5-3.8-5.9-5.7-9.7-4.2c-3.8,1.5-5.7,5.9-4.2,9.7
		c11.6,29,39.3,47.8,70.5,47.8c41.8,0,75.9-34,75.9-75.9C379.6,273.2,370.1,252.5,353.9,238.1L353.9,238.1z M258,294.9
		c0,25.2,20.5,45.7,45.7,45.7s45.7-20.5,45.7-45.7s-20.5-45.7-45.7-45.7S258,269.7,258,294.9z M303.7,264.2
		c16.9,0,30.7,13.8,30.7,30.7c0,16.9-13.8,30.7-30.7,30.7S273,311.9,273,294.9C273,278,286.8,264.2,303.7,264.2z"/>
</g>
</svg>
