<?xml version="1.0" encoding="utf-8"?>
<!-- Generator: Adobe Illustrator 25.0.0, SVG Export Plug-In . SVG Version: 6.00 Build 0)  -->
<svg version="1.1" id="Calque_1" xmlns="http://www.w3.org/2000/svg" xmlns:xlink="http://www.w3.org/1999/xlink" x="0px" y="0px"
	 viewBox="0 0 84 72" style="enable-background:new 0 0 84 72;" xml:space="preserve">
<style type="text/css">
	.st0{fill-rule:evenodd;clip-rule:evenodd;fill:#FFFFFF;}
</style>
<g id="Pages-principales">
	<g id="OUR-CAMPUSES" transform="translate(-698.000000, -822.000000)">
		<g id="Filter" transform="translate(165.000000, 732.000000)">
			<g id="Asia-_x28_-actif-_x29_" transform="translate(489.000000, 56.000000)">
				<g id="Asia-picto">
					<g transform="translate(44.000000, 34.000000)">
						<path id="Fill-5" class="st0" d="M58.8,14.5c0,0-0.1,0-0.1,0l-0.3,0c-0.9-0.1-1.6-0.9-1.5-1.8c0.1-0.9,0.9-1.6,1.8-1.5l0.3,0
							c0.9,0.1,1.6,0.9,1.5,1.8C60.4,13.8,59.7,14.5,58.8,14.5"/>
						<path id="Fill-7" class="st0" d="M27.1,58c-0.1,0-0.2,0-0.4,0c-0.5-0.1-1-0.5-1.2-1c-0.2-0.4-0.3-1-0.5-1.5
							c-0.9-2.8-2.6-8.1-5.3-7.8c-0.1,0-0.2,0-0.2,0c-0.1,0.3-0.2,0.7-0.5,1c-0.1,0.1-0.2,0.4-0.3,0.6c-0.4,0.8-0.9,2-2,3
							c-1.6,1.5-3.4,2.9-5.4,2.8c-1.8-0.1-3.2-1.4-4.1-2.4c-1.6-1.8-2.3-3.8-3-5.7C3.6,45.2,3,43.5,1.5,42C1.1,41.7,1,41.3,1,40.9
							c0-0.1,0-0.1,0-0.2c0-0.1,0-0.1,0-0.2c0,0,0,0,0,0c0,0,0,0,0,0c0,0,0,0,0,0v0c0.1-0.4,0.3-0.8,0.7-1c0,0,0,0,0,0
							c0.3-0.2,0.5-0.4,0.8-0.5c3.2-2.2,4.3-3.2,3.7-5.3c-0.2-0.7-1.2-1.5-2.2-2.2c-1.5-1.2-3.3-2.5-3.8-4.6
							c-0.4-1.7,0.3-3.1,0.8-4.3c0.3-0.7,0.6-1.4,0.7-1.9c0-0.4-0.2-0.9-0.3-1.4c-0.2-0.7-0.5-1.5-0.4-2.3c0.1-0.8,0.5-1.9,2-2.6
							c1.2-0.5,2.8-0.1,4.9,0.5c1.2,0.3,3,0.9,3.6,0.7c1.4-0.3,2.9-0.8,4.5-1.3c0.8-0.3,1.6-0.5,2.4-0.8c1.2-0.3,2.2-0.7,3.2-1.1
							c1.9-0.7,3.6-1.3,6.1-1.6c1.6-0.2,6.5-1.6,7.4-2.3c0.1-0.1,0.1-0.1,0.1-0.2c-0.1-0.2-0.2-0.5-0.2-0.7
							c-0.1-0.1-0.4-0.4-0.6-0.6c-0.7-0.6-1.6-1.4-1.7-2.8c0-0.9,0.4-1.8,1.3-2.8c1.9-1.9,4-0.9,5.2-0.4c0.3,0.1,0.5,0.2,0.8,0.3
							c1.5,0.5,4.6,2.4,5.8,3.3c1.7,1.5,1.9,2.7,1.9,3.8c0,0.4,0,0.5,0.1,0.8c0.1,0.1,0.1,0.3,0.2,0.4c0.1,0.1,0.1,0.3,0.2,0.4
							c0.6,0,1.5,0,2.9,0.1c0.9,0.1,1.5,0.9,1.4,1.8c-0.1,0.9-0.9,1.5-1.8,1.4c-1.2-0.2-2-0.1-2.5-0.1c-0.7,0-1.3,0-2-0.5
							c-0.5-0.4-0.8-0.9-1.2-1.7c-0.1-0.1-0.1-0.2-0.2-0.4c-0.5-0.9-0.5-1.7-0.5-2.2c0-0.5,0-0.7-0.7-1.3c-0.9-0.8-3.7-2.4-4.7-2.7
							c-0.4-0.1-0.7-0.3-1-0.4c-1.3-0.6-1.3-0.5-1.5-0.3c-0.1,0.2-0.2,0.3-0.3,0.3c0.1,0.1,0.3,0.3,0.5,0.5c0.6,0.5,1.4,1.2,1.6,2.3
							C38,6.9,38,7,38,7l0,0c0.7,0.8,0.5,1.5,0.4,1.9c-0.1,0.3-0.3,0.5-0.6,0.9c-0.1,0.1-0.2,0.3-0.4,0.5C37,11,36,11.7,32.6,12.8
							c-1.8,0.6-3.8,1-4.7,1.1c-2.2,0.3-3.7,0.8-5.4,1.5c-1,0.4-2.1,0.7-3.4,1.1c-0.7,0.2-1.5,0.5-2.3,0.7c-1.6,0.5-3.3,1.1-4.8,1.4
							c-1.4,0.3-3.2-0.2-5.1-0.8c-0.9-0.3-2.2-0.6-2.7-0.6h0c0,0,0,0-0.1,0c0,0.2,0.2,0.6,0.3,0.8c0.3,0.7,0.6,1.7,0.5,2.7
							c-0.1,1.2-0.5,2.2-1,3.1c-0.4,0.8-0.8,1.6-0.6,2.2c0.3,1,1.4,1.9,2.6,2.8c1.4,1.1,2.8,2.1,3.4,3.9c0.7,2.1,0.3,4-0.9,5.6
							c-0.8,1.1-2,2-3.2,2.8c0,0,0,0,0,0.1c1.1,1.6,1.7,3.2,2.3,4.8c0.6,1.7,1.2,3.3,2.4,4.6c0.7,0.8,1.3,1.3,1.8,1.3c0,0,0,0,0,0
							c0.6,0,1.6-0.6,3-2c0.6-0.5,0.9-1.3,1.2-2c0.2-0.4,0.3-0.8,0.5-1.1c0-2.2,2.2-2.4,3.1-2.5c2.4-0.3,4.5,1,6.2,3.8
							c0.9,1.5,1.6,3.2,2.1,4.8c0.2-0.3,0.4-0.7,0.5-1c0.7-1.4,1.5-2.9,3.2-3.4c1.4-0.4,3,0,5.2,1.3c0.9,0.5,1.7,1.2,2.5,1.9
							c0.6,0.5,1.6,1.3,2.1,1.5c0.1-0.2,0.2-0.5,0.3-1c0,0,0,0,0-0.1c0,0-0.1-0.1-0.1-0.1c-0.4-0.4-1.8-1.7-0.2-3.9
							c0.8-1.2,2.4-1.4,3.9-1.6c0.7-0.1,2-0.3,2.3-0.6c0.5-0.5,0.4-2.3,0.3-3.6c-0.1-1.9-0.3-3.6,0.9-4.8c0.4-0.4,1.2-0.9,2.4-0.8
							c0.7,0.1,1.2,0.4,1.5,0.8c0-0.4,0.1-0.8,0.4-1.1c0.5-0.8,1.4-1.5,2.4-2.2c0.7-0.5,1.4-1,1.8-1.5c0,0,0,0,0.1-0.1
							c1-1.2,1.4-1.8,1.5-2c0.1-0.2,0.1-0.4,0.1-0.4c0-0.1-0.1-0.2-0.2-0.2c-0.1-0.1-0.2-0.2-0.2-0.3c0,0,0,0-0.1-0.1
							c-0.4-0.3-1.3-1-1.3-2.3c-0.1-1.4,1-2.6,1.8-3.4c1.3-1.2,5.6-2.3,7.5-1.2c1.9,1.1,2,3.2,2.1,4.4c0,0.3,0,0.7,0.1,1
							c0.1,0,0.2,0,0.3,0c0.5,0,0.8-0.5,1.5-1.7c0.4-0.8,0.8-1.5,1.4-2.1c1.1-0.9,2.2-1.5,3.4-2.1c0.6-0.3,1.2-0.6,1.8-1
							c3-1.9,3.5-2.9,3.5-3.1c-0.1-0.1-0.7-0.7-3.1-1.2c-3.7-0.7-7.4-1.4-11.1-1.9c-0.9-0.1-1.5-0.9-1.4-1.8
							c0.1-0.9,0.9-1.5,1.8-1.4c3.8,0.5,7.6,1.1,11.3,1.9c1.3,0.3,5.2,1,5.7,3.8c0.4,2.1-1.2,4.1-5,6.4c-0.7,0.4-1.4,0.8-2.1,1.1
							c-1,0.5-1.9,0.9-2.7,1.6c-0.2,0.1-0.5,0.7-0.7,1.1c-0.7,1.3-1.8,3.5-4.3,3.6c0,0,0,0-0.1,0c-1.8,0-2.7-0.9-3.1-1.6
							c-0.4-0.8-0.5-1.7-0.5-2.5c0-1.1-0.1-1.5-0.4-1.6c-0.7-0.2-3.1,0.3-3.7,0.7c-0.4,0.3-0.6,0.6-0.7,0.7c0.2,0.1,0.4,0.3,0.5,0.5
							c0.1,0.1,0.1,0.2,0.2,0.2c0.7,0.8,1.3,1.7,0.8,3.6c-0.1,0.3-0.3,1.1-2.2,3.3l0,0c-0.6,0.8-1.5,1.4-2.3,2.1
							c-0.5,0.4-1.2,0.9-1.5,1.2c0,0.2,0,0.4,0,0.6c0.1,1.1,0.2,3.5-1.8,4.1c-1.5,0.4-2.4-0.5-3-1.5c0,0.2,0,0.5,0,0.7
							c0.1,2,0.3,4.6-1.3,6.2c-1.1,1.1-2.7,1.3-4.1,1.5c-0.5,0.1-1.2,0.2-1.6,0.3c0.5,0.5,1,1.4,0.7,2.8c-0.1,0.7-0.6,2.9-2.3,3.5
							c-1.8,0.7-3.6-0.8-5.3-2.2c-0.7-0.6-1.4-1.2-2.1-1.6c-1.9-1.1-2.5-1-2.6-1c-0.3,0.1-0.8,1-1.2,1.7c-0.6,1.2-1.4,2.7-2.8,4.1
							C28,57.8,27.6,58,27.1,58"/>
						<path id="Fill-10" class="st0" d="M56.9,47.9c-0.6,0-1.1-0.3-1.4-0.8c-0.4-0.8-0.2-1.8,0.6-2.2c2.3-1.3,3-2.4,4.2-4.4
							c0.4-0.6,0.8-1.3,1.3-2c0.5-0.7,1.5-1,2.3-0.5c0.7,0.5,1,1.5,0.5,2.3c-0.5,0.7-0.8,1.3-1.2,1.9c-1.3,2.1-2.3,3.8-5.4,5.5
							C57.5,47.8,57.2,47.9,56.9,47.9"/>
						<path id="Fill-12" class="st0" d="M45.4,71.1c-0.1,0-0.3,0-0.4-0.1c-4.2-1.2-6.9-3.9-10.2-8c-0.5-0.7-0.4-1.7,0.3-2.3
							c0.7-0.5,1.7-0.4,2.3,0.3c3.3,4.3,5.4,6,8.5,6.9c0.9,0.2,1.4,1.1,1.1,2C46.8,70.6,46.1,71.1,45.4,71.1"/>
						<path id="Fill-14" class="st0" d="M52.2,71.9C52.2,71.9,52.2,71.9,52.2,71.9L52.2,71.9L52.2,71.9c-1,0-1.7-0.7-1.7-1.6
							c0-0.9,0.7-1.6,1.6-1.6c0,0,0,0,0,0h0c0.9,0,1.6,0.7,1.6,1.6C53.8,71.1,53.1,71.9,52.2,71.9"/>
						<path id="Fill-16" class="st0" d="M46.3,61.4c0.1,0.3,0.3,0.5,0.5,0.6c0.4,0.2,0.9,0,1.3-0.3c0.3-0.3,0.9-1,0.6-2.1
							C48.1,60.1,47.3,60.9,46.3,61.4 M47.1,65.3c-0.6,0-1.2-0.1-1.7-0.4c-1.6-0.7-2.5-2.4-2.5-4.7c0-0.8,0.5-1.4,1.3-1.6
							c0.9-0.2,1.7-1,2.4-1.6c0.8-0.8,1.8-1.8,3.1-1.4c1.4,0.4,1.9,2,2.1,2.7c0.7,2.2,0.1,4.4-1.5,5.8
							C49.3,64.9,48.2,65.3,47.1,65.3"/>
						<path id="Fill-18" class="st0" d="M62,69.5c-0.7,0-1.4-0.5-1.6-1.2c-0.5-2-1.3-2.5-3.3-3.6c-0.3-0.2-0.7-0.4-1.1-0.6
							c-0.8-0.5-1-1.5-0.6-2.2c0.5-0.8,1.5-1,2.2-0.6c0.4,0.2,0.7,0.4,1,0.6c2.2,1.2,4,2.2,4.9,5.6c0.2,0.9-0.3,1.8-1.2,2
							C62.3,69.5,62.2,69.5,62,69.5"/>
						<path id="Fill-20" class="st0" d="M15.8,11.3c-0.5,0-1-0.3-1.4-0.7c-0.7-1.1-0.9-2.3-0.4-3.4c0.9-2.1,3.9-3.7,9.6-4.9
							c0.2,0,0.3-0.1,0.3-0.1c0.9-0.2,1.8,0.3,2,1.2c0.2,0.9-0.3,1.8-1.2,2c-0.1,0-0.2,0.1-0.4,0.1c-6.5,1.4-7.2,2.8-7.3,2.9
							c0,0.1,0.1,0.2,0.1,0.3c0.5,0.7,0.3,1.8-0.5,2.3C16.5,11.2,16.1,11.3,15.8,11.3"/>
						<path id="Fill-22" class="st0" d="M54.9,58c-0.4,0-0.8-0.2-1.2-0.5c-0.3-0.3-0.5-0.7-0.5-1.2s0.2-0.8,0.5-1.2
							c0.3-0.3,0.7-0.5,1.2-0.5c0.4,0,0.8,0.2,1.2,0.5c0.3,0.3,0.5,0.7,0.5,1.2s-0.2,0.8-0.5,1.2C55.8,57.8,55.4,58,54.9,58"/>
					</g>
				</g>
			</g>
		</g>
	</g>
</g>
</svg>
