<?xml version="1.0" encoding="utf-8"?>
<!-- Generator: Adobe Illustrator 25.0.0, SVG Export Plug-In . SVG Version: 6.00 Build 0)  -->
<svg version="1.1" id="Layer_1" xmlns="http://www.w3.org/2000/svg" xmlns:xlink="http://www.w3.org/1999/xlink" x="0px" y="0px"
	 viewBox="0 0 392 392" style="enable-background:new 0 0 392 392;" xml:space="preserve">
<style type="text/css">
	.st0{fill:#FFFFFF;}
</style>
<path class="st0" d="M296.5,325.9C275.8,361.7,237.3,384,196,384c-2.2,0-4,1.8-4,4s1.8,4,4,4c44.2,0,85.4-23.8,107.5-62.1
	c1.1-1.9,0.5-4.4-1.5-5.5C300.1,323.3,297.6,324,296.5,325.9z"/>
<path class="st0" d="M82.8,88c1.6,0,3.2-1,3.8-2.7C103,39.1,146.9,8,196,8c2.2,0,4-1.8,4-4s-1.8-4-4-4C143.5,0,96.5,33.2,79.1,82.7
	c-0.7,2.1,0.4,4.4,2.4,5.1C81.9,87.9,82.4,88,82.8,88z"/>
<path class="st0" d="M312.6,80.3c-2.1-0.8-4.4,0.2-5.2,2.3s0.2,4.4,2.3,5.2C354.2,104.9,384,148.4,384,196c0,2.2,1.8,4,4,4
	s4-1.8,4-4C392,145.1,360.1,98.6,312.6,80.3z"/>
<path class="st0" d="M213.9,93.4c2-1,2.7-3.5,1.7-5.4c-1-2-3.5-2.7-5.4-1.7C169.3,107.9,144,149.9,144,196
	c0,15.4,6.7,29.1,17.4,38.7c-28.8-9-53.4-29-68-56.5c-1-2-3.5-2.7-5.4-1.7c-2,1-2.7,3.5-1.7,5.4C107.9,222.7,149.9,248,196,248
	c15.4,0,29.2-6.7,38.7-17.4c-9.9,31.6-33,58-64.3,71.7c-2,0.9-2.9,3.2-2.1,5.3c0.7,1.5,2.1,2.4,3.7,2.4c0.5,0,1.1-0.1,1.6-0.3
	C218.8,289.9,248,245.3,248,196c0-15.3-6.7-29.1-17.3-38.6c33.1,10.5,60.7,35.6,73.5,68.9c0.6,1.6,2.1,2.6,3.7,2.6
	c0.5,0,1-0.1,1.4-0.3c2.1-0.8,3.1-3.1,2.3-5.2C293.4,175.9,246.9,144,196,144c-15.4,0-29.1,6.7-38.7,17.4
	C166.3,132.6,186.3,108,213.9,93.4L213.9,93.4z M167.8,229.7c3.8,1.4,7.9,2.3,12.2,2.3c18.5,0,33.6-14,35.6-32
	c0.3-1.3,0.4-2.6,0.4-4s-0.1-2.7-0.4-3.9c5.2,5.1,8.4,12.1,8.4,19.9c0,15.4-12.6,28-28,28C185.3,240,175.4,236.1,167.8,229.7z
	 M207.8,198.4c-1.1,5.5-6,9.6-11.8,9.6c-0.8,0-1.6-0.2-2.4-0.2c-5.5-1.1-9.6-6-9.6-11.8c0-0.8,0.2-1.6,0.2-2.4
	c1.1-5.5,6-9.6,11.8-9.6c0.8,0,1.6,0.2,2.4,0.2c5.5,1.1,9.6,6,9.6,11.8C208,196.8,207.8,197.6,207.8,198.4z M229.7,224.2
	c1.4-3.8,2.3-7.9,2.3-12.2c0-18.5-14-33.6-32-35.6c-1.3-0.3-2.6-0.4-4-0.4s-2.7,0.1-3.9,0.4c5.1-5.2,12.1-8.4,19.9-8.4
	c15.4,0,28,12.6,28,28C240,206.7,236.1,216.6,229.7,224.2z M224.2,162.3c-3.8-1.4-7.9-2.3-12.2-2.3c-18.5,0-33.6,14-35.6,32
	c-0.3,1.3-0.4,2.6-0.4,4s0.1,2.7,0.4,3.9c-5.2-5.1-8.4-12.1-8.4-19.9c0-15.4,12.6-28,28-28C206.7,152,216.6,155.9,224.2,162.3z
	 M162.3,167.8c-1.4,3.8-2.3,7.9-2.3,12.2c0,18.5,14,33.6,32,35.6c1.3,0.3,2.6,0.4,4,0.4s2.7-0.1,3.9-0.4c-5.1,5.2-12.1,8.4-19.9,8.4
	c-15.4,0-28-12.6-28-28C152,185.3,155.9,175.4,162.3,167.8L162.3,167.8z"/>
<path class="st0" d="M74.4,309.7c0.5,0.2,1.1,0.3,1.6,0.3c1.5,0,3-0.9,3.7-2.4c0.9-2,0-4.4-2.1-5.3C35.3,283.9,8,242.1,8,196
	c0-2.2-1.8-4-4-4s-4,1.8-4,4C0,245.3,29.2,289.9,74.4,309.7L74.4,309.7z"/>
<path class="st0" d="M232,76c0,11.2,12.3,20,28,20s28-8.8,28-20s-12.3-20-28-20S232,64.8,232,76z M280,76c0,6.5-9.2,12-20,12
	s-20-5.5-20-12s9.2-12,20-12C270.8,64,280,69.5,280,76z"/>
<path class="st0" d="M124,336c15.7,0,28-8.8,28-20s-12.3-20-28-20s-28,8.8-28,20S108.3,336,124,336z M124,304c10.8,0,20,5.5,20,12
	s-9.2,12-20,12s-20-5.5-20-12S113.2,304,124,304z"/>
<path class="st0" d="M76,160c11.2,0,20-12.3,20-28s-8.8-28-20-28s-20,12.3-20,28S64.8,160,76,160z M76,112c6.5,0,12,9.2,12,20
	s-5.5,20-12,20s-12-9.2-12-20S69.5,112,76,112z"/>
<path class="st0" d="M316,248c-11.2,0-20,12.3-20,28s8.8,28,20,28s20-12.3,20-28S327.2,248,316,248z M316,296c-6.5,0-12-9.2-12-20
	s5.5-20,12-20s12,9.2,12,20S322.5,296,316,296z"/>
<circle class="st0" cx="100" cy="244" r="8"/>
<circle class="st0" cx="52" cy="36" r="8"/>
<circle class="st0" cx="300" cy="148" r="8"/>
<path class="st0" d="M388,16h-12V4c0-2.2-1.8-4-4-4s-4,1.8-4,4v12h-12c-2.2,0-4,1.8-4,4s1.8,4,4,4h12v12c0,2.2,1.8,4,4,4s4-1.8,4-4
	V24h12c2.2,0,4-1.8,4-4S390.2,16,388,16z"/>
<path class="st0" d="M4,376h12v12c0,2.2,1.8,4,4,4s4-1.8,4-4v-12h12c2.2,0,4-1.8,4-4s-1.8-4-4-4H24v-12c0-2.2-1.8-4-4-4s-4,1.8-4,4
	v12H4c-2.2,0-4,1.8-4,4S1.8,376,4,376z"/>
<circle class="st0" cx="364" cy="356" r="8"/>
</svg>
