<?xml version="1.0" encoding="utf-8"?>
<!-- Generator: Adobe Illustrator 25.0.0, SVG Export Plug-In . SVG Version: 6.00 Build 0)  -->
<svg version="1.1" id="Capa_1" xmlns="http://www.w3.org/2000/svg" xmlns:xlink="http://www.w3.org/1999/xlink" x="0px" y="0px"
	 viewBox="0 0 512 512" style="enable-background:new 0 0 512 512;" xml:space="preserve">
<style type="text/css">
	.st0{fill:#FFFFFF;}
</style>
<g>
	<path class="st0" d="M97.2,512c49.3,0,89.4-40.1,89.4-89.4c0-21.4-7.6-42-21.5-58.2v-10.9c0-4.1-3.4-7.5-7.5-7.5s-7.5,3.4-7.5,7.5
		v11.7c0,3.1,1.1,6.1,3.2,8.5c11.8,13.5,18.3,30.9,18.3,48.9c0,41-33.4,74.4-74.4,74.4s-74.4-33.4-74.4-74.4
		c0-18,6.5-35.4,18.3-48.9c2.1-2.4,3.2-5.4,3.2-8.5V67.9C44.3,38.8,68,15,97.2,15s52.9,23.8,52.9,52.9v250.5c0,4.1,3.4,7.5,7.5,7.5
		s7.5-3.4,7.5-7.5V67.9C165.1,30.5,134.7,0,97.2,0s-68,30.5-68,67.9v296.4c-13.9,16.2-21.5,36.8-21.5,58.2
		C7.8,471.9,47.9,512,97.2,512z"/>
	<path class="st0" d="M71,121c-4.1,0-7.5,3.4-7.5,7.5v250.3c-14.3,11-22.2,28.2-21.4,46.3c1.3,28.4,24.6,51.5,53,52.6
		c15.2,0.6,29.6-4.9,40.5-15.4c24.5-23.6,21.9-63.1-4.6-83.5V67.9c0-18.6-15.1-33.7-33.7-33.7S63.5,49.3,63.5,67.9v25.6
		c0,4.1,3.4,7.5,7.5,7.5s7.5-3.4,7.5-7.5V67.9c0-10.3,8.4-18.7,18.7-18.7s18.7,8.4,18.7,18.7V86h-9.5c-4.1,0-7.5,3.4-7.5,7.5
		s3.4,7.5,7.5,7.5h9.5v21.3h-9.5c-4.1,0-7.5,3.4-7.5,7.5c0,4.1,3.4,7.5,7.5,7.5h9.5v21.3h-9.5c-4.1,0-7.5,3.4-7.5,7.5
		s3.4,7.5,7.5,7.5h9.5V195h-9.5c-4.1,0-7.5,3.4-7.5,7.5s3.4,7.5,7.5,7.5h9.5v21.3h-9.5c-4.1,0-7.5,3.4-7.5,7.5s3.4,7.5,7.5,7.5h9.5
		v21.3H78.5V128.5C78.5,124.4,75.1,121,71,121L71,121z M115.9,282.6v21.3h-9.5c-4.1,0-7.5,3.4-7.5,7.5s3.4,7.5,7.5,7.5h9.5v21.3
		h-9.5c-4.1,0-7.5,3.4-7.5,7.5s3.4,7.5,7.5,7.5h9.5v24.6c0,4.1,2,7.9,5.2,10.4c20.1,15,21.7,44.2,3.9,61.3
		c-8,7.7-18.4,11.6-29.5,11.2C74.9,462,57.9,445.1,57,424.4c-0.6-13.4,5.5-26.2,16.2-34.2c3.3-2.4,5.2-6.3,5.2-10.4v-97.3h37.5
		V282.6z"/>
	<path class="st0" d="M67,424c0.5,12,8.2,22.5,19.5,26.8c3.9,1.5,8.2-0.5,9.7-4.3c1.5-3.9-0.5-8.2-4.3-9.7
		c-5.6-2.1-9.6-7.6-9.8-13.5c-0.2-5.1,2.1-10,6.2-13c3.3-2.5,4-7.2,1.5-10.5s-7.2-4-10.5-1.5C71.1,404.3,66.5,413.9,67,424L67,424z"
		/>
	<path class="st0" d="M312,270.2l28.6,16.5c2.7,1.6,6.1,1.6,8.8,0l28.6-16.5c2.7-1.6,4.4-4.5,4.4-7.7v-33.1c0-3.1-1.7-6.1-4.4-7.7
		l-28.6-16.5c-2.7-1.6-6.1-1.6-8.8,0L312,221.8c-2.7,1.6-4.4,4.5-4.4,7.7v33.1C307.6,265.7,309.3,268.6,312,270.2L312,270.2z
		 M322.6,233l22.5-13l22.5,13v26l-22.5,13l-22.5-13V233z"/>
	<path class="st0" d="M195.9,183l0.7,0.4c-7.3,4.4-11.3,13.4-8.9,22.3c2.8,10.5,14.2,16.9,24.9,14l32.1-8.6l9.2,5.3v59.2l-9.2,5.3
		l-32-8.6c-10.7-2.9-21.8,3.3-24.8,13.7c-2.6,9.1,1.5,18.2,8.8,22.6c-10.5,6.1-13.2,18.4-8.2,27.4c5.4,9.8,17.8,13.2,27.5,7.6
		l0.7-0.4c0.3,14.9,16.7,24.7,30.2,16.6c4.6-2.8,7.9-7.1,9.2-12.2l8.6-32.1l9.2-5.3l51.3,29.6v10.6l-23.4,23.4
		c-7.8,7.8-8.1,20.5-0.6,28.3c6.6,6.8,16.5,7.8,24,3.7c0,12.2,9.5,20.8,20,20.8c11,0,20-8.9,20-20v-0.8c13.1,7.2,29.8-2.1,29.4-17.8
		c-0.1-5.4-2.2-10.4-6-14.1l-23.5-23.5v-10.6l51.3-29.6l9.2,5.3l8.6,32c2.9,10.7,13.7,17.2,24.2,14.6c9.2-2.3,15-10.4,15.2-18.9
		c10.5,6.1,22.5,2.3,27.8-6.6c5.8-9.6,2.6-22-7.1-27.6l-0.8-0.5c7.3-4.5,11.2-13.3,9.1-21.8c-2.7-10.9-13.8-17.4-24.6-14.5
		l-32.4,8.7l-9.2-5.3v-59.2l9.2-5.3l32,8.6c10.7,2.9,21.8-3.3,24.8-13.7c2.6-9.1-1.5-18.2-8.8-22.6c10.4-6,13.2-18.3,8.2-27.4
		c-5.4-9.8-17.8-13.2-27.5-7.6l-0.8,0.5c-0.3-8.6-5.9-16.4-14.4-18.8c-10.7-3.1-21.9,3.2-24.9,14l-8.7,32.4l-9.2,5.3L365,152.2
		v-10.6l23.4-23.4c7.8-7.8,8.1-20.5,0.6-28.3c-6.5-6.7-16.4-7.9-24-3.7c0-12.2-9.5-20.8-20-20.8c-11,0-20,8.9-20,20v0.9
		c-7.6-4-17.1-3.1-23.5,3c-8.1,7.8-8.2,20.6-0.3,28.5l23.7,23.7v10.6l-51.3,29.6l-9.2-5.3l-8.6-32c-2.9-10.7-13.7-17.2-24.2-14.6
		c-9.2,2.3-15,10.4-15.2,18.9c-10.5-6.1-22.5-2.3-27.8,6.6C183,164.9,186.2,177.4,195.9,183L195.9,183z M201.6,163.1
		c1.4-2.3,4.6-3,7.1-1.5l15,8.7c2.6,1.5,5.9,1.3,8.3-0.5c2.4-1.8,3.5-5,2.7-7.9l-3-11.3c-0.7-2.7,0.9-5.5,3.6-6.1
		c2.6-0.6,5.4,1.2,6.1,4l8.9,33.2c0.8,3.1,2.8,5.7,5.6,7.3l11.8,6.8c3.7,2.1,8.3,2.1,12,0l54.3-31.3c3.7-2.1,6-6.1,6-10.4v-13.6
		c0-3.2-1.2-6.2-3.5-8.5l-24.6-24.6c-2-2-2-5.2,0.1-7.1c1.9-1.8,5.3-1.7,7.3,0.4l8,8c2.1,2.1,5.4,2.8,8.2,1.6
		c2.8-1.2,4.6-3.9,4.6-6.9V85.3c0-2.8,2.3-5,5.1-5c2.7,0,4.9,2.5,4.9,5.4v17.4c0,3,1.8,5.8,4.6,6.9c2.8,1.2,6,0.5,8.2-1.6l8.3-8.3
		c2-2,5.2-1.9,7.1,0.1c1.8,1.9,1.7,5.3-0.4,7.3l-24.3,24.3c-2.3,2.3-3.5,5.3-3.5,8.5v13.6c0,4.3,2.3,8.3,6,10.4l54.3,31.3
		c3.7,2.1,8.3,2.1,12,0l11.8-6.8c2.8-1.6,4.8-4.2,5.6-7.3l9-33.6c0.7-2.7,3.5-4.3,6.2-3.5c2.6,0.7,4.1,3.7,3.3,6.5l-2.9,10.9
		c-0.8,2.9,0.3,6,2.7,7.9c2.4,1.8,5.7,2.1,8.3,0.5l15.4-8.9c2.4-1.4,5.5-0.5,6.9,1.9c1.3,2.3,0.3,5.5-2.2,7l-15,8.7
		c-2.6,1.5-4.1,4.5-3.7,7.5s2.6,5.5,5.5,6.3l11.3,3c2.7,0.7,4.3,3.5,3.5,6.2c-0.7,2.6-3.7,4.1-6.5,3.3l-33.2-8.9
		c-3.1-0.8-6.3-0.4-9.1,1.2l-11.8,6.8c-3.7,2.1-6,6.1-6,10.4v62.7c0,4.3,2.3,8.3,6,10.4l11.8,6.8c2.8,1.6,6,2,9.1,1.2l33.6-9
		c2.7-0.7,5.5,0.9,6.1,3.6c0.6,2.6-1.2,5.4-4,6.1l-10.9,2.9c-2.9,0.8-5.1,3.3-5.5,6.3s1.1,6,3.7,7.5l15.4,8.9
		c2.4,1.4,3.2,4.5,1.8,6.9c-1.4,2.3-4.6,3-7.1,1.5l-15-8.7c-2.6-1.5-5.9-1.3-8.3,0.5s-3.5,5-2.7,7.9l3,11.3c0.7,2.7-0.9,5.5-3.6,6.1
		c-2.6,0.6-5.4-1.2-6.1-4l-8.9-33.2c-0.8-3.1-2.8-5.7-5.6-7.3l-11.8-6.8c-3.7-2.1-8.3-2.1-12,0l-54.3,31.3c-3.7,2.1-6,6.1-6,10.4
		v13.6c0,3.2,1.2,6.2,3.5,8.5l24.3,24.4c1,1,1.6,2.4,1.6,3.8c0.1,4.7-5.4,6.5-8.4,3.5l-8.3-8.3c-2.1-2.1-5.4-2.8-8.2-1.6
		c-2.8,1.2-4.6,3.9-4.6,6.9v17.8c0,2.7-2.2,5-5.1,5c-2.7,0-4.9-2.5-4.9-5.4v-17.4c0-4.2-3.4-7.5-7.5-7.5c-2,0-3.9,0.8-5.3,2.2
		l-8.3,8.3c-1.9,1.9-5.2,2-7.1-0.1c-1.8-1.9-1.7-5.3,0.4-7.3l24.3-24.3c2.3-2.3,3.5-5.3,3.5-8.5V338c0-4.3-2.3-8.3-6-10.4
		l-54.3-31.3c-3.7-2.1-8.3-2.1-12,0l-11.8,6.8c-2.8,1.6-4.8,4.2-5.6,7.3l-8.9,33.3c-0.4,1.3-1.3,2.5-2.5,3.3c-4,2.4-8.3-1.4-7.2-5.5
		l3-11.3c0.8-2.9-0.3-6-2.7-7.9c-2.4-1.8-5.7-2.1-8.3-0.5l-15.4,8.9c-2.4,1.4-5.5,0.6-6.9-1.9c-1.3-2.3-0.3-5.5,2.2-7l15-8.7
		c2.6-1.5,4.1-4.5,3.7-7.5s-2.6-5.5-5.5-6.3l-11.3-3c-2.7-0.7-4.3-3.5-3.5-6.2c0.7-2.6,3.7-4.1,6.5-3.3l33.2,8.9
		c3.1,0.8,6.3,0.4,9.1-1.2l11.8-6.8c3.7-2.1,6-6.1,6-10.4v-62.7c0-4.3-2.3-8.3-6-10.4l-11.8-6.8c-2.8-1.6-6-2-9.1-1.2l-33.3,8.9
		c-2.7,0.7-5.8-0.9-6.5-3.4c-0.7-2.7,0.9-5.4,3.5-6.1l11.3-3c2.9-0.8,5.1-3.3,5.5-6.3s-1.1-6-3.7-7.5l-15.4-8.9
		C201,168.6,200.2,165.5,201.6,163.1L201.6,163.1z"/>
	<path class="st0" d="M284.5,287.5l54.9,31.7c3.5,2,7.9,2,11.4,0l54.9-31.7c3.5-2,5.7-5.8,5.7-9.8v-63.4c0-4-2.2-7.8-5.7-9.8
		l-54.9-31.7c-3.5-2-7.9-2-11.4,0l-18,10.4c-3.6,2.1-4.8,6.7-2.7,10.2c2.1,3.6,6.7,4.8,10.2,2.7l16.1-9.3l51.3,29.6v59.2L345,305.2
		l-51.3-29.6v-59.2l4.3-2.5c3.6-2.1,4.8-6.7,2.7-10.2c-2.1-3.6-6.7-4.8-10.2-2.7l-6.1,3.5c-3.5,2-5.7,5.8-5.7,9.8v63.4
		C278.8,281.8,281,285.5,284.5,287.5L284.5,287.5z"/>
</g>
</svg>
