<?xml version="1.0" encoding="utf-8"?>
<!-- Generator: Adobe Illustrator 25.0.0, SVG Export Plug-In . SVG Version: 6.00 Build 0)  -->
<svg version="1.1" id="Layer_1" xmlns="http://www.w3.org/2000/svg" xmlns:xlink="http://www.w3.org/1999/xlink" x="0px" y="0px"
	 viewBox="0 0 512 512" style="enable-background:new 0 0 512 512;" xml:space="preserve">
<style type="text/css">
	.st0{fill:#FFFFFF;}
</style>
<g>
	<g>
		<path class="st0" d="M217.1,157.3c-4.1,0-7.5,3.4-7.5,7.5v3c0,4.1,3.4,7.5,7.5,7.5s7.5-3.4,7.5-7.5v-3
			C224.6,160.7,221.2,157.3,217.1,157.3z"/>
		<path class="st0" d="M202.8,146.7l24.2,3.4c0.4,0.1,0.7,0.1,1.1,0.1c3.7,0,6.9-2.7,7.4-6.5c0.6-4.1-2.3-7.9-6.4-8.5l-24.2-3.4
			c-4.1-0.6-7.9,2.3-8.5,6.4C195.8,142.4,198.7,146.2,202.8,146.7z"/>
		<path class="st0" d="M294.7,157.3c-4.1,0-7.5,3.4-7.5,7.5v3c0,4.1,3.4,7.5,7.5,7.5s7.5-3.4,7.5-7.5v-3
			C302.2,160.7,298.9,157.3,294.7,157.3z"/>
		<path class="st0" d="M283.8,150.2c0.3,0,0.7,0,1.1-0.1l24.2-3.4c4.1-0.6,7-4.4,6.4-8.5c-0.6-4.1-4.4-7-8.5-6.4l-24.2,3.4
			c-4.1,0.6-7,4.4-6.4,8.5C276.9,147.5,280.1,150.2,283.8,150.2L283.8,150.2z"/>
		<path class="st0" d="M246.2,260.1h19.5c4.1,0,7.5-3.4,7.5-7.5s-3.4-7.5-7.5-7.5h-19.5c-4.1,0-7.5,3.4-7.5,7.5
			S242.1,260.1,246.2,260.1z"/>
		<path class="st0" d="M246.2,235h19.5c4.1,0,7.5-3.4,7.5-7.5s-3.4-7.5-7.5-7.5h-19.5c-4.1,0-7.5,3.4-7.5,7.5S242.1,235,246.2,235z"
			/>
		<path class="st0" d="M284.3,396.6c0,26.1,21.3,47.4,47.4,47.4c26.1,0,47.4-21.3,47.4-47.4s-21.3-47.4-47.4-47.4
			C305.5,349.3,284.3,370.5,284.3,396.6z M364,396.6c0,17.9-14.5,32.4-32.4,32.4s-32.4-14.5-32.4-32.4s14.5-32.4,32.4-32.4
			S364,378.8,364,396.6z"/>
		<path class="st0" d="M324.2,383v6.2H318c-4.1,0-7.5,3.4-7.5,7.5s3.4,7.5,7.5,7.5h6.2v6.1c0,4.1,3.4,7.5,7.5,7.5s7.5-3.4,7.5-7.5
			v-6.1h6.2c4.1,0,7.5-3.4,7.5-7.5s-3.4-7.5-7.5-7.5h-6.2V383c0-4.1-3.4-7.5-7.5-7.5S324.2,378.8,324.2,383z"/>
		<path class="st0" d="M456.7,355.5c-2.3-3.5-6.9-4.4-10.4-2.1s-4.4,6.9-2.1,10.4C454,378.6,459,395,459,412.5V497h-61.7v-46.5
			c0-4.1-3.4-7.5-7.5-7.5s-7.5,3.4-7.5,7.5V497H263.5V335.4c14.7-1.3,38.3-5.6,50.2-19.6c2.7-3.2,2.3-7.9-0.9-10.6
			c-3.2-2.7-7.9-2.3-10.6,0.9c-6.2,7.3-20.6,12.5-38.7,14.3v-33h7.2c48.6,0,88.1-39.5,88.1-88.1v-32.3c0-1.4-0.1-2.9-0.2-4.5h32.1
			v27.9c0,55.2-14.8,80.4-38.6,103.3c-2,1.9-2.8,4.7-2.1,7.4s2.8,4.7,5.4,5.3c24.6,6.1,49,18.2,67,33.4c1.4,1.2,3.1,1.8,4.8,1.8
			c2.1,0,4.3-0.9,5.7-2.7c2.7-3.2,2.3-7.9-0.9-10.6c-16.7-14-38.3-25.7-60.7-32.9c20.9-23.1,34.3-51.9,34.3-104.9v-36
			c0-46-15.2-85.2-44-113.4C334.6,14.6,297.1,0,256,0c-42.5,0-80.9,15.4-108.2,43.4c-2.9,3-2.8,7.7,0.1,10.6c3,2.9,7.7,2.8,10.6-0.1
			C183,28.8,217.6,15,256,15c77.1,0,131.5,54.1,134.5,132.5h-31.7v-13.7c0-11.9-6.5-16.4-15-20l5.3-7.3c2.4-3.4,1.7-8-1.7-10.5
			c-3.4-2.4-8-1.7-10.5,1.7l-7.7,10.7c-7.7-2.3-16.4-4.2-25.8-5.6l2.7-13.5c0.8-4.1-1.8-8-5.9-8.8c-4.1-0.8-8,1.8-8.8,5.9l-2.9,14.5
			c-8.1-0.8-16.5-1.3-25-1.4V84.3c0-4.1-3.4-7.5-7.5-7.5s-7.5,3.4-7.5,7.5v15.2c-8.5,0.2-16.9,0.7-25,1.4l-2.9-14.5
			c-0.8-4.1-4.7-6.7-8.8-5.9c-4.1,0.8-6.7,4.7-5.9,8.8l2.7,13.5c-8.6,1.3-16.7,3-23.9,5.1L176.1,96c-2.4-3.4-7.1-4.1-10.5-1.7
			s-4.1,7.1-1.7,10.5l6,8.3c-9.3,3.7-16.7,8-16.7,20.7v13.7h-31.8c0.9-24.7,6.7-47,17.2-66.4c2-3.6,0.6-8.2-3-10.2
			c-3.6-2-8.2-0.6-10.2,3c-12.7,23.4-19.2,50.5-19.2,80.5v36c0,53.1,13.4,81.8,34.3,104.9C87.7,312.2,38,353.3,38,412.5v92
			c0,4.1,3.4,7.5,7.5,7.5h421c4.1,0,7.5-3.4,7.5-7.5v-92C474,392,468.2,372.8,456.7,355.5L456.7,355.5z M168.2,133.8
			c0-3.8,0-4.1,11.1-8.2c1.7-0.6,3.6-1.3,5.6-2.1c36.6-12,105.6-12,142.2,0c2,0.8,3.9,1.5,5.6,2.1c11.1,4.2,11.1,4.5,11.1,8.2V155
			c0,12-4.2,22.4-12.2,30.3c-8.1,8-19.5,12.5-31.5,12.5c-0.2,0-0.3,0-0.5,0c-19.7-0.2-23.2-4.6-28.1-10.7c-3.8-4.7-9.4-7.4-15.4-7.4
			c-0.1,0-0.1,0-0.2,0c-6,0-11.6,2.7-15.4,7.4c-4.9,6.1-8.4,10.5-28.1,10.7c-0.2,0-0.3,0-0.5,0c-12,0-23.4-4.6-31.5-12.5
			c-6.7-6.6-10.7-15.1-11.9-24.8c0-0.3,0-0.5-0.1-0.8c-0.2-1.6-0.2-3.1-0.2-4.7L168.2,133.8L168.2,133.8z M168.2,194.3
			c0.5,0.6,1.1,1.2,1.7,1.7c10.9,10.8,26.2,16.9,42,16.9c0.2,0,0.4,0,0.6,0c22.6-0.2,31.1-5.7,39.6-16.3c0.9-1.2,2.3-1.8,3.7-1.8
			c0,0,0.1,0,0.1,0h0.1c1.5,0,2.8,0.7,3.7,1.8c8.5,10.6,17,16.1,39.6,16.3c0.2,0,0.4,0,0.6,0c15.9,0,31.2-6.1,42-16.9
			c0.6-0.6,1.1-1.1,1.6-1.7v4.9c0,40.3-32.8,73.1-73.1,73.1h-29.4c-40.3,0-73.1-32.8-73.1-73.1L168.2,194.3L168.2,194.3z
			 M248.5,320.3c-18.1-1.7-32.6-7-38.7-14.3c-2.7-3.2-7.4-3.6-10.6-0.9c-3.2,2.7-3.6,7.4-0.9,10.6c11.9,14.1,35.5,18.4,50.2,19.6
			V497H125.6v-46.5c0-4.1-3.4-7.5-7.5-7.5s-7.5,3.4-7.5,7.5V497H53v-84.5c0-63.6,65.1-96.6,103.6-106.1c2.7-0.7,4.7-2.7,5.5-5.3
			c0.7-2.6-0.1-5.5-2.1-7.4c-23.9-22.9-38.6-48.1-38.6-103.3v-27.9h32.1c-0.1,1.4-0.2,2.9-0.2,4.5v32.3c0,48.6,39.5,88.1,88.1,88.1
			h7.2L248.5,320.3z"/>
	</g>
</g>
</svg>
