<?xml version="1.0" encoding="utf-8"?>
<!-- Generator: Adobe Illustrator 25.0.0, SVG Export Plug-In . SVG Version: 6.00 Build 0)  -->
<svg version="1.1" id="Capa_1" xmlns="http://www.w3.org/2000/svg" xmlns:xlink="http://www.w3.org/1999/xlink" x="0px" y="0px"
	 viewBox="0 0 512 512" style="enable-background:new 0 0 512 512;" xml:space="preserve">
<style type="text/css">
	.st0{fill:#FFFFFF;}
</style>
<g>
	<g>
		<path class="st0" d="M497,241c-8.3,0-15,6.7-15,15c0,124.6-101.4,226-226,226S30,380.6,30,256S131.4,30,256,30
			c38,0,75,9.4,108,27.4l-18.8,18.8c-4.3,4.3-5.6,10.7-3.3,16.3c2.3,5.6,7.8,9.3,13.9,9.3h71.8c8.3,0,15-6.7,15-15V15
			c0-6.1-3.7-11.5-9.3-13.9c-5.6-2.3-12.1-1-16.3,3.3l-31,31C346.7,12.2,302,0,256,0C187.6,0,123.3,26.6,75,75
			C26.6,123.3,0,187.6,0,256s26.6,132.7,75,181c48.4,48.4,112.6,75,181,75s132.7-26.6,181-75c48.4-48.4,75-112.6,75-181
			C512,247.7,505.3,241,497,241z M412.6,51.2v20.6H392L412.6,51.2z"/>
	</g>
</g>
<g>
	<g>
		<path class="st0" d="M352.4,241H271v-81.4c0-8.3-6.7-15-15-15c-8.3,0-15,6.7-15,15V256c0,8.3,6.7,15,15,15h96.4
			c8.3,0,15-6.7,15-15S360.7,241,352.4,241z"/>
	</g>
</g>
</svg>
