<?xml version="1.0" encoding="utf-8"?>
<!-- Generator: Adobe Illustrator 25.0.0, SVG Export Plug-In . SVG Version: 6.00 Build 0)  -->
<svg version="1.1" id="Capa_1" xmlns="http://www.w3.org/2000/svg" xmlns:xlink="http://www.w3.org/1999/xlink" x="0px" y="0px"
	 viewBox="0 0 512 512" style="enable-background:new 0 0 512 512;" xml:space="preserve">
<style type="text/css">
	.st0{fill:#FFFFFF;}
</style>
<g>
	<g>
		<path class="st0" d="M123.8,97c-4.8,2.7-6.5,8.8-3.8,13.6c2.7,4.7,8.9,6.5,13.6,3.8c0.5-0.3,51.8-28.8,121.3-28.8
			c70.4,0,120.7,28.4,121.2,28.7c4.8,2.8,10.9,1.1,13.6-3.7c2.8-4.8,1.1-10.9-3.7-13.7c-2.2-1.3-55.2-31.4-131.2-31.4
			C180.3,65.7,126.1,95.8,123.8,97L123.8,97z"/>
		<path class="st0" d="M502,477.5h-35.6V238.2l6,3.3c7.5,4.1,16.6-2.9,14.5-11.2l-12.3-48.5l32.1-17.2c6.9-3.7,6.9-14,0-17.7
			l-62.9-33.3l8.6-30.1c1.2-4-0.3-8.4-3.7-10.8c-0.4-0.3-9.2-6.7-25-15.3c-38.5-21.1-80.2-34.6-123.8-40.1
			c-5.5-0.7-10.5,3.2-11.2,8.7s3.2,10.5,8.7,11.2C338.5,42.3,377.7,55,414,74.9c7.5,4.1,13.2,7.6,17.1,10.1l-21.5,75
			c-7.6-4.8-16-9.4-25-13.7C344.8,127.2,300.4,117,256,117s-88.8,10.1-128.6,29.3c-9.1,4.4-17.4,9-25.1,13.7L80.8,85
			c3.9-2.5,9.7-6,17.1-10.1c35.5-19.5,73.9-32.1,114.2-37.5c5.5-0.7,9.3-5.8,8.6-11.2c-0.7-5.5-5.8-9.3-11.2-8.6
			c-42.7,5.7-83.4,19.1-121.1,39.8c-15.8,8.7-24.7,15.1-25,15.3c-3.4,2.5-4.9,6.8-3.7,10.8l8.6,30.1L5.3,147c-6.9,3.7-7,14,0,17.7
			l32.1,17.2l-12.3,48.5c-2.1,8.3,7,15.3,14.5,11.2l6-3.3v239.3H10c-5.5,0-10,4.5-10,10s4.5,10,10,10h492c5.5,0,10-4.5,10-10
			S507.5,477.5,502,477.5z M446.4,477.5H424V214.9l22.5,12.3v250.3H446.4z M438.1,133.3l42.6,22.5l-22.4,12c-4.1,2.2-6.1,6.8-5,11.3
			l8.6,33.8l-0.6-0.3l0,0l-42.5-23.3c0,0,0,0-0.1,0l-6.8-3.7c5.4,2,11.5-1,13.1-6.6L438.1,133.3z M136.1,164.4
			C173.2,146.5,214.7,137,256,137s82.8,9.4,119.9,27.3c6.5,3.1,12.6,6.4,18.3,9.8l-3.8,13.6c-1.2,4.5,0.8,9.2,4.8,11.4l8.6,4.7
			v273.5H108V203.9l8.6-4.7c4.1-2.2,6.1-7,4.8-11.4l-3.8-13.6C123.4,170.8,129.6,167.5,136.1,164.4L136.1,164.4z M31.3,155.9
			l42.6-22.6l13,45.5c1.6,5.6,7.8,8.5,13.2,6.6l-6.8,3.7c0,0,0,0-0.1,0l-42.5,23.3l0,0l-0.6,0.3l8.6-33.8c1.1-4.5-0.9-9.1-5-11.3
			L31.3,155.9z M65.6,227.2L88,214.9v262.6H65.6V227.2z"/>
		<path class="st0" d="M245.7,28.3c2.1,5,8,7.5,13.1,5.4c5-2.1,7.5-8,5.4-13.1c-2.1-5-8-7.5-13.1-5.4
			C246,17.3,243.6,23.3,245.7,28.3z"/>
	</g>
</g>
</svg>
