<?xml version="1.0" encoding="UTF-8"?>
<svg width="69px" height="72px" viewBox="0 0 69 72" version="1.1" xmlns="http://www.w3.org/2000/svg" xmlns:xlink="http://www.w3.org/1999/xlink">
    <title>international</title>
    <defs>
        <filter id="filter-1">
            <feColorMatrix in="SourceGraphic" type="matrix" values="0 0 0 0 1.000000 0 0 0 0 1.000000 0 0 0 0 1.000000 0 0 0 1.000000 0"></feColorMatrix>
        </filter>
    </defs>
    <g id="Pages-principales" stroke="none" stroke-width="1" fill="none" fill-rule="evenodd">
        <g id="OUR-CAMPUSES" transform="translate(-212.000000, -822.000000)">
            <g id="Filter" transform="translate(165.000000, 732.000000)">
                <g id="Global-(-actif)" transform="translate(0.000000, 56.000000)">
                    <g filter="url(#filter-1)" id="international">
                        <g transform="translate(47.000000, 34.000000)">
                            <path d="M66.3975005,25.2496406 C67.7239107,23.1591094 68.8011532,20.6585156 68.916275,17.9530312 C69.0100355,15.7498594 68.1792371,13.5717187 66.6366328,11.9771719 C65.1140996,10.4034375 63.068572,9.52382812 60.8769557,9.500625 C60.8465624,9.50034375 60.8168859,9.50020312 60.7866359,9.50020312 C58.856947,9.50020312 57.0311974,10.1557969 55.5681606,11.3599687 C49.5617528,6.81426562 42.1105155,4.318875 34.5001434,4.318875 C29.5326996,4.318875 24.5919217,5.38270312 20.1058967,7.40109375 C19.9408839,5.56875 19.1497974,3.81670312 17.8537805,2.47696875 C16.3312473,0.90309375 14.2857196,0.023765625 12.0942467,0 C12.0635667,0 12.0338902,0 12.0036402,0 C9.84600137,0 7.81667394,0.81759375 6.28095119,2.30779687 C4.72372374,3.8188125 3.8659727,5.83453125 3.8659727,7.98314062 C3.8659727,11.534625 5.56541794,14.7607031 7.40306676,17.2110937 C5.24700492,19.8902812 3.52548152,22.8545156 2.28150595,26.0326406 C2.06903946,26.5757344 2.34558998,27.1849219 2.89897775,27.3934687 C3.02571215,27.441 3.15560057,27.4636406 3.28362526,27.4636406 C3.71515303,27.4636406 4.1223088,27.2064375 4.28631802,26.7876562 C5.38406158,23.9830312 6.87906875,21.355875 8.736932,18.9617344 C8.71126971,19.2097969 8.69478277,19.4595469 8.69478277,19.7080312 L8.69478277,24.8256562 C8.69478277,25.8337969 9.26049991,26.7501094 10.1711525,27.2175469 C10.573864,27.4242656 11.0115564,27.5263594 11.4478152,27.5263594 C11.9977623,27.5263594 12.5454154,27.3636562 13.0163685,27.0430312 L16.8648507,24.4220625 C17.9418064,23.6887031 19.2039893,23.301 20.5153463,23.301 L25.4683102,23.301 C27.3893972,23.301 29.1955058,22.5672187 30.5540298,21.2347969 L35.4416194,16.4406094 C37.0838621,14.8296094 37.174612,12.2228437 35.6479212,10.5056719 L33.2679237,7.828875 C32.9323069,7.4514375 32.797114,6.94785937 32.8775416,6.46860937 C33.4177398,6.44189062 33.9586549,6.42529687 34.5001434,6.42529687 C41.5757651,6.42529687 48.5035779,8.72634375 54.1101415,12.9193594 C53.1616406,14.248125 52.6491118,15.8256562 52.6491118,17.4834844 C52.6491118,18.9430312 52.9378483,20.34675 53.4034969,21.66525 C53.0868042,23.9564531 53.428729,26.2812656 54.3948638,28.3914844 L56.4839743,32.9536406 C57.6027925,35.3967187 60.0900268,36.9755156 62.8206944,36.9755156 C64.2063143,36.9755156 65.5466309,36.5745937 66.6964159,35.8164844 L66.7629371,35.7726094 C66.8224335,36.5633437 66.85254,37.3591406 66.85254,38.1595781 C66.85254,55.6579687 52.3393006,69.8938594 34.5,69.8938594 C16.6606994,69.8938594 2.14745995,55.6576875 2.14745995,38.1592969 C2.14745995,35.7034219 2.43433273,33.2575312 3.00019323,30.8895469 C3.13552951,30.3231094 2.77726111,29.7565312 2.19993143,29.6237812 C1.62260176,29.4903281 1.04469862,29.8423125 0.909505703,30.40875 C0.305940285,32.9342344 0,35.5419844 0,38.1594375 C0,47.1986719 3.58870535,55.6967812 10.104918,62.0884687 C16.6209873,68.4800156 25.28466,72 34.5,72 C43.71534,72 52.3790127,68.4800156 58.895082,62.0883281 C65.4112946,55.6966406 69,47.1983906 69,38.1592969 C69,33.6861562 68.1228947,29.3453437 66.3975005,25.2496406 L66.3975005,25.2496406 Z M7.79129839,3.80517188 C8.9217291,2.70815625 10.4155894,2.10642188 12.004357,2.10642188 C12.0264352,2.10642188 12.0486567,2.10642188 12.0708783,2.10684375 C13.6762763,2.12371875 15.1767313,2.77003125 16.2958362,3.9268125 C17.4407467,5.1103125 18.0575017,6.72792188 17.9878265,8.36507813 C17.7881194,13.0582969 13.9425045,17.2828125 12.2982547,18.8810156 C12.1363959,19.038375 11.8731783,19.0386563 11.7121798,18.882 C9.99882815,17.2165781 6.01343265,12.8206406 6.01343265,7.98314063 C6.01343265,6.40139063 6.64481082,4.91765625 7.79129839,3.80517188 Z M31.6493362,9.2131875 L34.029477,11.890125 C34.8166926,12.7756406 34.7700991,14.1201563 33.9229571,14.9509687 L29.0353674,19.7451563 C28.0825656,20.6798906 26.8157951,21.1945781 25.4683102,21.1945781 L20.5153463,21.1945781 C18.7642897,21.1945781 17.0784641,21.7123594 15.6402294,22.6918125 L11.7917472,25.3126406 C11.5206445,25.4977031 11.2644518,25.4010937 11.1666771,25.3510312 C11.0691891,25.3009687 10.8425295,25.1495156 10.8425295,24.8256562 L10.8425295,20.8312031 C11.2062457,21.0117656 11.6052297,21.1033125 12.0046438,21.1033125 C12.6583868,21.1033125 13.3122733,20.8612969 13.8101789,20.3774062 C15.8810821,18.3642187 19.260475,14.4499219 19.9973696,9.78848437 C23.3390575,8.14303125 26.9806645,7.0768125 30.7114442,6.64523437 C30.6887926,7.56829687 31.0082092,8.49192187 31.6493362,9.2131875 L31.6493362,9.2131875 Z M60.7873527,11.6064844 C60.8094309,11.6064844 60.8316524,11.6064844 60.8537306,11.6069063 C62.459272,11.6237813 63.959727,12.2702344 65.0788319,13.4270156 C66.2237424,14.6105156 66.8404974,16.228125 66.7708222,17.8651406 C66.5711151,22.5583594 62.7255002,26.782875 61.0812504,28.3812188 C60.9193916,28.5385781 60.656174,28.5388594 60.4951755,28.3822031 C58.7818238,26.7166406 54.7965717,22.3207031 54.7965717,17.4833438 C54.7965717,15.9015938 55.4279499,14.4177188 56.5744374,13.3052344 C57.7047248,12.2083594 59.1984417,11.6064844 60.7873527,11.6064844 L60.7873527,11.6064844 Z M65.4981737,34.0680938 C64.7037898,34.5919219 63.7779405,34.8688125 62.8206944,34.8688125 C60.9343016,34.8688125 59.2157888,33.778125 58.4429097,32.0902031 L56.3537992,27.5280469 C56.1708658,27.1283906 56.0161753,26.7191719 55.8874338,26.3034844 C56.9467556,27.7797656 58.0814873,29.0016563 58.983538,29.8784531 C59.4808702,30.3616406 60.1338964,30.6032344 60.7872094,30.6032344 C61.4409524,30.6032344 62.0948389,30.3612187 62.5927445,29.8773281 C63.2725799,29.2165312 64.0934863,28.3495781 64.9158262,27.3199219 C65.6498535,29.2980937 66.1772923,31.3330781 66.494415,33.4110937 L65.4981737,34.0680938 Z" id="Shape" fill="#000000" fill-rule="nonzero"></path>
                            <path d="M60.5,22 C62.9813936,22 65,19.9812512 65,17.5 C65,15.0187488 62.9812512,13 60.5,13 C58.0186064,13 56,15.0187488 56,17.5 C56,19.9812512 58.0186064,22 60.5,22 Z M60.5,15.1328081 C61.8052022,15.1328081 62.8670496,16.1946554 62.8670496,17.4998576 C62.8670496,18.8050598 61.8052022,19.8669072 60.5,19.8669072 C59.1947978,19.8669072 58.1329504,18.8050598 58.1329504,17.4998576 C58.1329504,16.1946554 59.1947978,15.1328081 60.5,15.1328081 Z" id="Shape" fill="#000000" fill-rule="nonzero"></path>
                            <path d="M43.7761916,23.4624085 C42.263891,21.897874 40.2322534,21.0234848 38.0553666,21 C38.0251775,21 37.9957005,21 37.9656538,21 C35.8225161,21 33.8068274,21.8127416 32.2814259,23.2941008 C31.1279764,24.4142416 30.3615732,25.8134041 30.0460122,27.3380984 C27.5964271,27.2336749 25.2204634,28.3501811 23.7762306,30.3530985 L20.1927049,35.3223689 C18.794183,37.2615418 18.6200263,39.7748341 19.6994273,41.8663786 C19.2436011,42.8696545 19.0018039,43.9642136 19.0018039,45.0969356 C19.0018039,49.7087618 21.8812981,53.7672975 24.1853492,56.2768155 L23.9533777,62.4657574 C23.8981261,63.9416648 24.5967462,65.3342572 25.8222508,66.190893 C26.5934956,66.7300647 27.5004487,67 28.4079714,67 C29.2979788,67 30.1885558,66.7401296 30.9511141,66.2201092 L40.7682515,59.524986 C42.2969281,58.4824289 43.6169871,57.1976151 44.692116,55.7067501 L47.6559117,51.5971908 C47.9962506,51.1252583 47.882472,50.471738 47.4015832,50.1376389 C46.9209792,49.8033999 46.2551113,49.9152323 45.9149149,50.3871648 L42.9511191,54.4970036 C42.0193882,55.788807 40.8756219,56.9020981 39.5510062,57.8054239 L29.7338688,64.500547 C28.9304414,65.0481061 27.8558821,65.0420952 27.0594323,64.4853098 C26.4203358,64.0385396 26.0559311,63.3123283 26.0848386,62.5426422 L26.258568,58.0023886 C26.5259974,58.0918545 26.8052461,58.1392434 27.0852069,58.1392434 C27.7344138,58.1392434 28.384048,57.8986641 28.8784649,57.4175054 C31.1291156,55.227828 34.9380623,50.7763414 35.1594962,45.5639754 C35.2524841,43.3737388 34.4271269,41.2085248 32.8948902,39.623441 C31.3825897,38.0589065 29.3508096,37.1846571 27.1739228,37.1615917 C25.003444,37.1358702 22.9466014,37.9532249 21.4001246,39.4554129 C21.3280696,39.5253081 21.2591474,39.59744 21.1902252,39.6695719 C21.014075,38.589551 21.2624226,37.4625605 21.9332746,36.5322551 L25.5168003,31.5629847 C26.5268518,30.1625641 28.1819808,29.3770817 29.8935005,29.4300622 C30.1227664,34.6134916 33.8965401,39.041773 36.174247,41.2574514 C36.6682367,41.7379112 37.3168741,41.9780711 37.9657962,41.9780711 C38.615288,41.9780711 39.2647798,41.7376316 39.7593391,41.2564729 C40.6879372,40.3530073 41.8814015,39.0637201 42.9791722,37.4956908 L48.5131668,41.3414655 C49.2115022,41.8268179 49.6754453,42.5499538 49.8198401,43.3780724 C49.9640925,44.2059113 49.7712813,45.0396215 49.2768644,45.725014 L48.4987843,46.8039166 C48.1584455,47.2758491 48.272224,47.9292296 48.7529704,48.2634685 C48.940228,48.3934736 49.1552538,48.4560997 49.3682859,48.4560997 C49.7026439,48.4560997 50.0318754,48.3021905 50.2396387,48.0139426 L51.0177188,46.93504 C51.8413672,45.7929521 52.1626243,44.4042739 51.9222511,43.0249617 C51.6820203,41.6457893 50.9089243,40.4409355 49.7455066,39.6325274 L44.1032871,35.7115455 C45.151075,33.8408699 45.9428255,31.695506 46.0403703,29.4028031 C46.1337855,27.2127063 45.3084283,25.0474923 43.7761916,23.4624085 L43.7761916,23.4624085 Z M27.0854917,39.2549534 C27.1074214,39.2549534 27.1294936,39.2549534 27.151281,39.2553728 C28.7460318,39.2721477 30.2364026,39.9147643 31.3479862,41.0646804 C32.485202,42.2411567 33.0978119,43.8491661 33.0287473,45.4766064 C32.8303825,50.1421122 29.0104708,54.3412771 27.3771293,55.930275 C27.2166432,56.0867005 26.9554794,56.0868402 26.7952781,55.9309739 C25.0932992,54.2755756 21.1348312,49.9061459 21.1348312,45.0969356 C21.1348312,43.5247125 21.761966,42.0497836 22.9006058,40.9437617 C24.0235815,39.8531167 25.5074018,39.2549534 27.0854917,39.2549534 L27.0854917,39.2549534 Z M38.2581459,39.7691027 C38.0976597,39.925668 37.8362112,39.9259475 37.6760098,39.7700812 C35.9741733,38.1144033 32.0157053,33.7445543 32.0157053,28.935903 C32.0157053,27.3635402 32.6428401,25.8884715 33.7816224,24.7825894 C34.9044557,23.6920842 36.388276,23.0939209 37.9663658,23.0939209 C37.9882956,23.0939209 38.0103678,23.0939209 38.0322976,23.0943403 C39.6270484,23.1111152 41.1174191,23.7537318 42.2290028,24.9036479 C43.3662186,26.0801242 43.9788285,27.6881336 43.9096215,29.3154341 C43.7112566,33.9809399 39.891345,38.1802446 38.2581459,39.7691027 L38.2581459,39.7691027 Z" id="Shape" fill="#000000" fill-rule="nonzero"></path>
                            <path d="M41.9335959,27.4334536 C41.3445035,27.4334536 40.8670495,27.9109075 40.8670495,28.5 C40.8670495,29.8052022 39.8052022,30.8670496 38.5,30.8670496 C37.1947978,30.8670496 36.1329504,29.8052022 36.1329504,28.5 C36.1329504,27.1947978 37.1947978,26.1329504 38.5,26.1329504 C38.6583444,26.1329504 38.816404,26.148614 38.9697646,26.179514 C39.5478925,26.2947124 40.1095025,25.9212075 40.2255553,25.3439339 C40.3414657,24.7663755 39.9673913,24.2043383 39.3899753,24.0881432 C39.0984906,24.0296184 38.7990317,24 38.5,24 C36.0186064,24 34,26.0187488 34,28.5 C34,30.9812512 36.0187488,33 38.5,33 C40.9813936,33 43,30.9812512 43,28.5 C43.0001424,27.9107651 42.5226884,27.4334536 41.9335959,27.4334536 L41.9335959,27.4334536 Z" id="Path" fill="#000000" fill-rule="nonzero"></path>
                            <path d="M27.5,50 C29.9813936,50 32,47.9812512 32,45.5 C32,43.0187488 29.9812512,41 27.5,41 C25.0187488,41 23,43.0187488 23,45.5 C23,47.9812512 25.0186064,50 27.5,50 Z M27.5,43.1328081 C28.8052022,43.1328081 29.8670496,44.1946554 29.8670496,45.4998576 C29.8670496,46.8050598 28.8052022,47.8669072 27.5,47.8669072 C26.1947978,47.8669072 25.1329504,46.8050598 25.1329504,45.4998576 C25.1329504,44.1947978 26.1947978,43.1328081 27.5,43.1328081 Z" id="Shape" fill="#000000" fill-rule="nonzero"></path>
                            <path d="M16,8.5000712 C16,6.01863836 13.9812831,4 11.5000712,4 C9.01885927,4 7,6.01878075 7,8.5000712 C7,10.9813616 9.01871687,13 11.4999288,13 C13.9811407,13 16,10.9813616 16,8.5000712 Z M9.13305909,8.5000712 C9.13305909,7.19484835 10.1948896,6.13298419 11.5000712,6.13298419 C12.8052527,6.13298419 13.8670833,7.19484835 13.8670833,8.5000712 C13.8670833,9.80529405 12.8052527,10.8670158 11.5000712,10.8670158 C10.1948896,10.8670158 9.13305909,9.80529405 9.13305909,8.5000712 L9.13305909,8.5000712 Z" id="Shape" fill="#000000" fill-rule="nonzero"></path>
                        </g>
                    </g>
                </g>
            </g>
        </g>
    </g>
</svg>