<?xml version="1.0" encoding="utf-8"?>
<!-- Generator: Adobe Illustrator 25.0.0, SVG Export Plug-In . SVG Version: 6.00 Build 0)  -->
<svg version="1.1" id="Capa_1" xmlns="http://www.w3.org/2000/svg" xmlns:xlink="http://www.w3.org/1999/xlink" x="0px" y="0px"
	 viewBox="0 0 512 512" style="enable-background:new 0 0 512 512;" xml:space="preserve">
<style type="text/css">
	.st0{fill:#FFFFFF;}
</style>
<g>
	<g>
		<g>
			<path class="st0" d="M304.7,421.4h-96.5c-5.5,0-10-4.5-10-10s4.5-10,10-10h96.5c5.5,0,10,4.5,10,10S310.2,421.4,304.7,421.4z"/>
		</g>
		<g>
			<path class="st0" d="M334.5,461.1H178.3c-5.5,0-10-4.5-10-10s4.5-10,10-10h156.3c5.5,0,10,4.5,10,10S340.1,461.1,334.5,461.1z"/>
		</g>
		<g>
			<g>
				<path class="st0" d="M256.4,68.1c-5.5,0-10-4.5-10-10V48c0-5.5,4.5-10,10-10c5.5,0,10,4.5,10,10v10.1
					C266.4,63.6,261.9,68.1,256.4,68.1z"/>
			</g>
			<g>
				<path class="st0" d="M256.4,307.9c-5.5,0-10-4.5-10-10v-10.1c0-5.5,4.5-10,10-10c5.5,0,10,4.5,10,10v10.1
					C266.4,303.4,261.9,307.9,256.4,307.9z"/>
			</g>
		</g>
		<g>
			<g>
				<path class="st0" d="M337.6,101.7c-2.6,0-5.1-1-7.1-2.9c-3.9-3.9-3.9-10.2,0-14.1l16.9-16.9c3.9-3.9,10.2-3.9,14.1,0
					c3.9,3.9,3.9,10.2,0,14.1l-16.9,16.9C342.8,100.7,340.2,101.7,337.6,101.7L337.6,101.7z"/>
			</g>
			<g>
				<path class="st0" d="M158.2,281.1c-2.6,0-5.1-1-7.1-2.9c-3.9-3.9-3.9-10.2,0-14.1l16.9-16.9c3.9-3.9,10.2-3.9,14.1,0
					c3.9,3.9,3.9,10.2,0,14.1l-16.9,16.9C163.3,280.2,160.8,281.1,158.2,281.1z"/>
			</g>
		</g>
		<g>
			<g>
				<path class="st0" d="M381.4,183h-10.1c-5.5,0-10-4.5-10-10s4.5-10,10-10h10.1c5.5,0,10,4.5,10,10S386.9,183,381.4,183z"/>
			</g>
			<g>
				<path class="st0" d="M141.5,183h-10.1c-5.5,0-10-4.5-10-10s4.5-10,10-10h10.1c5.5,0,10,4.5,10,10S147,183,141.5,183z"/>
			</g>
		</g>
		<g>
			<g>
				<path class="st0" d="M175.2,101.7c-2.6,0-5.1-1-7.1-2.9l-16.9-16.9c-3.9-3.9-3.9-10.2,0-14.1c3.9-3.9,10.2-3.9,14.1,0l16.9,16.9
					c3.9,3.9,3.9,10.2,0,14.1C180.3,100.7,177.7,101.7,175.2,101.7z"/>
			</g>
			<g>
				<path class="st0" d="M354.6,281.1c-2.6,0-5.1-1-7.1-2.9l-16.9-16.9c-3.9-3.9-3.9-10.2,0-14.1c3.9-3.9,10.2-3.9,14.1,0l16.9,16.9
					c3.9,3.9,3.9,10.2,0,14.1C359.7,280.2,357.1,281.1,354.6,281.1L354.6,281.1z"/>
			</g>
		</g>
		<path class="st0" d="M219.7,246.1c-3.5,0-6.9-1.1-9.9-3.2c-4.9-3.6-7.5-9.5-6.8-15.6l3.9-32.4L184.7,171
			c-4.1-4.4-5.5-10.8-3.7-16.6c1.9-5.8,6.7-10.1,12.7-11.3l32.1-6.3l15.9-28.5c3-5.3,8.6-8.6,14.6-8.6c6.1,0,11.7,3.3,14.6,8.6
			l15.9,28.5l32.1,6.3c6,1.2,10.8,5.5,12.7,11.3c1.9,5.8,0.5,12.1-3.7,16.6l-22.3,23.9l3.9,32.4c0.7,6-1.9,12-6.8,15.6
			c-4.9,3.6-11.4,4.2-16.9,1.6l-29.7-13.8l-29.7,13.8C224.5,245.6,222.1,246.1,219.7,246.1L219.7,246.1z M256.4,209.8
			c1.4,0,2.9,0.3,4.2,0.9l28.6,13.3l-3.8-31.2c-0.4-2.9,0.6-5.9,2.6-8l21.4-23l-30.9-6c-2.9-0.6-5.4-2.4-6.8-4.9l-15.3-27.5
			l-15.3,27.5c-1.4,2.6-3.9,4.4-6.8,4.9l-30.9,6l21.4,23c2,2.2,3,5.1,2.6,8l-3.8,31.2l28.6-13.3C253.5,210.1,255,209.8,256.4,209.8z
			"/>
		<path class="st0" d="M467.8,138.1h-2.6V34.7c0-19.1-15.6-34.7-34.7-34.7H81.6C62.4,0,46.9,15.6,46.9,34.7v103.4h-2.6
			C19.8,138.1,0,158,0,182.4v285.4C0,492.2,19.8,512,44.2,512h423.5c24.4,0,44.2-19.8,44.2-44.2v-97.5c0-5.5-4.5-10-10-10
			s-10,4.5-10,10v64.2L365.1,319.2L492,214.3v65.6c0,5.5,4.5,10,10,10s10-4.5,10-10v-97.5C512,158,492.2,138.1,467.8,138.1z
			 M66.9,34.7c0-8.1,6.6-14.7,14.7-14.7h348.9c8.1,0,14.7,6.6,14.7,14.7V227L280.7,362.9h-49.4L66.9,227V34.7z M20,214.3
			l126.9,104.9L20,434.5V214.3z M20,182.4c0-13.4,10.9-24.2,24.2-24.2h2.6v52.4L20,188.3L20,182.4z M492,461.5v6.2
			c0,13.4-10.9,24.2-24.2,24.2H44.2C30.9,492,20,481.1,20,467.8v-6.2L162.5,332l58.8,48.6c1.8,1.5,4,2.3,6.4,2.3h56.6
			c2.3,0,4.6-0.8,6.4-2.3l58.8-48.6L492,461.5z M465.1,158.1h2.6c13.4,0,24.2,10.9,24.2,24.2v6l-26.9,22.2L465.1,158.1z"/>
		<g>
			<path class="st0" d="M502,334.9c-4.2,0-8-2.7-9.4-6.6c-1.4-3.9-0.2-8.3,2.9-11c3.3-2.8,8.1-3.1,11.7-0.9
				c3.5,2.2,5.3,6.4,4.5,10.4C510.9,331.5,506.7,334.9,502,334.9L502,334.9z"/>
		</g>
	</g>
</g>
</svg>
