<?xml version="1.0" encoding="utf-8"?>
<!-- Generator: Adobe Illustrator 25.0.0, SVG Export Plug-In . SVG Version: 6.00 Build 0)  -->
<svg version="1.1" id="Calque_1" xmlns="http://www.w3.org/2000/svg" xmlns:xlink="http://www.w3.org/1999/xlink" x="0px" y="0px"
	 viewBox="0 0 156 108.4" style="enable-background:new 0 0 156 108.4;" xml:space="preserve">
<style type="text/css">
	.st0{fill:#FFFFFF;}
</style>
<path class="st0" d="M68.1,57.7c-1.2,0.5-2.5,0.7-3.8,0.7h-3.9c-1.1,0-2.2-0.2-3.3-0.5c-0.7-0.2-1.4-0.5-2-0.9l0,0v10.4l2,1.3
	l0.7,0.4l1.8,1.2l-0.4,0.6l-1.3,2h9.3l-1.3-2l-0.4-0.6l1.8-1.1l0.7-0.4l2-1.3V56.6C69.5,57.1,68.8,57.4,68.1,57.7z M68.1,63.9
	l-5.5,3.5l-5.5-3.5V62c1.1,0.3,2.2,0.4,3.3,0.4h3.9c1.3,0,2.6-0.2,3.8-0.5L68.1,63.9z"/>
<path class="st0" d="M62.6,67.4l-5.5-3.5v4.7l0.7,0.4l1.8,1.2l-0.4,0.6H66l-0.4-0.6l1.8-1.1l0.7-0.4v-4.7L62.6,67.4z M64.3,58.4
	h-3.9c-1.1,0-2.2-0.2-3.3-0.5V62c1.1,0.3,2.2,0.4,3.3,0.4h3.9c1.3,0,2.6-0.2,3.8-0.5v-4.2C66.9,58.1,65.6,58.4,64.3,58.4L64.3,58.4z
	 M71.8,73.4l-2.2,1.4h0.5c0.9,0,1.6-0.6,1.9-1.4c0,0,0-0.1,0.1-0.2L71.8,73.4z M70.1,56.6c-0.6,0.4-1.3,0.7-2,1
	c-1.2,0.5-2.5,0.7-3.8,0.7h-3.9c-1.1,0-2.2-0.2-3.3-0.5c-0.7-0.2-1.4-0.5-2-0.9l0,0c-0.7-0.4-1.4-0.9-2-1.5v10.7l2,1.3l2,1.3
	l0.7,0.4l1.8,1.2l-0.4,0.6l-1.3,2L57.7,73l-1.1,1.7h11.9l-1.1-1.7l-0.2-0.3l-1.3-2l-0.4-0.6l1.8-1.1l0.7-0.4l4-2.5V54.9
	C71.5,55.6,70.8,56.2,70.1,56.6z M68.1,63.9l-5.5,3.5l-5.5-3.5V62c1.1,0.3,2.2,0.4,3.3,0.4h3.9c1.3,0,2.6-0.2,3.8-0.5L68.1,63.9z
	 M53.3,73.3l-0.2-0.1c0,0,0,0.1,0,0.1c0.3,0.8,1,1.4,1.9,1.4h0.5L53.3,73.3z"/>
<path class="st0" d="M67.2,72.8l-1.3-2l-0.4-0.6l1.8-1.1c-0.9,0-1.9-0.1-2.8-0.1h-4.4c-0.8,0-1.7,0-2.5,0l1.8,1.2l-0.4,0.6l-1.3,2
	L57.7,73c0.8,0,1.6,0,2.4,0H65c0.8,0,1.6,0,2.4,0.1L67.2,72.8z M67.2,72.8l-1.3-2h-6.8l-1.3,2L57.7,73c0.8,0,1.6,0,2.4,0H65
	c0.8,0,1.6,0,2.4,0.1L67.2,72.8z M67.2,72.8l-1.3-2h-6.8l-1.3,2L57.7,73c0.8,0,1.6,0,2.4,0H65c0.8,0,1.6,0,2.4,0.1L67.2,72.8z
	 M81.7,71.2c-0.6-0.2-1.3-0.4-2-0.5l0,0c-0.9-0.2-1.8-0.4-2.8-0.6l-5,3.2l-0.2,0.1h0.2c1,0.1,1.9,0.2,2.9,0.4l0,0
	c1,0.2,1.9,0.3,2.9,0.5c10.4,2.3,20.4,8.2,20.4,22.5v7.6H26.7v-7.6c0-14.4,10.2-20.3,20.6-22.6c1-0.2,1.9-0.4,2.9-0.5l0,0
	c1-0.2,2-0.3,3-0.4h0.1l-0.2-0.1l-5-3.2c-0.9,0.2-1.8,0.3-2.7,0.6l0,0c-0.7,0.1-1.3,0.3-1.9,0.5C30,74.9,22.7,83.8,22.7,96.8v9.6
	c0,1.1,0.9,2,2,2h75.4c1.1,0,2-0.9,2-2v-9.6C102.1,84,94.9,75.1,81.7,71.2z M65,73c0.8,0,1.6,0,2.4,0.1l-0.2-0.3l-1.3-2h-6.8l-1.3,2
	L57.7,73c0.8,0,1.6,0,2.4,0L65,73z M67.2,72.8l-1.3-2h-6.8l-1.3,2L57.7,73c0.8,0,1.6,0,2.4,0H65c0.8,0,1.6,0,2.4,0.1L67.2,72.8z
	 M67.2,72.8l-1.3-2h-6.8l-1.3,2L57.7,73c0.8,0,1.6,0,2.4,0H65c0.8,0,1.6,0,2.4,0.1L67.2,72.8z M67.2,72.8l-1.3-2h-4.4L61.4,71
	l-1.1,1.7L60.1,73H65c0.8,0,1.6,0,2.4,0.1L67.2,72.8z M67.2,72.8l-1.3-2h-6.8l-1.3,2L57.7,73c0.8,0,1.6,0,2.4,0H65
	c0.8,0,1.6,0,2.4,0.1L67.2,72.8z M67.2,72.8l-1.3-2h-6.8l-1.3,2L57.7,73c0.8,0,1.6,0,2.4,0H65c0.8,0,1.6,0,2.4,0.1L67.2,72.8z
	 M67.2,72.8l-1.3-2h-6.8l-1.3,2L57.7,73c0.8,0,1.6,0,2.4,0H65c0.8,0,1.6,0,2.4,0.1L67.2,72.8z M67.2,72.8l-1.3-2h-6.8l-1.3,2
	L57.7,73c0.8,0,1.6,0,2.4,0H65c0.8,0,1.6,0,2.4,0.1L67.2,72.8z M67.2,72.8l-1.3-2h-6.8l-1.3,2L57.7,73c0.8,0,1.6,0,2.4,0H65
	c0.8,0,1.6,0,2.4,0.1L67.2,72.8z M67.2,72.8l-1.3-2h-6.8l-1.3,2L57.7,73c0.8,0,1.6,0,2.4,0H65c0.8,0,1.6,0,2.4,0.1L67.2,72.8z
	 M67.2,72.8l-1.3-2h-6.8l-1.3,2L57.7,73c0.8,0,1.6,0,2.4,0H65c0.8,0,1.6,0,2.4,0.1L67.2,72.8z M67.2,72.8l-1.3-2h-6.8l-1.3,2
	L57.7,73c0.8,0,1.6,0,2.4,0H65c0.8,0,1.6,0,2.4,0.1L67.2,72.8z M67.2,72.8l-1.3-2h-6.8l-1.3,2L57.7,73c0.8,0,1.6,0,2.4,0H65
	c0.8,0,1.6,0,2.4,0.1L67.2,72.8z M67.2,72.8l-1.3-2h-6.8l-1.3,2L57.7,73c0.8,0,1.6,0,2.4,0H65c0.8,0,1.6,0,2.4,0.1L67.2,72.8z
	 M67.2,72.8l-1.3-2h-6.8l-1.3,2L57.7,73c0.8,0,1.6,0,2.4,0H65c0.8,0,1.6,0,2.4,0.1L67.2,72.8z M67.2,72.8l-1.3-2h-6.8l-1.3,2
	L57.7,73c0.8,0,1.6,0,2.4,0H65c0.8,0,1.6,0,2.4,0.1L67.2,72.8z"/>
<path class="st0" d="M61.4,69L61,68.8l-4-2.5L55,65l-2-1.3l-2.4-1.5l-5.3,8.4l0,0l0,0l4.9,3.1l0,0l6.7,4.3l2.1-3.2l1.1-1.8l0.1-0.2
	l1.1-1.8l0.2-0.3l0.8-1.2L61.4,69z M57.7,73l-1.1,1.7l-0.3,0.5l-0.8-0.5l-2.2-1.4l-0.2-0.1l-5-3.2l0,0l3.2-5l1.7,1.1l2,1.3l2,1.3
	l0.7,0.4l1.8,1.2l-0.4,0.6l-1.3,2L57.7,73z"/>
<path class="st0" d="M59.2,70.8l-1.3,2L57.7,73c0.8,0,1.6,0,2.4,0l0.1-0.2l1.1-1.8l0.2-0.3L59.2,70.8z M64.3,69.2
	c0-0.1,0-0.1-0.1-0.2c0-0.1,0-0.2-0.1-0.2c-0.2-0.4-0.4-0.7-0.8-0.9l-0.8-0.5l-5.5-3.5l-2-1.3l0,0l-2-1.3l-1.3-0.8
	c-0.9-0.6-2.2-0.3-2.8,0.6l-5.4,8.4c-0.6,0.9-0.3,2.2,0.6,2.8l3,1.9l8.6,5.5c0.3,0.2,0.7,0.3,1.1,0.3c0.7,0,1.3-0.3,1.7-0.9l2.8-4.3
	l1.2-1.8l0.1-0.1l0.1-0.1l1.1-1.8l0.2-0.3l0.1-0.1C64.3,70.2,64.4,69.7,64.3,69.2z M57.7,73l-1.1,1.7l-0.3,0.5l-0.8-0.5l-2.2-1.4
	l-0.2-0.1l-5-3.2l0,0l3.2-5l1.7,1.1l2,1.3l2,1.3l0.7,0.4l1.8,1.2l-0.4,0.6l-1.3,2L57.7,73z"/>
<path class="st0" d="M74.4,62.2l-2.3,1.5l-2,1.3l-2,1.3l-4,2.5L63.7,69l-0.9,0.6l0.8,1.2l0.2,0.3l1.1,1.7L65,73l0,0l1.1,1.8l2.1,3.2
	l6.7-4.2l0,0l4.8-3.1h0.1L74.4,62.2z M72,73.2l-0.2,0.1l-2.2,1.4l-0.8,0.5l-0.3-0.5L67.4,73l-0.2-0.3l-1.3-2l-0.4-0.6l1.8-1.1
	l0.7-0.4l4-2.5l1.7-1l3.2,5H77L72,73.2z"/>
<path class="st0" d="M81.5,69.6l-5.4-8.4c-0.6-0.9-1.8-1.2-2.8-0.6l-1.3,0.8l-2,1.3l-2,1.3l-5.5,3.5l-0.8,0.5
	c-0.3,0.2-0.6,0.5-0.7,0.9c0,0.1-0.1,0.1-0.1,0.2c0,0.1,0,0.1,0,0.2c-0.1,0.5,0,1.1,0.3,1.5l0.1,0.1l0.2,0.3l1.1,1.7l0.1,0.1
	l0.1,0.1l1.1,1.8l2.8,4.3c0.3,0.4,0.7,0.8,1.3,0.9c0.1,0,0.3,0,0.4,0c0.4,0,0.8-0.1,1.1-0.3l8.5-5.4l3.1-2
	C81.9,71.7,82.2,70.4,81.5,69.6L81.5,69.6z M77,70.1l-5,3.2l-0.2,0.1l-2.2,1.4l-0.8,0.5l-0.3-0.5l-1.1-1.7l-0.2-0.3l-1.3-2l-0.4-0.6
	l1.8-1.1l0.7-0.4l4-2.5l1.8-1.1L77,70.1L77,70.1z"/>
<path class="st0" d="M64.3,22.3h-3.9c-3.8,0-7.4,1.7-9.8,4.7c-0.4,0.5-0.7,1-1,1.5c-0.1,0.1-0.1,0.2-0.2,0.3
	c-0.4,0.7-0.7,1.3-0.9,2.1c-0.4,1.3-0.7,2.6-0.7,4v12.9c0,4,1.9,7.8,5.2,10.2c1.2,0.9,2.6,1.5,4,1.9c1.1,0.3,2.2,0.4,3.3,0.4h3.9
	c1.3,0,2.6-0.2,3.8-0.6c0.7-0.2,1.4-0.5,2-0.8c0.7-0.4,1.4-0.8,2-1.3c3-2.4,4.8-6,4.8-9.8V34.9C76.9,28,71.2,22.3,64.3,22.3
	L64.3,22.3z M74.8,47.8c0,2.6-1,5.2-2.8,7.1c-0.6,0.6-1.3,1.2-2,1.7c-0.6,0.4-1.3,0.7-2,1c-1.2,0.5-2.5,0.7-3.8,0.7h-3.9
	c-1.1,0-2.2-0.2-3.3-0.5c-0.7-0.2-1.4-0.5-2-0.9l0,0c-0.7-0.4-1.4-0.9-2-1.5c-2.1-2-3.2-4.7-3.2-7.6V34.9c0-0.8,0.1-1.6,0.3-2.3
	c0.2-0.7,0.4-1.4,0.7-2.1l0,0c0.2-0.4,0.4-0.8,0.6-1.1c0.1-0.2,0.3-0.4,0.4-0.6c2-2.7,5.2-4.4,8.5-4.4h3.9c5.8,0,10.5,4.7,10.5,10.5
	V47.8z"/>
<path class="st0" d="M64.3,20.3h-3.9c-4.7,0-9.1,2.3-11.8,6.1c-0.6,0.8-1,1.6-1.4,2.5l0,0c-0.9,1.9-1.3,3.9-1.3,6v12.9
	c0,5.2,2.8,10,7.2,12.6c0.6,0.4,1.3,0.7,2,1l0,0c0.6,0.3,1.3,0.5,2,0.6c1.1,0.3,2.2,0.4,3.3,0.4h3.9c1.3,0,2.6-0.2,3.8-0.5
	c0.7-0.2,1.4-0.4,2-0.7c0.7-0.3,1.4-0.7,2-1.1c4.2-2.7,6.8-7.3,6.8-12.3v-13C78.8,26.9,72.3,20.4,64.3,20.3z M74.8,47.8
	c0,2.6-1,5.2-2.8,7.1c-0.6,0.6-1.3,1.2-2,1.7c-0.6,0.4-1.3,0.7-2,1c-1.2,0.5-2.5,0.7-3.8,0.7h-3.9c-1.1,0-2.2-0.2-3.3-0.5
	c-0.7-0.2-1.4-0.5-2-0.9l0,0c-0.7-0.4-1.4-0.9-2-1.5c-2.1-2-3.2-4.7-3.2-7.6V34.9c0-0.8,0.1-1.6,0.3-2.3c0.2-0.7,0.4-1.4,0.7-2.1
	l0,0c0.2-0.4,0.4-0.8,0.6-1.1c0.1-0.2,0.3-0.4,0.4-0.6c2-2.7,5.2-4.4,8.5-4.4h3.9c5.8,0,10.5,4.7,10.5,10.5V47.8z"/>
<circle class="st0" cx="62.7" cy="83.4" r="1.8"/>
<circle class="st0" cx="62.7" cy="88.7" r="1.8"/>
<path class="st0" d="M59.5,32.6l5.5,2.3c-1.3-0.1-2.7-0.2-4.1-0.2c-3.8,0-7.5-1.5-10.1-4.2c-0.5-0.5-1-1.1-1.4-1.6
	c-0.2-0.3-0.3-0.5-0.3-0.5l0.5,0.2l1.9,0.8l2.1,0.9L59.5,32.6z"/>
<path class="st0" d="M76.8,39.8l-2-0.8l-9.8-4c4,0.4,7.7,1.2,9.8,2.5C76.1,38.1,76.8,38.9,76.8,39.8z"/>
<path class="st0" d="M76.8,36.3c-0.6-0.5-1.3-0.9-2-1.2c-4-1.8-10-2.4-13.9-2.4c-0.5,0-1,0-1.4-0.1c-2.2-0.2-4.3-1.1-6-2.5
	c-0.6-0.4-1.1-0.9-1.6-1.5c-0.4-0.4-0.8-0.9-1.1-1.4c-0.1-0.1-0.1-0.2-0.2-0.2c-0.5-0.6-1.3-0.8-2-0.6c-0.6,0.8-1,1.6-1.4,2.5l0,0
	c0.1,0.2,0.1,0.3,0.2,0.5c0.3,0.5,0.7,1,1.1,1.5c0.5,0.6,1,1.1,1.6,1.7c3,2.7,6.8,4.2,10.8,4.2c8,0,13.3,2,13.9,3.1c0,1.1,0.9,2,2,2
	s2-0.9,2-2l0,0C78.8,38.3,78.1,37,76.8,36.3z"/>
<path class="st0" d="M142,8.9H83.9c-1.1,0-2,0.9-2,2v26.9c0,1.1,0.9,2,2,2h36.7v10.9c0,1.1,0.9,2,2,2c0.6,0,1.2-0.3,1.5-0.7
	l10.2-12.2h7.7c1.1,0,2-0.9,2-2V10.9C144,9.8,143.1,8.9,142,8.9z M140,35.7h-6.6c-0.6,0-1.2,0.3-1.5,0.7l-7.2,8.7v-7.4
	c0-1.1-0.9-2-2-2H85.9V12.9H140V35.7z"/>
<path class="st0" d="M106,21.6c-1.1,0-2.1,0.9-2.1,2c0,0.1,0,0.1,0,0.2c-0.1,1.2,0.8,2.1,1.9,2.2c1.2,0.1,2.1-0.8,2.2-1.9
	c0-0.1,0-0.2,0-0.3c0.1-1.1-0.7-2.1-1.8-2.2C106.2,21.6,106.1,21.6,106,21.6z"/>
<path class="st0" d="M113.3,21.6c-1.1,0-2.1,0.9-2.1,2c0,0.1,0,0.1,0,0.2c-0.1,1.2,0.8,2.1,1.9,2.2c1.2,0.1,2.1-0.8,2.2-1.9
	c0-0.1,0-0.2,0-0.3c0.1-1.1-0.7-2.1-1.8-2.2C113.5,21.6,113.4,21.6,113.3,21.6z"/>
<path class="st0" d="M120.5,21.6c-1.1,0-2.1,0.9-2.1,2c0,0.1,0,0.1,0,0.2c-0.1,1.2,0.8,2.1,1.9,2.2c1.2,0.1,2.1-0.8,2.2-1.9
	c0-0.1,0-0.2,0-0.3c0.1-1.1-0.7-2.1-1.8-2.2C120.7,21.6,120.6,21.6,120.5,21.6z"/>
<path class="st0" d="M154,96h-44.6c-1.1,0-2-0.9-2-2s0.9-2,2-2H152V4H4.3v88h10.6c1.1,0,2,0.9,2,2s-0.9,2-2,2H2.3c-1.1,0-2-0.9-2-2
	V2c0-1.1,0.9-2,2-2H154c1.1,0,2,0.9,2,2v92C156,95.1,155.1,96,154,96z"/>
<line class="st0" x1="122" y1="106.4" x2="2" y2="106.4"/>
<path class="st0" d="M122,108.4H2c-1.1,0-2-0.9-2-2s0.9-2,2-2h120c1.1,0,2,0.9,2,2S123.1,108.4,122,108.4z"/>
<line class="st0" x1="142" y1="106.4" x2="132" y2="106.4"/>
<path class="st0" d="M142,108.4h-10c-1.1,0-2-0.9-2-2s0.9-2,2-2h10c1.1,0,2,0.9,2,2S143.1,108.4,142,108.4z"/>
<line class="st0" x1="154" y1="106.4" x2="151" y2="106.4"/>
<path class="st0" d="M154,108.4h-3c-1.1,0-2-0.9-2-2s0.9-2,2-2h3c1.1,0,2,0.9,2,2S155.1,108.4,154,108.4z"/>
</svg>
