<?xml version="1.0" encoding="utf-8"?>
<!-- Generator: Adobe Illustrator 25.0.0, SVG Export Plug-In . SVG Version: 6.00 Build 0)  -->
<svg version="1.1" id="Calque_1" xmlns="http://www.w3.org/2000/svg" xmlns:xlink="http://www.w3.org/1999/xlink" x="0px" y="0px"
	 viewBox="0 0 74 73" style="enable-background:new 0 0 74 73;" xml:space="preserve">
<style type="text/css">
	.st0{filter:url(#Adobe_OpacityMaskFilter);}
	.st1{fill-rule:evenodd;clip-rule:evenodd;fill:#FFFFFF;}
	.st2{mask:url(#mask-3_1_);fill-rule:evenodd;clip-rule:evenodd;fill:#FFFFFF;}
</style>
<g id="Pages-principales">
	<g id="OUR-CAMPUSES" transform="translate(-1025.000000, -826.000000)">
		<g id="Filter" transform="translate(165.000000, 732.000000)">
			<g id="Oceania-_x28_-actif_x29_" transform="translate(815.000000, 56.000000)">
				<g id="Oceania-picto">
					<g transform="translate(45.000000, 38.000000)">
						<g id="Group-7" transform="translate(53.391650, 61.248954)">
							<g id="Clip-6">
							</g>
							<defs>
								<filter id="Adobe_OpacityMaskFilter" filterUnits="userSpaceOnUse" x="0" y="0" width="11.1" height="10.7">
									<feColorMatrix  type="matrix" values="1 0 0 0 0  0 1 0 0 0  0 0 1 0 0  0 0 0 1 0"/>
								</filter>
							</defs>
							<mask maskUnits="userSpaceOnUse" x="0" y="0" width="11.1" height="10.7" id="mask-3_1_">
								<g class="st0">
									<polygon id="path-2_1_" class="st1" points="0,0 11.1,0 11.1,10.7 0,10.7 									"/>
								</g>
							</mask>
							<path id="Fill-5" class="st2" d="M2.9,2.9C2.9,2.9,3,2.9,2.9,2.9c0.4,1.2,1.5,2.8,2.3,4l0.2,0.3c0.4,0.6,1.1,0.7,1.5,0.7
								c0.3-0.1,0.8-0.3,0.9-1c0-0.1,0-0.2,0-0.3c0-0.3-0.1-0.7,0-1.1c0.1-0.4,0.2-0.7,0.3-0.9c0,0,0.1-0.1,0.1-0.1
								c0-0.3,0-0.7-0.1-0.9c-1.5,0.3-2.7,0-3.8-0.3C3.9,3.1,3.5,3,3.1,2.9C3,2.9,3,2.9,2.9,2.9 M6.7,10.7c-1.4,0-2.8-0.7-3.6-1.9
								L2.9,8.5C2,7.2,0.7,5.3,0.2,3.7c-0.4-1.5,0.1-2.4,0.5-2.9C1.1,0.5,2-0.2,3.6,0.1c0.5,0.1,1,0.2,1.5,0.3
								c1,0.3,1.7,0.4,2.6,0.3c0.9-0.2,1.7,0,2.3,0.6c1,0.9,1.2,2.5,1,3.6c-0.1,0.4-0.2,0.8-0.3,1c0,0,0,0.1-0.1,0.1
								c0,0.1,0,0.2,0,0.3c0,0.3,0.1,0.8,0,1.3c-0.4,1.7-1.6,2.8-3.2,3.1C7.2,10.7,6.9,10.7,6.7,10.7"/>
						</g>
						<g id="Group-10" transform="translate(0.000000, 0.127682)">
							<path id="Fill-8" class="st1" d="M54.8,59.2c-0.3,0-0.7-0.1-1-0.2c-0.8-0.4-1.2-1.1-1.4-1.7c-0.1-0.1-0.2-0.3-0.2-0.4
								c0,0-0.1,0-0.1-0.1c-0.1,0-0.2,0-0.2,0c-0.1,0-0.3,0-0.4-0.1c-1.9-0.3-3.4-1.2-4.4-2.5c-0.5-0.7-0.8-1.5-1-2.2
								c-0.1-0.3-0.2-0.9-0.4-1.1c-0.1,0-0.2,0-0.3,0.1c-0.5,0.1-1.4,0.4-2.3-0.1c-0.8-0.4-1-1.2-1.1-1.6c-0.2,0-0.4-0.1-0.7-0.2
								c-1.3-0.6-2.3-1.3-3.3-2.6c-2.1-2.5-4-3.7-6.3-4c-2.4-0.4-4.9,0.2-7.5,1.8c-2.1,1.3-4,2.1-6,2.3c-0.5,0.1-1,0.1-1.5,0.1
								c-0.9,0.1-1.8,0.1-2.6,0.4c-0.6,0.2-1.1,0.5-1.7,0.7c-1.7,0.8-3.5,1.6-6.2,0.7c-0.2-0.1-0.4-0.1-0.6-0.2
								c-1-0.4-2.3-0.8-2.9-2c-0.2-0.5-0.4-1.2,0-2.2c0.2-0.5,0.5-0.9,0.7-1.3C3.7,42.7,4,42.3,4,42.1c0-0.1-0.1-0.4-0.3-0.8
								C3.5,41,3.3,40.5,3.2,40c-0.2-1-0.2-1.8-0.2-2.6c0-1.3,0-2.3-0.7-3.5c-0.2-0.3-0.4-0.7-0.7-1.1c-0.8-1.1-1.6-2.4-1.7-4
								c-0.1-1.6,0.5-3.3,1-4.6c0.1-0.2,0.2-0.5,0.2-0.7c1.3-3.9,5.2-5.2,8.3-6.3c0.6-0.2,1.2-0.4,1.8-0.6c0.4-0.1,0.7-0.3,1.1-0.4
								c0.9-0.3,1.7-0.6,2.3-1c0.3-0.2,0.3-0.4,0.4-1.1c0.1-0.5,0.2-1,0.4-1.6c0.4-0.8,0.9-1.3,1.4-1.7c0.1-0.1,0.1-0.1,0.2-0.2
								l0.4-0.4c1.2-1.1,2.5-2.2,3.8-3.3c0.9-0.7,1.9-1.4,3.4-1.5c1-0.1,1.8,0.3,2.5,0.5c0.4,0.2,0.7,0.3,1,0.3
								c0.5,0,1.4-1.2,1.9-1.9c0.3-0.4,0.6-0.8,1-1.2c2-2.1,4.2-2.1,6.2-1.9c0.4,0,0.8,0.1,1.3,0.1c1.4,0.1,3,0.1,4.2,0.8
								c0.8,0.4,1.2,1,1.4,1.7c0.3,1.2-0.3,2.3-0.8,3.2c-0.2,0.4-0.6,1-0.6,1.2c0.3,0.7,1.6,1.5,2.5,2c0.4,0.2,0.8,0.5,1.1,0.7
								c0.9,0.6,1.6,0.8,1.9,0.7c0.2-0.1,0.3-0.4,0.3-0.6c0.3-1.1,0.2-2.3,0.2-3.5c-0.1-1.6-0.2-3.5,0.5-5.3C50.4,0.3,51.5,0,52.2,0
								c1.2,0,2.3,1.1,2.9,2.8c0.1,0.3,0.2,0.6,0.3,0.9c0.2,0.6,0.3,1.1,0.5,1.5c0.1,0.2,0.2,0.3,0.6,0.6c0.4,0.2,0.8,0.5,1.2,1
								c1,1.1,1.3,2.6,1.6,4c0.1,0.5,0.2,1,0.3,1.4c0.6,1.8,1.6,2.5,3.2,3.7l0.2,0.1c1.4,1,1.9,2.3,2.3,3.3c0.3,0.6,0.5,1.2,0.9,1.7
								l3.1,3.6c0.1,0.1,0.5,0.2,0.8,0.3c0.7,0.1,1.7,0.3,2.3,1.2c0.7,1,0.4,2.2,0.2,3c-0.1,0.3-0.2,0.7-0.1,0.8
								c0.4,1.7,0.4,3.1,0.4,4.7c0,0.3,0,0.6,0,0.9c0.1,0.9,0.1,2-0.2,3c-0.2,0.8-1,1.2-1.8,0.9c-0.8-0.2-1.2-1-0.9-1.8
								c0.1-0.5,0.1-1.3,0.1-2c0-0.4,0-0.7,0-1.1c0-1.5-0.1-2.7-0.4-4.2c-0.2-0.7,0-1.4,0.2-2c0-0.2,0.1-0.5,0.1-0.7
								c-0.1,0-0.3-0.1-0.5-0.1c-0.7-0.1-1.7-0.3-2.4-1.2l-3.1-3.6c-0.7-0.8-1.1-1.7-1.4-2.5c-0.3-0.9-0.6-1.5-1.3-2l-0.2-0.1
								c-1.8-1.3-3.4-2.5-4.3-5.1c-0.2-0.5-0.3-1.1-0.4-1.7c-0.2-1-0.5-2.1-0.9-2.6c-0.1-0.2-0.3-0.3-0.6-0.4
								c-0.5-0.3-1.2-0.7-1.7-1.7c-0.3-0.6-0.5-1.3-0.7-2c-0.1-0.3-0.2-0.6-0.3-0.8c-0.1-0.2-0.1-0.3-0.2-0.5
								c-0.5,1.2-0.4,2.5-0.3,4c0.1,1.5,0.2,3-0.3,4.5c-0.5,1.6-1.4,2.2-2.1,2.5c-1.7,0.6-3.6-0.4-4.5-1c-0.3-0.2-0.6-0.4-0.9-0.6
								c-1.4-0.8-3.1-1.8-3.7-3.4c-0.5-1.4,0.2-2.7,0.8-3.7c0.2-0.3,0.4-0.7,0.5-0.9c0,0,0,0,0,0c-0.6-0.3-1.9-0.4-2.9-0.4
								c-0.6,0-1.1,0-1.6-0.1c-1.9-0.2-2.9,0-3.8,1C33,5.3,32.8,5.6,32.5,6c-1,1.3-2.2,2.9-4.1,3c-0.9,0-1.6-0.3-2.2-0.5
								c-0.5-0.2-0.9-0.3-1.2-0.3c-0.6,0-1.1,0.3-1.9,0.9c-1.2,1-2.5,2.1-3.7,3.2l-0.4,0.4c-0.1,0.1-0.2,0.2-0.3,0.2
								c-0.4,0.3-0.6,0.5-0.7,0.8c-0.1,0.3-0.2,0.6-0.2,0.9c-0.1,0.8-0.3,1.9-1.5,2.9c-0.9,0.8-2.1,1.1-3.2,1.5
								c-0.3,0.1-0.7,0.2-1,0.3c-0.6,0.2-1.3,0.4-1.9,0.7c-2.9,1-5.7,1.9-6.5,4.4c-0.1,0.2-0.2,0.5-0.2,0.7
								c-0.4,1.2-0.9,2.6-0.8,3.6c0,0.8,0.6,1.7,1.2,2.5c0.3,0.4,0.6,0.9,0.8,1.3c1,1.8,1,3.4,1,4.9c0,0.7,0,1.4,0.1,2.2
								c0,0.2,0.1,0.4,0.3,0.7c0.3,0.6,0.6,1.4,0.5,2.4c-0.1,0.8-0.6,1.5-0.9,2c-0.2,0.2-0.3,0.5-0.4,0.6c0.3,0.2,0.8,0.3,1.1,0.5
								c0.2,0.1,0.4,0.1,0.6,0.2c1.5,0.6,2.5,0.1,4-0.6c0.6-0.3,1.2-0.6,2-0.8c1.2-0.4,2.3-0.5,3.3-0.5c0.5,0,0.9-0.1,1.4-0.1
								c1.6-0.2,3-0.8,4.8-1.9c3.2-2,6.3-2.7,9.5-2.3c3.9,0.6,6.4,3,8.1,5c0.8,0.9,1.4,1.4,2.3,1.8c0,0,0.2,0.1,0.3,0.1
								c0.4,0.1,1,0.3,1.5,0.8c0.3,0.3,0.4,0.6,0.5,0.8c0.6-0.2,1.5-0.3,2.5,0.3c1,0.7,1.3,1.8,1.6,2.8c0.1,0.5,0.3,1,0.5,1.2
								c0.6,0.8,1.5,1.3,2.7,1.5c0.1,0,0.2,0,0.3,0.1c0.7,0.1,1.2,0.2,1.8,0.8c0.3,0.3,0.5,0.6,0.7,0.9c0.2-0.4,0.5-0.8,1-1.1
								c1.3-0.8,2.3-0.5,3-0.4c0.3,0.1,0.5,0.1,0.7,0.1c0.1,0,0.1,0,0.5-0.4c0.4-0.5,1-1.2,2.1-1.4c0.3-0.1,0.7-0.1,0.9-0.2
								c0.8-0.1,0.9-0.1,1.1-0.5c0.2-0.4,0.3-0.9,0.2-1.6c0-0.1,0-0.2,0-0.3c0-1.6,0.4-2.3,1-3.3l0.1-0.2c0.4-0.7,1.2-1,1.9-0.6
								c0.7,0.4,1,1.2,0.6,1.9L67.9,48c-0.5,0.9-0.6,1.1-0.6,2c0,0.1,0,0.2,0,0.3c0,1,0,2.2-0.7,3.3c-1,1.4-2.2,1.6-3.1,1.7
								c-0.2,0-0.5,0.1-0.7,0.1c-0.2,0-0.3,0.1-0.6,0.5c-0.4,0.5-1.1,1.3-2.5,1.4c-0.6,0-1.1-0.1-1.5-0.2c-0.5-0.1-0.6-0.1-0.8,0
								c-0.1,0.1-0.2,0.3-0.3,0.5c-0.2,0.4-0.5,0.8-0.9,1.2C55.8,59.1,55.3,59.2,54.8,59.2"/>
						</g>
						<path id="Fill-11" class="st1" d="M69.3,43.9c-0.2,0-0.5-0.1-0.7-0.2c-0.6-0.3-1-1.1-0.6-1.9l0,0l0,0c0,0,0,0,0,0c0,0,0,0,0,0
							l0,0l0,0c0.4-0.8,1.3-0.9,1.9-0.6c0.6,0.3,1,1.1,0.6,1.9v0l0,0c0,0,0,0,0,0c0,0,0,0,0,0c0,0,0,0,0,0l0,0l0,0
							C70.3,43.7,69.8,43.9,69.3,43.9"/>
					</g>
				</g>
			</g>
		</g>
	</g>
</g>
</svg>
