<?xml version="1.0" encoding="utf-8"?>
<!-- Generator: Adobe Illustrator 25.0.0, SVG Export Plug-In . SVG Version: 6.00 Build 0)  -->
<svg version="1.1" id="Layer_1" xmlns="http://www.w3.org/2000/svg" xmlns:xlink="http://www.w3.org/1999/xlink" x="0px" y="0px"
	 viewBox="0 0 512 512" style="enable-background:new 0 0 512 512;" xml:space="preserve">
<style type="text/css">
	.st0{fill:#FFFFFF;}
</style>
<g>
	<path class="st0" d="M494.5,439.3h-9v-116c0-4.1-3.4-7.5-7.5-7.5s-7.5,3.4-7.5,7.5v116H358.2V226.1h104.7c4.1,0,7.5,3.4,7.5,7.5
		v59.7c0,4.1,3.4,7.5,7.5,7.5s7.5-3.4,7.5-7.5v-59.7c0-12.4-10.1-22.5-22.5-22.5H358.2v-34.4c0-12.4-10.1-22.5-22.5-22.5H262v-45.3
		h84.4c5.5,0.2,9.4-6.3,6.6-11.1l-14.3-26.5L353,44.6c2.8-4.8-1.1-11.3-6.6-11.1H262v-5c0-4.1-3.4-7.5-7.5-7.5s-7.5,3.4-7.5,7.5
		v125.6h-73.7c-12.4,0-22.5,10.1-22.5,22.5v34.4H46.1c-12.4,0-22.5,10.1-22.5,22.5v59.7c0,4.1,3.4,7.5,7.5,7.5s7.5-3.4,7.5-7.5
		v-59.7c0-4.1,3.4-7.5,7.5-7.5h104.7v213.2H38.6v-116c0-4.1-3.4-7.5-7.5-7.5c-4.1,0-7.5,3.4-7.5,7.5v116h-6
		c-9.7,0-17.5,7.9-17.5,17.5v26.6c0,4.1,3.4,7.5,7.5,7.5h497c4.1,0,7.5-3.4,7.5-7.5v-26.6C512,447.2,504.1,439.3,494.5,439.3
		L494.5,439.3z M333.8,48.5l-10.3,19c-1.2,2.2-1.2,4.9,0,7.1l10.3,19H262V48.5L333.8,48.5z M165.8,176.6c0-4.1,3.4-7.5,7.5-7.5
		h162.4c4.1,0,7.5,3.4,7.5,7.5v262.7h-35.2v-76.2c0-29.1-24-52.8-53.4-52.8s-53.4,23.7-53.4,52.8v21.2c0,4.1,3.4,7.5,7.5,7.5
		c4.1,0,7.5-3.4,7.5-7.5v-21.2c0-20.8,17.2-37.7,38.4-37.7s38.4,16.9,38.4,37.7v76.2h-76.8v-25c0-4.1-3.4-7.5-7.5-7.5
		s-7.5,3.4-7.5,7.5v25h-35.2L165.8,176.6L165.8,176.6z M497,476H15v-19.1c0-1.4,1.1-2.5,2.5-2.5h476.9c1.4,0,2.5,1.1,2.5,2.5
		L497,476z"/>
	<path class="st0" d="M254.5,284.2c25.5,0,46.2-20.7,46.2-46.2s-20.7-46.2-46.2-46.2s-46.2,20.7-46.2,46.2
		C208.3,263.4,229,284.2,254.5,284.2L254.5,284.2z M254.5,206.7c17.2,0,31.2,14,31.2,31.2c0,17.2-14,31.2-31.2,31.2
		s-31.2-14-31.2-31.2S237.3,206.7,254.5,206.7L254.5,206.7z"/>
	<path class="st0" d="M242.4,247.3h14.9c4.1,0,7.5-3.4,7.5-7.5v-16.3c0-4.1-3.4-7.5-7.5-7.5s-7.5,3.4-7.5,7.5v8.8h-7.4
		c-4.1,0-7.5,3.4-7.5,7.5C234.9,244,238.3,247.3,242.4,247.3L242.4,247.3z"/>
	<path class="st0" d="M73.4,298.3c4.2,0,7.5-3.4,7.5-7.5v-18c0-4.1-3.4-7.5-7.5-7.5s-7.5,3.4-7.5,7.5v18
		C65.9,294.9,69.3,298.3,73.4,298.3z"/>
	<path class="st0" d="M115.9,298.3c4.2,0,7.5-3.4,7.5-7.5v-18c0-4.1-3.4-7.5-7.5-7.5s-7.5,3.4-7.5,7.5v18
		C108.4,294.9,111.8,298.3,115.9,298.3z"/>
	<path class="st0" d="M65.9,347.4c0,4.1,3.4,7.5,7.5,7.5s7.5-3.4,7.5-7.5v-18c0-4.1-3.4-7.5-7.5-7.5s-7.5,3.4-7.5,7.5V347.4z"/>
	<path class="st0" d="M108.4,347.4c0,4.1,3.4,7.5,7.5,7.5s7.5-3.4,7.5-7.5v-18c0-4.1-3.4-7.5-7.5-7.5s-7.5,3.4-7.5,7.5V347.4z"/>
	<path class="st0" d="M65.9,404c0,4.1,3.4,7.5,7.5,7.5s7.5-3.4,7.5-7.5v-18c0-4.1-3.4-7.5-7.5-7.5s-7.5,3.4-7.5,7.5V404z"/>
	<path class="st0" d="M108.4,404c0,4.1,3.4,7.5,7.5,7.5s7.5-3.4,7.5-7.5v-18c0-4.1-3.4-7.5-7.5-7.5s-7.5,3.4-7.5,7.5V404z"/>
	<path class="st0" d="M443.1,272.8c0-4.1-3.4-7.5-7.5-7.5s-7.5,3.4-7.5,7.5v18c0,4.1,3.4,7.5,7.5,7.5s7.5-3.4,7.5-7.5V272.8z"/>
	<path class="st0" d="M400.6,272.8c0-4.1-3.4-7.5-7.5-7.5s-7.5,3.4-7.5,7.5v18c0,4.1,3.4,7.5,7.5,7.5s7.5-3.4,7.5-7.5V272.8z"/>
	<path class="st0" d="M443.1,329.4c0-4.1-3.4-7.5-7.5-7.5s-7.5,3.4-7.5,7.5v18c0,4.1,3.4,7.5,7.5,7.5s7.5-3.4,7.5-7.5V329.4z"/>
	<path class="st0" d="M400.6,329.4c0-4.1-3.4-7.5-7.5-7.5s-7.5,3.4-7.5,7.5v18c0,4.1,3.4,7.5,7.5,7.5s7.5-3.4,7.5-7.5V329.4z"/>
	<path class="st0" d="M435.6,378.5c-4.1,0-7.5,3.4-7.5,7.5v18c0,4.1,3.4,7.5,7.5,7.5s7.5-3.4,7.5-7.5v-18
		C443.1,381.8,439.7,378.5,435.6,378.5z"/>
	<path class="st0" d="M393.1,378.5c-4.1,0-7.5,3.4-7.5,7.5v18c0,4.1,3.4,7.5,7.5,7.5s7.5-3.4,7.5-7.5v-18
		C400.6,381.8,397.2,378.5,393.1,378.5z"/>
</g>
</svg>
