<?xml version="1.0" encoding="utf-8"?>
<!-- Generator: Adobe Illustrator 25.0.0, SVG Export Plug-In . SVG Version: 6.00 Build 0)  -->
<svg version="1.1" id="Calque_1" xmlns="http://www.w3.org/2000/svg" xmlns:xlink="http://www.w3.org/1999/xlink" x="0px" y="0px"
	 viewBox="0 0 512 512" style="enable-background:new 0 0 512 512;" xml:space="preserve">
<style type="text/css">
	.st0{fill:#FFFFFF;}
</style>
<g id="Outline">
	<path class="st0" d="M112.1,160c13.2,0,24-10.8,24-24h-16c0,4.4-3.6,8-8,8s-8-3.6-8-8h-16C88.2,149.2,98.9,160,112.1,160z"/>
	<rect x="128.1" y="104" class="st0" width="16" height="16"/>
	<path class="st0" d="M400,168c13.2,0,24-10.8,24-24h-16c0,4.4-3.6,8-8,8s-8-3.6-8-8h-16C376,157.2,386.8,168,400,168z"/>
	<path class="st0" d="M456,184h-13.6c13.8-12.1,21.7-29.6,21.7-48v-22.3c9.8-8.9,10.5-24.1,1.6-33.8c-0.6-0.6-1.2-1.2-1.8-1.8V56
		c0-22.1-17.9-40-40-40h-48c-22.1,0-40,17.9-40,40h16c0-13.2,10.8-24,24-24h48c13.2,0,24,10.8,24,24v16h-96c-13.2,0-24,10.7-24,24
		c0,6.9,3,13.5,8.2,18v22c0,18.4,7.9,35.9,21.7,48H344c-2.4,0-4.8,0.2-7.1,0.7C329.8,179,321,176,312,176h-13.7
		c13.8-12.1,21.7-29.6,21.7-48V56c0-22.1-17.9-40-40-40h-66.8c-16.2,0-29.3,13.1-29.3,29.3c0,11.7,7,22.3,17.8,26.9
		c24.5,10.5,52,11.7,77.3,3.2l5.6-1.9l19.6,32.6V128c0,26.5-21.5,48-48,48s-48-21.5-48-48V88h-16v40c0,18.4,7.9,35.9,21.7,48H200
		c-5.5,0-11,1.1-16,3.4V88c0-39.7-32.3-72-72-72h-10.4C63.2,16,32,47.2,32,85.6V168h16v-40.9l0.2,0v1c0,18.4,7.9,35.9,21.7,48H56
		c-22.1,0-40,17.9-40,40c0,0,0,0,0,0v24c0,4.4,3.6,8,8,8h18.3c-1.4,13.4,3.7,26.7,13.7,35.7v4.3H32v-24H16v48
		c0,17.6,14.3,31.9,31.9,32l-15.8,94.7c-0.7,4.4,2.2,8.5,6.6,9.2c0.4,0.1,0.9,0.1,1.3,0.1h16v48h16v-48h32v48h16v-48h32v48h16v-48
		h16c4.4,0,8-3.6,8-8c0-0.4,0-0.9-0.1-1.3l-6.4-38.7h6.6v96h16V368h96v128h16V344h16v152h16V376h96v120h16V344c17.7,0,32-14.3,32-32
		v-88C496,201.9,478.1,184,456,184z M294.9,59.9c-1.9-3.2-5.8-4.7-9.4-3.5l-11.6,3.9c-21.6,7.2-45,6.2-65.9-2.7
		c-6.8-2.9-9.9-10.7-7-17.5c2.1-4.9,6.9-8.1,12.2-8.1H280c13.2,0,24,10.8,24,24v19.1L294.9,59.9z M356.4,273.3
		c-1.3-0.9-2.9-1.3-4.4-1.3v-8h24v-16h-24v-32c0-5.5-1.1-11-3.3-16h22.8l20.5,34.2V278l-15.6,8.7L356.4,273.3z M328,320h-20.5
		c-1.1,0-2.3-0.2-3.3-0.7l-28.8-13.1l22.4-10.2H336v16C336,316.4,332.4,320,328,320z M207.8,319.3c-1,0.5-2.2,0.7-3.3,0.7H184
		c-4.4,0-8-3.6-8-8v-18l99.8-28.5l9.3,18.6L207.8,319.3z M160,360H72v-16h88V360z M137.6,192l-25,40h-1.1l-25-40H137.6z M206.7,256
		l14,4.7l-2.3,4.6L176,277.4V256H206.7z M265,192l-7.7,11.6c-0.9,1.3-1.3,2.8-1.3,4.4c0-1.6-0.5-3.1-1.3-4.4l-7.7-11.6H265z
		 M305.3,256H336v24h-35.1l-9.7-19.3L305.3,256z M256,208.6c0-0.2,0-0.4,0-0.6C256,208.2,256,208.4,256,208.6l3.5,44.9l-3.5,1
		l-3.5-1L256,208.6z M168,159.2V176h-13.6C159.9,171.2,164.4,165.5,168,159.2z M156.4,192H168v0c-5.2,6.9-8,15.3-8,24v16h-28.6
		L156.4,192z M256,315l1.2,0.5l-1.2,1.2l-1.2-1.2L256,315z M409.9,200l-9.9,16.5l-9.9-16.5H409.9z M408,287.4l40.6-22.5l31.4,12.6
		V288h-72V287.4z M480,224v36.2l-16-6.4V232h-16v16h-24v12.2l-16,8.9v-34.9l20.5-34.2H456C469.2,200,480,210.8,480,224z M352,88h96
		c4.4,0,8,3.6,8,8s-3.6,8-8,8h-5.1c-6.6,0-13.1-0.8-19.5-2.4c-15.4-3.8-31.4-3.8-46.8,0c-1.6,0.4-3.2,0.7-4.8,1
		c-4.9,0.9-9.8,1.4-14.7,1.4H352c-4.4,0-8-3.6-8-8S347.6,88,352,88z M352.1,136v-16h5c3.6,0,7.3-0.2,10.9-0.6v8.6h16v-11.7
		c10.6-2.1,21.4-2.1,32,0V128h16v-8.6c3.6,0.4,7.2,0.6,10.9,0.6h5.1c0,0,0.1,0,0.1,0v16c0,26.5-21.5,48-48,48S352.1,162.5,352.1,136
		z M329,199c4.5,4.5,7,10.6,7,17v24h-16v-16h-16v16c-0.9,0-1.7,0.1-2.5,0.4l-23.8,7.9l-2.5,0.7l-3-38.9l12.1-18.1H312
		C318.4,192,324.5,194.5,329,199L329,199z M200,192h27.7l12.1,18.1l-3,38.9l-2.5-0.7l-23.8-7.9c-0.8-0.3-1.7-0.4-2.5-0.4v-16h-16v16
		h-16v-24C176,202.8,186.7,192,200,192C200,192,200,192,200,192z M48,85.6C48,56,72,32,101.6,32H112c30.9,0,56,25.1,56,56v6.1
		l-1.6,3.1L142.2,67c-2.8-3.5-7.8-4-11.2-1.2c-0.5,0.4-0.9,0.8-1.2,1.2c-19.2,24.1-47,39.7-77.6,43.4l-4.2,0.5V85.6z M64.2,128v-3.3
		c5.8-1.2,11.6-2.7,17.2-4.7h14.8v-6.1c14.9-7.2,28.4-17.2,39.6-29.4l24.4,30.5v13c0,26.5-21.5,48-48,48S64.1,154.5,64.2,128z
		 M54.6,222.1c-2.9,2.9-5.4,6.3-7.4,9.9H32v-16c0-13.2,10.7-24,24-24c0,0,0,0,0,0h11.6l25,40H67.3l2.3-2.3l-11.3-11.3L54.6,222.1z
		 M72,280v-32h88v40h-3.1l2.2-4.4c2-4,0.4-8.8-3.6-10.7l-16-8c-3.1-1.5-6.8-0.9-9.2,1.5L108.7,288H72V280z M32,312v-8h80
		c2.1,0,4.2-0.8,5.7-2.3l19.9-19.9l3.7,1.8l-4.4,8.8c-2,4-0.4,8.8,3.6,10.7c1.1,0.6,2.3,0.8,3.6,0.8h16v24H48
		C39.2,328,32,320.8,32,312z M174.6,432H49.4l9.6-57.7c1.4,1.1,3.1,1.7,4.9,1.7h88v8c0,0.3,0,0.5,0,0.8l0,0.1
		c0.5,8.5,7.5,15.1,16,15.1h1.2L174.6,432z M168,384L168,384L168,384v-8c4.4,0,8-3.6,8-8v-33.4c2.6,0.9,5.3,1.4,8,1.4h8v48H168z
		 M208,352v-16.3c2.2-0.3,4.4-1,6.5-1.9l24.8-11.3l11.1,11.1c3.1,3.1,8.2,3.1,11.3,0c0,0,0,0,0,0l11.1-11.1l24.8,11.3
		c2.1,0.9,4.2,1.6,6.5,1.9V352H208z M352,344h40v16h-40V344z M448,360h-40v-16h40V360z M480,312c0,8.8-7.2,16-16,16H345.9
		c4-4.4,6.1-10.1,6.1-16v-22.4c0,0,19.6,13,19.6,13.1c1.3,0.9,2.8,1.3,4.4,1.3h104V312z"/>
	<path class="st0" d="M400,392c-4.2,0-7.6,3.2-8,7.3l-8,96H416l-8-96C407.6,395.2,404.2,392,400,392z"/>
	<path class="st0" d="M256,136c-4.4,0-8-3.6-8-8h-16c0,13.3,10.7,24,24,24c13.3,0,24-10.7,24-24h-16C264,132.4,260.4,136,256,136z"
		/>
	<rect x="224" y="96" class="st0" width="16" height="16"/>
	<rect x="272" y="96" class="st0" width="16" height="16"/>
	<path class="st0" d="M256,384c-4.2,0-7.7,3.2-8,7.4l-8,104h32l-8-104C263.7,387.2,260.2,384,256,384z"/>
</g>
</svg>
