<?xml version="1.0" encoding="utf-8"?>
<!-- Generator: Adobe Illustrator 25.0.0, SVG Export Plug-In . SVG Version: 6.00 Build 0)  -->
<svg version="1.1" id="Capa_1" xmlns="http://www.w3.org/2000/svg" xmlns:xlink="http://www.w3.org/1999/xlink" x="0px" y="0px"
	 viewBox="0 0 512 512" style="enable-background:new 0 0 512 512;" xml:space="preserve">
<style type="text/css">
	.st0{fill:#FFFFFF;}
</style>
<g>
	<g>
		<path class="st0" d="M70,123c-5.5,0-10,4.5-10,10c0,5.5,4.5,10,10,10s10-4.5,10-10S75.5,123,70,123z"/>
	</g>
</g>
<g>
	<g>
		<path class="st0" d="M502,123H379c-5.5,0-10,4.5-10,10v113H253c-5.5,0-10,4.5-10,10v113H130H10c-5.5,0-10,4.5-10,10v123
			c0,5.5,4.5,10,10,10h120h123h126h123c5.5,0,10-4.5,10-10V379V256V133C512,127.5,507.5,123,502,123z M120,492H20V389h100V492z
			 M243,492H140V389h103V492z M369,492H263V389h106V492z M369,369H263V266h106V369z M492,492H389V389h103V492z M492,369H389V266h103
			V369z M492,246H389V143h103V246z"/>
	</g>
</g>
<g>
	<g>
		<path class="st0" d="M253,0H130H10C4.5,0,0,4.5,0,10v123v123c0,5.5,4.5,10,10,10h120c5.5,0,10-4.5,10-10V143h113
			c5.5,0,10-4.5,10-10V10C263,4.5,258.5,0,253,0z M120,123h-13c-5.5,0-10,4.5-10,10c0,5.5,4.5,10,10,10h13v103H20V143h12.6
			c5.5,0,10-4.5,10-10s-4.5-10-10-10H20V20h100V123z M243,123H140V20h103V123z"/>
	</g>
</g>
</svg>
