<?xml version="1.0" encoding="utf-8"?>
<!-- Generator: Adobe Illustrator 25.0.0, SVG Export Plug-In . SVG Version: 6.00 Build 0)  -->
<svg version="1.1" id="Capa_1" xmlns="http://www.w3.org/2000/svg" xmlns:xlink="http://www.w3.org/1999/xlink" x="0px" y="0px"
	 viewBox="0 0 512 512" style="enable-background:new 0 0 512 512;" xml:space="preserve">
<style type="text/css">
	.st0{fill:#FFFFFF;}
</style>
<g>
	<path class="st0" d="M172.8,350.3c-4,1.1-6.3,5.3-5.2,9.3l22.1,79.5c1.8,6.3,7.3,10.5,13.9,10.5s12.1-4.2,13.9-10.5l22.1-79.5
		c1.1-4-1.2-8.1-5.2-9.3c-4-1.1-8.1,1.2-9.3,5.2l-21.5,77.3l-21.5-77.3C181,351.5,176.8,349.2,172.8,350.3z"/>
	<path class="st0" d="M255.6,357.6V442c0,4.1,3.4,7.5,7.5,7.5s7.5-3.4,7.5-7.5v-84.4c0-4.1-3.4-7.5-7.5-7.5S255.6,353.4,255.6,357.6
		L255.6,357.6z"/>
	<path class="st0" d="M297.5,349.9c-4.1,0-7.5,3.4-7.5,7.5V442c0,4.1,3.4,7.5,7.5,7.5s7.5-3.4,7.5-7.5v-28.7h7.9
		c17.5,0,31.7-14.2,31.7-31.7c0-17.5-14.2-31.7-31.7-31.7L297.5,349.9L297.5,349.9z M329.7,381.6c0,9.2-7.5,16.7-16.7,16.7h-7.9
		v-33.3h7.9C322.2,364.9,329.7,372.4,329.7,381.6L329.7,381.6z"/>
	<path class="st0" d="M309.8,226l-24.1-5.4c-0.7-0.2-1.4-0.6-1.8-1.3l-12.6-21.2c-3.2-5.5-9-8.7-15.3-8.7s-12.1,3.3-15.3,8.7
		l-12.6,21.2c-0.4,0.7-1,1.1-1.8,1.3l-24.1,5.4c-6.2,1.4-11.1,5.8-13,11.9c-2,6-0.6,12.5,3.6,17.3l16.3,18.6
		c0.5,0.6,0.8,1.3,0.7,2.1l-2.3,24.6c-0.6,6.3,2.1,12.3,7.3,16.1s11.7,4.5,17.5,1.9l22.7-9.8c0.7-0.3,1.5-0.3,2.2,0l22.7,9.8
		c5.8,2.5,12.5,1.7,17.5-1.9c5.1-3.7,7.9-9.7,7.3-16.1l-2.3-24.6c-0.1-0.8,0.2-1.5,0.7-2.1l16.3-18.6c4.2-4.8,5.5-11.2,3.6-17.3
		C320.9,231.9,316,227.4,309.8,226L309.8,226z M308,245.3l-16.3,18.5c-3.2,3.7-4.8,8.6-4.4,13.4l2.3,24.6c0.2,2.1-2,3.6-3.9,2.8
		l-22.7-9.8c-4.5-1.9-9.6-1.9-14.1,0l-22.7,9.8c-1.9,0.8-4.1-0.7-3.9-2.8l2.3-24.6c0.5-4.9-1.1-9.8-4.4-13.4L204,245.3
		c-1.4-1.6-0.6-4.1,1.5-4.6l24.1-5.4c4.8-1.1,8.9-4.1,11.4-8.3l12.6-21.2c1.1-1.8,3.7-1.8,4.8,0L271,227c2.5,4.2,6.7,7.2,11.4,8.3
		l24.1,5.4C308.6,241.2,309.4,243.7,308,245.3L308,245.3z"/>
	<path class="st0" d="M371.1,102.2h-55l10.7-21.6c1.8-3.7,0.3-8.2-3.4-10.1c-3.7-1.8-8.2-0.3-10.1,3.4l-14.1,28.3h-27.7l-7.2-14.4
		L300.5,15h42l-15.8,31.9c-1.8,3.7-0.3,8.2,3.4,10.1c3.7,1.8,8.2,0.3,10.1-3.4l21.2-42.8c2.4-4.9-1.3-10.9-6.7-10.9h-58.8
		c-2.9,0-5.5,1.6-6.7,4.2L256,70.9L222.9,4.2C221.6,1.6,219,0,216.1,0h-58.8c-5.5,0-9.2,5.9-6.7,10.9l45.4,91.3h-55
		c-16.9,0-30.6,13.7-30.6,30.6v62.4c0,4.1,3.4,7.5,7.5,7.5s7.5-3.4,7.5-7.5v-62.4c0-8.6,7-15.6,15.6-15.6h62.5l11,22.2h-5.4
		c-4.1,0-7.5,3.4-7.5,7.5c0,4.1,3.4,7.5,7.5,7.5h93.8c4.1,0,7.5-3.4,7.5-7.5s-3.4-7.5-7.5-7.5h-12.8l-11-22.2h92
		c8.6,0,15.6,7,15.6,15.6V391c0,4.1,3.4,7.5,7.5,7.5c4.1,0,7.5-3.4,7.5-7.5V132.8C401.7,115.9,387.9,102.2,371.1,102.2L371.1,102.2z
		 M231.2,139.5L169.4,15h42l61.8,124.4H231.2z"/>
	<path class="st0" d="M394.2,413.6c-4.1,0-7.5,3.4-7.5,7.5v60.3c0,8.6-7,15.6-15.6,15.6H140.9c-8.6,0-15.6-7-15.6-15.6V225.3
		c0-4.1-3.4-7.5-7.5-7.5s-7.5,3.4-7.5,7.5v256.1c0,16.9,13.7,30.6,30.6,30.6h230.1c16.9,0,30.6-13.7,30.6-30.6v-60.3
		C401.7,416.9,398.3,413.6,394.2,413.6L394.2,413.6z"/>
</g>
</svg>
