<?xml version="1.0" encoding="utf-8"?>
<!-- Generator: Adobe Illustrator 25.0.0, SVG Export Plug-In . SVG Version: 6.00 Build 0)  -->
<svg version="1.1" id="Capa_1" xmlns="http://www.w3.org/2000/svg" xmlns:xlink="http://www.w3.org/1999/xlink" x="0px" y="0px"
	 viewBox="0 0 512 512" style="enable-background:new 0 0 512 512;" xml:space="preserve">
<style type="text/css">
	.st0{fill:#04809F;}
</style>
<g>
	<g>
		<path class="st0" d="M437.1,422.8c-3.9-3.9-10.3-3.9-14.2,0c-3.9,3.9-3.9,10.2,0,14.1c2,2,4.5,2.9,7.1,2.9s5.1-1,7.1-2.9l0.1-0.1
			C441,433.1,441,426.8,437.1,422.8z"/>
	</g>
</g>
<g>
	<g>
		<path class="st0" d="M511.5,239.8C507.6,177.6,481.1,119.1,437,75C388.7,26.6,324.4,0,256,0C190.8,0,129.4,24.2,81.9,68.3L71,58.4
			c-2.9-2.7-7.2-3.4-10.8-1.8c-3.6,1.6-6,5.2-6,9.2v74.7c0,5.5,4.5,10,10,10H139c4,0,7.6-2.4,9.2-6c1.6-3.7,0.8-7.9-1.9-10.8
			L128.7,115c74.5-67.3,189.9-65.1,261.7,6.7c74.1,74.1,74.1,194.6,0,268.7C354.5,426.2,306.8,446,256,446s-98.5-19.8-134.4-55.7
			C85.8,354.5,66,306.8,66,256c0-5.5-4.5-10-10-10H10c-5.5,0-10,4.5-10,10c0,68.4,26.6,132.7,75,181
			c43.8,43.8,101.9,70.2,163.7,74.4c5.8,0.4,11.5,0.6,17.3,0.6c55.2,0,109-17.8,153.2-50.9c4.4-3.3,5.3-9.6,2-14
			c-3.3-4.4-9.6-5.3-14-2c-93.2,69.8-225.6,60.2-308.1-22.2C46.9,380.7,22.7,325.3,20.2,266h26c2.4,52.3,24,101.2,61.3,138.5
			c81.9,81.9,215.1,81.9,297,0c81.9-81.9,81.9-215.1,0-297c-81.9-81.9-215.1-81.9-297,0c-3.8,3.8-3.9,10-0.2,13.9l8.5,9.1H74.3v-42
			l1,1c3.9,3.6,10,3.5,13.8-0.3C133.7,44.5,193,20,256,20s122.3,24.5,166.9,69.1c83.2,83.2,92.2,216.5,20.9,309.9
			c-3.4,4.4-2.5,10.7,1.9,14c4.4,3.4,10.7,2.5,14-1.9C497,362.3,515.4,301.4,511.5,239.8z"/>
	</g>
</g>
<g>
	<g>
		<path class="st0" d="M181.4,289h-30.3c1.3-1.2,2.7-2.5,4-3.7c18.9-18.2,28.1-33.7,28.1-47.2c0-21-14.1-35.1-35.1-35.1
			c-19.3,0-35.1,15.7-35.1,35.1c0,5.5,4.5,10,10,10c5.5,0,10-4.5,10-10c0-8.3,6.8-15.1,15.1-15.1c15.1,0,15.1,11.3,15.1,15.1
			c0,13.9-26.8,39.2-45.9,52.8c-3.6,2.5-5.1,7-3.7,11.2c1.3,4.1,5.2,7,9.5,7h58.3c5.5,0,10-4.5,10-10
			C191.4,293.5,186.9,289,181.4,289z"/>
	</g>
</g>
<g>
	<g>
		<path class="st0" d="M254.7,257.5h-6.8v-2.8c0-5.5-4.5-10-10-10s-10,4.5-10,10v2.8h-13.8l22.5-39.6c2.7-4.8,1.1-10.9-3.7-13.6
			c-4.8-2.7-10.9-1.1-13.6,3.7l-31,54.5c-1.8,3.1-1.7,6.9,0,10c1.8,3.1,5.1,5,8.6,5h31V299c0,5.5,4.5,10,10,10s10-4.5,10-10v-21.5
			h6.8c5.5,0,10-4.5,10-10C264.7,262,260.2,257.5,254.7,257.5z"/>
	</g>
</g>
<g>
	<g>
		<path class="st0" d="M317.6,203.7c-5.2-2-10.9,0.6-12.9,5.7l-33.1,86c-2,5.2,0.6,10.9,5.7,12.9c1.2,0.5,2.4,0.7,3.6,0.7
			c4,0,7.8-2.4,9.3-6.4l33.1-86C325.3,211.4,322.7,205.7,317.6,203.7z"/>
	</g>
</g>
<g>
	<g>
		<path class="st0" d="M397.1,207.3c-1.9-2.7-4.9-4.3-8.2-4.3h-42c-5.5,0-10,4.5-10,10s4.5,10,10,10h27.6l-27,72.5
			c-1.9,5.2,0.7,10.9,5.9,12.9c1.1,0.4,2.3,0.6,3.5,0.6c4.1,0,7.9-2.5,9.4-6.5l32-86C399.4,213.4,399,210,397.1,207.3z"/>
	</g>
</g>
</svg>
