<?xml version="1.0" encoding="utf-8"?>
<!-- Generator: Adobe Illustrator 25.0.0, SVG Export Plug-In . SVG Version: 6.00 Build 0)  -->
<svg version="1.1" id="Layer_1" xmlns="http://www.w3.org/2000/svg" xmlns:xlink="http://www.w3.org/1999/xlink" x="0px" y="0px"
	 viewBox="0 0 512 512" style="enable-background:new 0 0 512 512;" xml:space="preserve">
<style type="text/css">
	.st0{fill:#04809F;}
</style>
<g>
	<path class="st0" d="M169.8,454.2c-2.8,0-5-2.2-5-5V332.1c0-2.8,2.2-5,5-5s5,2.2,5,5v117.2C174.8,452,172.6,454.2,169.8,454.2z"/>
	<path class="st0" d="M342.2,454.2c-2.8,0-5-2.2-5-5V332.1c0-2.8,2.2-5,5-5s5,2.2,5,5v117.2C347.2,452,344.9,454.2,342.2,454.2z"/>
	<path class="st0" d="M261.2,402.8h-12.1c-4.7,0-8.8-3.2-10-7.7l-2.5-9.8l-8.7,5.2c-4.1,2.4-9.2,1.7-12.6-1.6l-8.6-8.6
		c-3.3-3.3-4-8.5-1.6-12.5l5.2-8.8l-9.8-2.5c-4.6-1.2-7.8-5.3-7.8-10v-12.1c0-4.7,3.2-8.8,7.7-10l9.8-2.5l-5.2-8.7
		c-2.4-4.1-1.7-9.2,1.6-12.6l8.6-8.5c3.3-3.3,8.5-4,12.6-1.6l8.7,5.2l2.5-9.8c1.2-4.6,5.3-7.7,10-7.7h12.1c4.7,0,8.8,3.2,10,7.7
		l2.5,9.8l8.7-5.2c4.1-2.4,9.2-1.7,12.6,1.6l8.5,8.5c3.3,3.3,4,8.5,1.6,12.5l-5.2,8.7l9.8,2.5c0,0,0,0,0,0c4.6,1.2,7.7,5.3,7.7,10
		v12.1c0,4.7-3.2,8.8-7.7,10L300,359l5.2,8.7c2.4,4.1,1.7,9.2-1.6,12.6l-8.5,8.5c-3.3,3.3-8.5,4-12.5,1.6l-8.7-5.2l-2.5,9.8
		C270,399.7,265.9,402.8,261.2,402.8L261.2,402.8z M239.7,372.6c0.6,0,1.3,0.1,1.9,0.4c1.5,0.6,2.5,1.9,2.9,3.4l4.2,16.3
		c0,0.1,0.2,0.2,0.3,0.2h12.1c0.2,0,0.3-0.1,0.3-0.2l4.2-16.3c0.4-1.5,1.5-2.8,2.9-3.4c1.5-0.6,3.1-0.5,4.5,0.3l14.5,8.5
		c0.1,0.1,0.3,0.1,0.4-0.1l8.5-8.5c0.1-0.1,0.1-0.3,0-0.4l-8.5-14.5c-0.8-1.4-0.9-3-0.3-4.5s1.9-2.5,3.4-2.9l16.3-4.2
		c0.1,0,0.2-0.2,0.2-0.3v-12.1c0-0.2-0.1-0.3-0.2-0.3l-16.3-4.2c-1.5-0.4-2.8-1.5-3.4-2.9s-0.5-3.1,0.3-4.5l8.5-14.5
		c0.1-0.1,0.1-0.3-0.1-0.4l-8.5-8.5c-0.1-0.1-0.3-0.1-0.4-0.1l-14.5,8.5c-1.4,0.8-3,0.9-4.5,0.3c-1.5-0.6-2.5-1.9-2.9-3.4l-4.2-16.3
		c0-0.1-0.2-0.2-0.3-0.2h-12.1c-0.1,0-0.3,0.1-0.3,0.2l-4.2,16.3c-0.4,1.5-1.5,2.8-2.9,3.4c-1.5,0.6-3.1,0.5-4.5-0.3l-14.5-8.5
		c-0.1-0.1-0.3-0.1-0.4,0.1l-8.6,8.5c-0.1,0.1-0.1,0.3-0.1,0.4l8.5,14.5c0.8,1.4,0.9,3,0.3,4.5c-0.6,1.5-1.9,2.5-3.4,2.9l-16.3,4.2
		c-0.1,0-0.2,0.2-0.2,0.3v12.1c0,0.2,0.1,0.3,0.2,0.3l16.3,4.2c1.5,0.4,2.8,1.5,3.4,2.9c0.6,1.5,0.5,3.1-0.3,4.5l-8.5,14.5
		c-0.1,0.1-0.1,0.3,0.1,0.4l8.6,8.5c0.1,0.1,0.3,0.1,0.4,0l14.5-8.5C237.9,372.8,238.8,372.6,239.7,372.6L239.7,372.6z"/>
	<g>
		<path class="st0" d="M315.8,217h-4.3c21.2-16.7,33.8-42.3,33.8-69.9c0-49.2-40-89.2-89.2-89.2s-89.2,40-89.2,89.2
			c0,27.7,12.6,53.2,33.8,69.9h-4.3c-51.9,0-94.1,42.2-94.1,94.1v138.1c0,2.8,2.2,5,5,5h297.8c2.8,0,5-2.2,5-5V311.1
			C409.9,259.2,367.7,217,315.8,217L315.8,217z M399.9,444.2H112.1V311.1c0-46.4,37.8-84.1,84.1-84.1h21.2c2.3,0,4.3-1.6,4.9-3.8
			s-0.5-4.6-2.6-5.6c-26.5-13.7-43-40.7-43-70.5c0-43.7,35.6-79.2,79.2-79.2c43.7,0,79.2,35.6,79.2,79.2c0,29.8-16.5,56.8-43,70.5
			c-2.1,1.1-3.1,3.4-2.6,5.6c0.5,2.2,2.5,3.8,4.9,3.8h21.2c46.4,0,84.1,37.7,84.1,84.1L399.9,444.2z"/>
		<path class="st0" d="M255.1,316.3c-13.3,0-24.1,10.8-24.1,24.1s10.8,24.1,24.1,24.1s24.1-10.8,24.1-24.1S268.4,316.3,255.1,316.3z
			 M255.1,354.5c-7.8,0-14.1-6.3-14.1-14.1s6.3-14.1,14.1-14.1c7.8,0,14.1,6.3,14.1,14.1S262.9,354.5,255.1,354.5z"/>
	</g>
	<path class="st0" d="M276.3,271.1c-2.8,0-5-2.2-5-5V138.1c0-2.8,2.2-5,5-5h14.1L256,98.7l-34.4,34.4h14.1c2.8,0,5,2.2,5,5v127.9
		c0,2.8-2.2,5-5,5s-5-2.2-5-5V143.1h-21.2c-2,0-3.8-1.2-4.6-3.1c-0.8-1.9-0.3-4,1.1-5.4l46.5-46.5c2-2,5.1-2,7.1,0l46.5,46.5
		c1.4,1.4,1.9,3.6,1.1,5.4c-0.8,1.9-2.6,3.1-4.6,3.1h-21.2v122.9C281.3,268.9,279,271.1,276.3,271.1L276.3,271.1z"/>
</g>
</svg>
