<svg xmlns="http://www.w3.org/2000/svg" viewBox="0 0 21.33 15"><defs><style>.cls-1{fill:#fff;}</style></defs><g id="Calque_2" data-name="Calque 2"><g id="Calque_1-2" data-name="Calque 1"><path class="cls-1" d="M21.11,3.24a4.58,4.58,0,0,0-.84-2.12,3,3,0,0,0-2.14-.9C15.14,0,10.67,0,10.67,0h0S6.18,0,3.2.22a3,3,0,0,0-2.14.9A4.64,4.64,0,0,0,.21,3.24,32.59,32.59,0,0,0,0,6.69V8.31a32.84,32.84,0,0,0,.21,3.45,4.58,4.58,0,0,0,.85,2.11,3.64,3.64,0,0,0,2.35.92c1.71.16,7.25.21,7.25.21s4.48,0,7.47-.22a3.06,3.06,0,0,0,2.14-.91,4.52,4.52,0,0,0,.84-2.11,31.37,31.37,0,0,0,.22-3.45V6.69A31.13,31.13,0,0,0,21.11,3.24Zm-12.65,7v-6l5.76,3Z"/></g></g></svg>