<?xml version="1.0" encoding="utf-8"?>
<!-- Generator: Adobe Illustrator 25.0.0, SVG Export Plug-In . SVG Version: 6.00 Build 0)  -->
<svg version="1.1" id="Calque_1" xmlns="http://www.w3.org/2000/svg" xmlns:xlink="http://www.w3.org/1999/xlink" x="0px" y="0px"
	 viewBox="0 0 57 72" style="enable-background:new 0 0 57 72;" xml:space="preserve">
<style type="text/css">
	.st0{fill-rule:evenodd;clip-rule:evenodd;fill:#04809F;}
</style>
<path id="Fill-7" class="st0" d="M44.8,49.2l-0.9,1.2c-0.1,0.1-0.2,0.3-0.2,0.5L43,53.5c-0.1,0.3-0.3,0.6-0.6,0.7
	c-0.7,0.3-1.3,0.8-1.7,1.4c-3.3,4.5-5.7,7.7-6.2,8.4c-0.3,0.3-0.5,0.7-0.7,1.5c0.1-1.1,0.4-2.4,0.6-3.8c0.7-4.4,1-7.1,1-8
	c0-1.5-1.1-2.2-1.6-2.5c-0.4-0.2-0.5-0.3-0.6-0.5C33,50,32.6,49.5,32.3,49c-0.5-0.8-0.7-1.1-0.6-1.9c0.1-0.5,0.2-0.7,0.4-1.1
	c0.4-0.6,0.8-1.2,0.9-2.3c0.1-0.1,0.1-0.2,0.1-0.3c0.2-0.2,0.4-0.4,0.6-0.6c0.2-0.1,0.4-0.2,0.6-0.1c1.7,0.5,3.3,1.1,4.8,2.1
	l0.5,0.3c0.1,0.9,0.7,1.7,1.6,2.1l3.5,1.6c0.1,0,0.1,0.1,0.1,0.2C44.9,49.1,44.9,49.1,44.8,49.2 M36.3,66.1c0.1-0.1,0.2-0.2,0.3-0.3
	C36.5,66,36.4,66.1,36.3,66.1 M45.8,46.3l-3.5-1.5c-0.1-0.8-0.6-1.5-1.3-2l-0.6-0.4c-1.7-1.1-3.6-1.9-5.6-2.4
	c-1.1-0.3-2.3,0-3.2,0.8l-4.2-5.3c0,0,0,0,0-0.1c0,0,0,0,0-0.1h0.1c1.7,0.1,3.3-0.6,4.4-1.8l5.9-6.6c1.8-2,1.6-5.1-0.4-7l-2-1.8
	c-0.6-0.5-1.3-0.8-2.1-0.8c-1.7,0-3,1.3-3.1,3c0,0.1-0.1,0.2-0.2,0.3l-0.5,0.2c-0.1,0-0.2,0-0.3-0.1c-0.5-0.4-0.8-1-0.8-1.6
	s0.2-1.2,0.6-1.7l0.8-0.9c0.2-0.3,0.4-0.5,0.6-0.9c0.2-0.3,0.6-0.5,1-0.3l3.6,1.6c1.2,0.5,2.7,0.2,3.4-0.9c0.5-0.6,0.6-1.4,0.5-2.2
	s-0.6-1.4-1.2-1.9l-4.6-3.1c0-0.4-0.1-0.8,0-1.2c0.1-0.2,0.2-0.3,0.3-0.4l3.1-2.1c0.8-0.5,1.2-1.4,1.1-2.3c-0.1-0.9-0.7-1.7-1.5-2
	l-0.7-0.3C33.7,0,31.9,0,30.3,0.7L29.6,1c-0.7,0.3-1,1.1-0.7,1.8s1.1,1,1.8,0.7l0.7-0.3c1-0.4,2-0.4,3-0.1l0,0L32,4.7
	c-0.6,0.4-1.1,1-1.4,1.7c-0.7,1.6-0.1,3.5,1.3,4.5l4.6,3.1l0,0l0,0l0,0l-3.6-1.6c-1.7-0.7-3.7-0.1-4.6,1.6c-0.1,0.1-0.1,0.2-0.2,0.3
	l-0.8,0.9c-0.9,1-1.4,2.4-1.3,3.8s0.7,2.7,1.8,3.6c0.8,0.7,1.9,0.9,2.9,0.6l0.5-0.2c1.2-0.4,2.1-1.5,2.1-2.8c0-0.2,0.1-0.3,0.3-0.3
	c0.1,0,0.1,0,0.2,0.1l2,1.8c0.9,0.8,0.9,2.1,0.2,3l-6,6.8c-0.6,0.6-1.4,1-2.2,0.9c-0.8,0-1.6,0.2-2.2,0.8c-0.6,0.5-0.9,1.3-0.9,2.1
	c0,0.7,0.2,1.3,0.6,1.8l1.5,1.9L24,37.7L19.8,32c-0.2-0.3-0.5-0.5-0.9-0.5c-0.9-0.2-1.6-1-1.7-1.9l-0.3-4c0-0.3-0.1-0.5-0.3-0.7
	l-3.3-4.5c-0.1-0.1-0.2-0.2-0.3-0.3c-0.3-0.2-2.6-1.9-4.5-2.2C7,17.7,6,18.2,5.3,18.8h-2c-0.3-0.4-0.7-1.1-0.7-2.5S3,14,3.3,13.7
	c0.1-0.1,0.3-0.2,0.5-0.1c1.7,0.3,7,1.1,7.1,1.1c0.2,0,0.3,0,0.5,0l3.2-0.6c0.5-0.1,0.9-0.4,1.1-0.9l0.9-2.3c0.4-1.1,1.3-2,2.3-2.5
	L20.2,8c0.7-0.3,1-1.1,0.7-1.8s-1.1-1-1.8-0.7L18,5.9c-1.8,0.8-3.2,2.2-3.9,4.1l-0.6,1.6L11.3,12c-1-0.2-5.4-0.8-6.8-1.1
	c-1-0.2-2,0.1-2.8,0.7C0.6,12.5,0,14.1,0,16.3c0,3.5,1.8,4.9,2.1,5c0.2,0.2,0.5,0.3,0.8,0.3h3.3c0.5,0,1-0.3,1.2-0.7
	c0,0,0.2-0.3,0.8-0.2c0.9,0.1,2.3,1,3.1,1.6l2.9,4l0.3,3.6c0.1,2,1.5,3.7,3.4,4.3l4,5.5c0.1,0.2,0.3,0.3,0.5,0.4l7.7,3.8
	c0,0.2-0.1,0.3-0.3,0.5c-0.3,0.4-0.8,1.1-1,2.4c-0.2,1.8,0.5,2.9,1.1,3.7c0.2,0.4,0.5,0.7,0.6,1c0.4,1.1,1.2,1.7,1.7,2
	c0.1,0.1,0.2,0.2,0.3,0.2c0,0,0,0,0,0.1c0,0.7-0.6,4.7-1,7.5c-0.4,2.7-0.8,5.1-0.8,5.9c-0.1,2.5,2.6,4.3,2.9,4.5
	c0.2,0.1,0.5,0.2,0.7,0.2s0.4-0.1,0.6-0.2c0.4-0.2,0.7-0.7,0.8-1.2l0.1-2.1c0.2-1,0.6-2.2,0.7-2.7c0.4-0.5,1.1-1.5,2.6-3.5
	c1.4-1.9,2.9-4,3.7-5.1c0.2-0.2,0.4-0.4,0.6-0.5c1.1-0.5,1.8-1.4,2.1-2.5l0.6-2.3l0.7-1c0.5-0.8,0.7-1.7,0.5-2.6
	C47.3,47.4,46.7,46.6,45.8,46.3"/>
<path id="Fill-10" class="st0" d="M25.2,5.7c0.4,0,0.7-0.1,1-0.4s0.4-0.6,0.4-1s-0.1-0.7-0.4-1s-0.6-0.4-1-0.4s-0.7,0.1-1,0.4
	s-0.4,0.6-0.4,1s0.1,0.7,0.4,1S24.9,5.7,25.2,5.7"/>
<path id="Fill-12" class="st0" d="M53.3,8.8L52.8,11c-0.2,1-0.9,1.9-1.8,2.4c-2,1-3.6,2.7-4.6,4.7L45,15.8c0-0.1,0-0.1,0-0.2
	c0.5-0.8,0.5-1.9,0.1-2.8l-1-2.2c-0.5-1.1-1.6-2-2.8-2.3c-0.5-0.1-0.8-0.5-0.8-1c0-0.4,0.3-0.8,0.7-0.9l2.3-0.8l5.8-1.1
	c0.5-0.1,1-0.1,1.4,0c0.9,0.2,1.7,0.8,2.2,1.6C53.3,6.9,53.5,7.8,53.3,8.8 M55.2,4.6c-0.9-1.4-2.3-2.4-4-2.8c-0.9-0.2-1.7-0.2-2.6,0
	l-5.9,1.1c-0.1,0-0.1,0-0.2,0.1l-2.4,0.8c-1.5,0.5-2.5,2-2.5,3.6c0,1.8,1.2,3.3,3,3.7c0.4,0.1,0.7,0.4,0.9,0.7l1,2.2
	c0,0.1,0,0.1,0,0.2c-0.5,0.9-0.5,2.1,0,3l1.9,3.2c0.4,0.7,1.1,1.1,1.9,1.1c0.9,0,1.7-0.6,2-1.4l0,0c0.7-1.9,2.1-3.4,3.8-4.3
	c1.6-0.9,2.8-2.4,3.3-4.2L56,9.4C56.4,7.8,56.1,6.1,55.2,4.6"/>
</svg>
