<?xml version="1.0" encoding="utf-8"?>
<!-- Generator: Adobe Illustrator 25.0.0, SVG Export Plug-In . SVG Version: 6.00 Build 0)  -->
<svg version="1.1" id="Capa_1" xmlns="http://www.w3.org/2000/svg" xmlns:xlink="http://www.w3.org/1999/xlink" x="0px" y="0px"
	 viewBox="0 0 512 512" style="enable-background:new 0 0 512 512;" xml:space="preserve">
<style type="text/css">
	.st0{fill:#04809F;}
</style>
<g>
	<g>
		<path class="st0" d="M310.2,93.7c4.5,0,8.8,1.3,12.5,3.8c3.4,2.3,8.1,1.4,10.4-2c2.3-3.4,1.4-8.1-2-10.4
			c-6.2-4.2-13.4-6.4-20.9-6.4c-20.6,0-37.4,16.8-37.4,37.4s16.8,37.4,37.4,37.4c8.3,0,15.7-2.7,21.4-7.8c1.1-1,2.2-2.1,3.2-3.3
			c2.7-3.2,2.2-7.9-0.9-10.6c-3.2-2.7-7.9-2.2-10.6,0.9c-0.5,0.6-1.1,1.2-1.7,1.7c-3,2.7-6.9,4-11.4,4c-12.4,0-22.4-10.1-22.4-22.4
			C287.8,103.7,297.8,93.7,310.2,93.7z"/>
		<path class="st0" d="M384.9,153.5L384.9,153.5c3.8,0,7.2-2.4,8.4-6.1l19.5-58.8c1.3-3.9-0.8-8.2-4.8-9.5c-3.9-1.3-8.2,0.8-9.5,4.8
			l-13.8,41.6l-14.5-41.9c-1.4-3.9-5.6-6-9.5-4.6c-3.9,1.4-6,5.6-4.6,9.5l20.5,59C377.8,151.2,381.2,153.5,384.9,153.5L384.9,153.5z
			"/>
		<path class="st0" d="M410.9,243.9H270.2c-4.1,0-7.5,3.4-7.5,7.5s3.4,7.5,7.5,7.5h140.7c4.1,0,7.5-3.4,7.5-7.5
			S415.1,243.9,410.9,243.9z"/>
		<path class="st0" d="M270.2,305h70.4c4.1,0,7.5-3.4,7.5-7.5s-3.4-7.5-7.5-7.5h-70.4c-4.1,0-7.5,3.4-7.5,7.5S266.1,305,270.2,305z"
			/>
		<path class="st0" d="M410.9,336H270.2c-4.1,0-7.5,3.4-7.5,7.5s3.4,7.5,7.5,7.5h140.7c4.1,0,7.5-3.4,7.5-7.5S415.1,336,410.9,336z"
			/>
		<path class="st0" d="M418.4,389.5c0-4.1-3.4-7.5-7.5-7.5H270.2c-4.1,0-7.5,3.4-7.5,7.5s3.4,7.5,7.5,7.5h140.7
			C415.1,397,418.4,393.6,418.4,389.5z"/>
		<path class="st0" d="M270.2,429.2c-4.1,0-7.5,3.4-7.5,7.5s3.4,7.5,7.5,7.5h70.4c4.1,0,7.5-3.4,7.5-7.5s-3.4-7.5-7.5-7.5H270.2z"/>
		<path class="st0" d="M410.9,197.9H270.2c-4.1,0-7.5,3.4-7.5,7.5s3.4,7.5,7.5,7.5h140.7c4.1,0,7.5-3.4,7.5-7.5
			S415.1,197.9,410.9,197.9z"/>
		<path class="st0" d="M450.9,105.3c4.1,0,7.5-3.4,7.5-7.5V28.7c0-15.8-12.9-28.7-28.7-28.7H82.3C66.5,0,53.6,12.9,53.6,28.7v454.6
			c0,15.8,12.9,28.7,28.7,28.7h347.4c15.8,0,28.7-12.9,28.7-28.7V132.8c0-4.1-3.4-7.5-7.5-7.5s-7.5,3.4-7.5,7.5v350.4
			c0,7.6-6.1,13.7-13.7,13.7H238.5V15h191.2c7.6,0,13.7,6.1,13.7,13.7v69.1C443.4,101.9,446.8,105.3,450.9,105.3z M223.5,497H82.3
			c-7.6,0-13.7-6.1-13.7-13.7V28.7c0-7.6,6.1-13.7,13.7-13.7h141.2V497z"/>
		<path class="st0" d="M146.1,175.6c32.7,0,59.5-26.6,59.5-59.5c0-32.8-26.7-59.5-59.5-59.5s-59.5,26.7-59.5,59.5
			C86.6,148.9,113.4,175.6,146.1,175.6z M146.1,160.6c-9.7,0-18.7-3.1-26-8.5c3.1-6.3,8.5-11.4,15.1-14.1c3.3,1.6,7.1,2.5,11,2.5
			s7.6-0.9,11-2.5c6.5,2.7,11.9,7.8,15.1,14.1C164.8,157.4,155.9,160.6,146.1,160.6z M135.2,114.6c0-6,4.9-10.9,10.9-10.9
			c6,0,10.9,4.9,10.9,10.9c0,6-4.9,10.9-10.9,10.9S135.2,120.6,135.2,114.6z M146.1,71.6c24.5,0,44.5,20,44.5,44.5
			c0,9.2-2.8,17.7-7.6,24.8c-3.6-5.6-8.5-10.3-14.3-13.8c2.1-3.7,3.2-8,3.2-12.5c0-14.3-11.6-25.9-25.9-25.9s-25.9,11.6-25.9,25.9
			c0,4.5,1.2,8.8,3.2,12.5c-5.8,3.4-10.6,8.2-14.3,13.8c-4.8-7.1-7.6-15.6-7.6-24.8C101.7,91.6,121.6,71.6,146.1,71.6z"/>
		<path class="st0" d="M102.7,285.2h86.9c8.9,0,16.2-7.3,16.2-16.2v-21.4c0-8.9-7.3-16.2-16.2-16.2h-86.9c-8.9,0-16.2,7.3-16.2,16.2
			V269C86.5,278,93.7,285.2,102.7,285.2z M101.5,247.6c0-0.7,0.5-1.2,1.2-1.2h86.9c0.7,0,1.2,0.5,1.2,1.2V269c0,0.7-0.5,1.2-1.2,1.2
			h-86.9c-0.7,0-1.2-0.5-1.2-1.2L101.5,247.6z"/>
		<path class="st0" d="M102.7,364.7h7.6c4.1,0,7.5-3.4,7.5-7.5s-3.4-7.5-7.5-7.5h-7.6c-0.7,0-1.2-0.5-1.2-1.2v-21.4
			c0-0.7,0.5-1.2,1.2-1.2h86.9c0.7,0,1.2,0.5,1.2,1.2v21.4c0,0.7-0.5,1.2-1.2,1.2h-44.3c-4.1,0-7.5,3.4-7.5,7.5s3.4,7.5,7.5,7.5
			h44.3c8.9,0,16.2-7.3,16.2-16.2v-21.4c0-8.9-7.3-16.2-16.2-16.2h-86.9c-8.9,0-16.2,7.3-16.2,16.2v21.4
			C86.5,357.5,93.7,364.7,102.7,364.7z"/>
		<path class="st0" d="M102.7,444.2h86.9c8.9,0,16.2-7.3,16.2-16.2v-21.4c0-8.9-7.3-16.2-16.2-16.2h-86.9c-8.9,0-16.2,7.3-16.2,16.2
			V428C86.5,437,93.7,444.2,102.7,444.2z M101.5,406.6c0-0.7,0.5-1.2,1.2-1.2h86.9c0.7,0,1.2,0.5,1.2,1.2V428c0,0.7-0.5,1.2-1.2,1.2
			h-86.9c-0.7,0-1.2-0.5-1.2-1.2L101.5,406.6z"/>
	</g>
</g>
</svg>
