<?xml version="1.0" encoding="utf-8"?>
<!-- Generator: Adobe Illustrator 25.0.0, SVG Export Plug-In . SVG Version: 6.00 Build 0)  -->
<svg version="1.1" id="Calque_1" xmlns="http://www.w3.org/2000/svg" xmlns:xlink="http://www.w3.org/1999/xlink" x="0px" y="0px"
	 viewBox="0 0 41 37" style="enable-background:new 0 0 41 37;" xml:space="preserve">
<style type="text/css">
	.st0{filter:url(#Adobe_OpacityMaskFilter);}
	.st1{fill-rule:evenodd;clip-rule:evenodd;fill:#FFFFFF;}
	.st2{mask:url(#mask-3_1_);fill-rule:evenodd;clip-rule:evenodd;fill:#04809F;}
</style>
<defs>
	<filter id="Adobe_OpacityMaskFilter" filterUnits="userSpaceOnUse" x="0" y="0" width="40.3" height="37">
		<feColorMatrix  type="matrix" values="1 0 0 0 0  0 1 0 0 0  0 0 1 0 0  0 0 0 1 0"/>
	</filter>
</defs>
<mask maskUnits="userSpaceOnUse" x="0" y="0" width="40.3" height="37" id="mask-3_1_">
	<g class="st0">
		<polygon id="path-2_1_" class="st1" points="0,0 40.3,0 40.3,37 0,37 		"/>
	</g>
</mask>
<path id="Fill-1" class="st2" d="M35.6,33.3v-0.7c0-0.8,1.2-0.8,1.2,0v0.7H35.6z M30.9,33.3v-0.7c0-0.8,1.2-0.8,1.2,0v0.7H30.9z
	 M8.3,33.3v-0.7c0-0.8,1.2-0.8,1.2,0v0.7H8.3z M3.5,33.3v-0.7c0-0.8,1.2-0.8,1.2,0v0.7H3.5z M5.9,22.2c0-0.5,0.6-0.8,1-0.4
	c0.1,0.1,0.2,0.3,0.2,0.4v11.1H5.9V22.2z M3.5,18.1v-7.5h1.2c0.3,2.1,3.2,2.1,3.5,0h1.2v7.5H3.5z M1.8,22c-0.3,0-0.6-0.3-0.6-0.6
	v-9.5c0-0.7,0.5-1.2,1.2-1.3v10.8C2.4,21.8,2.1,22,1.8,22L1.8,22z M6.5,9.4c0.2,0,0.4,0,0.6-0.1v1.1c0,0.8-1.2,0.8-1.2,0V9.3
	C6.1,9.4,6.3,9.4,6.5,9.4L6.5,9.4z M2.4,2.9c0-1,0.8-1.8,1.8-1.8h4.7c2.3,0.1,2.3,3.4,0,3.5H4.1C3.2,4.7,2.4,3.9,2.4,2.9L2.4,2.9z
	 M7.4,8C7.4,8,7.4,8,7.4,8C6.9,8.3,6.1,8.3,5.6,8c0,0,0,0,0,0C5.1,7.7,4.7,7.1,4.7,6.4V5.9h3.5v0.5C8.3,7.1,7.9,7.7,7.4,8L7.4,8z
	 M11.8,11.9v9.5c0,0.8-1.2,0.8-1.2,0V10.6C11.3,10.7,11.8,11.3,11.8,11.9L11.8,11.9z M19.6,33.3h1.2v-8.1h-1.2V33.3z M15.4,21.8
	c-0.3,0-0.6-0.3-0.6-0.6v-6.1H16v6.1C16,21.5,15.8,21.8,15.4,21.8L15.4,21.8z M16,10.4v3.5h-1.2v-2.2C14.8,11,15.4,10.4,16,10.4
	L16,10.4z M19.9,2.3h0.5c1.2,0,2.3,0.9,2.5,2.1h-5.4C17.6,3.2,18.7,2.3,19.9,2.3L19.9,2.3z M25.5,11.7v2.2h-1.2v-3.5
	C24.9,10.4,25.5,11,25.5,11.7L25.5,11.7z M24.9,21.8c-0.3,0-0.6-0.3-0.6-0.6v-6.1h1.2v6.1C25.5,21.5,25.2,21.8,24.9,21.8L24.9,21.8z
	 M22.5,30.5c-0.2,0-0.4,0-0.6,0.1v-5.4h1.2v5.4C22.9,30.5,22.7,30.5,22.5,30.5L22.5,30.5z M21.9,32.3c0-0.8,1.2-0.8,1.2,0V33h-1.2
	V32.3z M17.4,7.4c0.2,0.5,0.5,0.9,0.9,1.2v0.6h-0.9V7.4z M21.9,9.2V8.6c0.4-0.3,0.7-0.7,0.9-1.2v1.8L21.9,9.2L21.9,9.2z M20.7,10.2
	c0,0.8-1.2,0.8-1.2,0v-1c0.4,0.1,0.8,0.1,1.2,0V10.2z M17.2,10.4h1.2c0.3,2.1,3.2,2.1,3.5,0h1.2v7.5h-5.9L17.2,10.4L17.2,10.4z
	 M21.9,5.6v0.7c0,0.6-0.3,1.2-0.9,1.5c-0.5,0.3-1.2,0.3-1.8,0c-0.5-0.3-0.9-0.9-0.9-1.5V5.6L21.9,5.6L21.9,5.6z M17.2,24h5.9v-5
	h-5.9V24z M17.2,32.3c0-0.8,1.2-0.8,1.2,0V33h-1.2V32.3z M18.4,30.6c-0.4-0.1-0.8-0.1-1.2,0v-5.4h1.2V30.6z M29.1,22
	c-0.3,0-0.6-0.3-0.6-0.6v-9.5c0-0.7,0.5-1.2,1.2-1.3v10.8C29.7,21.8,29.4,22,29.1,22L29.1,22z M33.8,9.4c0.2,0,0.4,0,0.6-0.1v1.1
	c0,0.8-1.2,0.8-1.2,0V9.3C33.4,9.4,33.6,9.4,33.8,9.4L33.8,9.4z M31.1,3.9c0-0.9,0.7-1.6,1.6-1.6h2.2c0.9,0,1.6,0.7,1.6,1.6v0.4
	c0,0.1-0.1,0.1-0.1,0.1h-0.2c0,0,0,0,0,0h-4.7c0,0,0,0,0,0h-0.2c-0.1,0-0.1-0.1-0.1-0.1L31.1,3.9L31.1,3.9z M34.7,8
	C34.7,8,34.7,8,34.7,8c-0.5,0.3-1.3,0.3-1.8,0c0,0,0,0,0,0C32.4,7.7,32,7.1,32,6.4V5.6h3.5v0.8C35.6,7.1,35.2,7.7,34.7,8L34.7,8z
	 M36.8,18.1h-5.9v-7.5h1.2c0.3,2.1,3.2,2.1,3.5,0h1.2L36.8,18.1L36.8,18.1z M33.2,22.2c0-0.5,0.6-0.8,1-0.4c0.1,0.1,0.2,0.3,0.2,0.4
	v11.1h-1.2V22.2z M36.8,30.9c-0.4-0.1-0.8-0.1-1.2,0v-8.6c0-0.5-0.2-0.9-0.5-1.3c-1.1-1.1-3-0.3-3,1.3v8.6c-0.4-0.1-0.8-0.1-1.2,0
	V19.3h5.9V30.9z M39.7,15c0.3,0,0.6-0.3,0.6-0.6v-2.5c0-1.4-1.1-2.5-2.5-2.5h-2.2V8.8c0.7-0.5,1.2-1.4,1.2-2.4V5.6
	c0.5-0.2,0.9-0.7,0.9-1.3V3.9c0-1.5-1.3-2.8-2.8-2.8h-2.2c-1.5,0-2.8,1.3-2.8,2.8v0.4c0,0.6,0.4,1.1,0.9,1.3v0.9
	c0,1,0.5,1.8,1.2,2.4v0.6h-2.2c-1.4,0-2.5,1.1-2.5,2.5v9.5c0,1.2,1.2,2.1,2.4,1.7v10.2h-5.4V22.9c1.1,0.4,2.4-0.5,2.4-1.7v-9.5
	c0-1.4-1.1-2.5-2.5-2.5H24V4.7c0-2-1.6-3.7-3.7-3.7h-0.5c-2,0-3.7,1.6-3.7,3.7v4.4h-0.1c-1.4,0-2.5,1.1-2.5,2.5v9.5
	c0,1.2,1.2,2.1,2.4,1.7v10.4h-5.4V23.1c1.1,0.4,2.4-0.5,2.4-1.7v-9.5c0-1.4-1.1-2.5-2.5-2.5H8.3V8.8C9,8.3,9.4,7.4,9.4,6.4V5.8
	c3.4-0.8,3-5.7-0.6-5.8H4.1c-3.6,0.1-4,5.1-0.6,5.8v0.6c0,1,0.5,1.8,1.2,2.4v0.6H2.5C1.1,9.4,0,10.6,0,11.9v9.5
	c0,1.2,1.2,2.1,2.4,1.7v2.8c0,0.8,1.2,0.8,1.2,0v-6.6h5.9v11.6c-0.4-0.1-0.8-0.1-1.2,0v-8.6c0-0.5-0.2-0.9-0.5-1.3
	c-1.1-1.1-3-0.3-3,1.3v8.6c-0.4-0.1-0.8-0.1-1.2,0v-2.2c0-0.8-1.2-0.8-1.2,0v4.6H1.9c-2.5,0.1-2.5,3.6,0,3.7h24c0.8,0,0.8-1.2,0-1.2
	h-24c-0.9,0-0.9-1.3,0-1.3h36.6c0.9,0,0.9,1.3,0,1.3h-9.8c-0.8,0-0.8,1.2,0,1.2h9.8c2.5-0.1,2.5-3.6,0-3.7h-0.5V23.1
	c1.1,0.4,2.4-0.5,2.4-1.7v-4.2c0-0.8-1.2-0.8-1.2,0v4.2c0,0.8-1.2,0.8-1.2,0V10.6c0.7,0.1,1.2,0.6,1.2,1.3v2.5
	C39.1,14.8,39.4,15,39.7,15L39.7,15z"/>
</svg>
