<?xml version="1.0" encoding="utf-8"?>
<!-- Generator: Adobe Illustrator 25.0.0, SVG Export Plug-In . SVG Version: 6.00 Build 0)  -->
<svg version="1.1" id="Calque_1" xmlns="http://www.w3.org/2000/svg" xmlns:xlink="http://www.w3.org/1999/xlink" x="0px" y="0px"
	 viewBox="0 0 62 61" style="enable-background:new 0 0 62 61;" xml:space="preserve">
<style type="text/css">
	.st0{fill-rule:evenodd;clip-rule:evenodd;fill:#04809F;}
	.st1{filter:url(#Adobe_OpacityMaskFilter);}
	.st2{fill-rule:evenodd;clip-rule:evenodd;fill:#FFFFFF;}
	.st3{mask:url(#mask-3_1_);fill-rule:evenodd;clip-rule:evenodd;fill:#04809F;}
	.st4{filter:url(#Adobe_OpacityMaskFilter_1_);}
	.st5{mask:url(#mask-5_1_);fill-rule:evenodd;clip-rule:evenodd;fill:#04809F;}
	.st6{filter:url(#Adobe_OpacityMaskFilter_2_);}
	.st7{mask:url(#mask-5_2_);fill-rule:evenodd;clip-rule:evenodd;fill:#04809F;}
	.st8{filter:url(#Adobe_OpacityMaskFilter_3_);}
	.st9{mask:url(#mask-5_3_);fill-rule:evenodd;clip-rule:evenodd;fill:#04809F;}
	.st10{filter:url(#Adobe_OpacityMaskFilter_4_);}
	.st11{mask:url(#mask-5_4_);fill-rule:evenodd;clip-rule:evenodd;fill:#04809F;}
	.st12{filter:url(#Adobe_OpacityMaskFilter_5_);}
	.st13{mask:url(#mask-5_5_);fill-rule:evenodd;clip-rule:evenodd;fill:#04809F;}
	.st14{filter:url(#Adobe_OpacityMaskFilter_6_);}
	.st15{mask:url(#mask-5_6_);fill-rule:evenodd;clip-rule:evenodd;fill:#04809F;}
	.st16{filter:url(#Adobe_OpacityMaskFilter_7_);}
	.st17{mask:url(#mask-5_7_);fill-rule:evenodd;clip-rule:evenodd;fill:#04809F;}
	.st18{filter:url(#Adobe_OpacityMaskFilter_8_);}
	.st19{mask:url(#mask-5_8_);fill-rule:evenodd;clip-rule:evenodd;fill:#04809F;}
	.st20{filter:url(#Adobe_OpacityMaskFilter_9_);}
	.st21{mask:url(#mask-5_9_);fill-rule:evenodd;clip-rule:evenodd;fill:#04809F;}
	.st22{filter:url(#Adobe_OpacityMaskFilter_10_);}
	.st23{mask:url(#mask-5_10_);fill-rule:evenodd;clip-rule:evenodd;fill:#04809F;}
	.st24{filter:url(#Adobe_OpacityMaskFilter_11_);}
	.st25{mask:url(#mask-5_11_);fill-rule:evenodd;clip-rule:evenodd;fill:#04809F;}
	.st26{filter:url(#Adobe_OpacityMaskFilter_12_);}
	.st27{mask:url(#mask-5_12_);fill-rule:evenodd;clip-rule:evenodd;fill:#04809F;}
</style>
<path id="Fill-1" class="st0" d="M29.3,15.2c0.4,0,0.8-0.4,0.8-0.8c0-0.4-0.4-0.8-0.8-0.8c-0.4,0-0.8,0.4-0.8,0.8
	C28.5,14.9,28.9,15.2,29.3,15.2"/>
<path id="Fill-3" class="st0" d="M33.3,15.2c0.4,0,0.8-0.4,0.8-0.8c0-0.4-0.4-0.8-0.8-0.8c-0.4,0-0.8,0.4-0.8,0.8
	C32.5,14.9,32.9,15.2,33.3,15.2"/>
<defs>
	<filter id="Adobe_OpacityMaskFilter" filterUnits="userSpaceOnUse" x="0.4" y="0.1" width="60.6" height="60.9">
		<feColorMatrix  type="matrix" values="1 0 0 0 0  0 1 0 0 0  0 0 1 0 0  0 0 0 1 0"/>
	</filter>
</defs>
<mask maskUnits="userSpaceOnUse" x="0.4" y="0.1" width="60.6" height="60.9" id="mask-3_1_">
	<g class="st1">
		<polygon id="path-2_1_" class="st2" points="0.4,0.1 61,0.1 61,61 0.4,61 		"/>
	</g>
</mask>
<path id="Fill-5" class="st3" d="M59.1,44.5c0,1.6-1.3,2.9-2.9,2.9H5.3c-1.6,0-2.9-1.3-2.9-2.9V15.5c0-1.6,1.3-2.9,2.9-2.9h2.1v1.9
	H6.3c-1.1,0-2,0.9-2,1.9v23.3c0,1.1,0.9,1.9,2,1.9h48.9c1.1,0,2-0.9,2-1.9V16.4c0-1.1-0.9-1.9-2-1.9h-1.1v-1.9h2.1
	c1.6,0,2.9,1.3,2.9,2.9V44.5z M21.4,53.2c0.8-1.1,1.3-2.5,1.5-3.9h15.7c0.1,1.4,0.6,2.8,1.5,3.9H21.4z M45.4,55.2c0.5,0,1,0.4,1,1
	v1.9c0,0.5-0.4,1-1,1H16c-0.5,0-1-0.4-1-1v-1.9c0-0.5,0.4-1,1-1H45.4z M13.1,32.8h13.3l1.2,3.6c0.4,1.3,1.7,2.2,3,2.2s2.6-0.9,3-2.2
	l1.2-3.6h13.3c3.2,0,5.8-2.6,5.8-5.7V16.4h1.1v23.3H6.3V16.4h1.1v10.7C7.4,30.2,9.9,32.8,13.1,32.8L13.1,32.8z M9.1,5.8
	c0-2.2,1.8-4,4-4h35.2c2.2,0,4,1.8,4,4v21.3c0,2.2-1.8,4-4,4H33.7l-1.6,4.8c-0.2,0.6-0.8,1-1.4,1s-1.2-0.4-1.4-1l-1.6-4.8H13.1
	c-2.2,0-4-1.8-4-4V5.8z M56.1,10.6h-2.1V5.8c0-3.1-2.6-5.7-5.8-5.7H13.1c-3.2,0-5.8,2.6-5.8,5.7v4.8H5.3c-2.7,0-4.9,2.2-4.9,4.8
	v29.1c0,2.7,2.2,4.8,4.9,4.8h15.6c-0.2,1.5-1,2.9-2.2,3.9H16c-1.6,0-2.9,1.3-2.9,2.9v1.9c0,1.6,1.3,2.9,2.9,2.9h29.3
	c1.6,0,2.9-1.3,2.9-2.9v-1.9c0-1.6-1.3-2.9-2.9-2.9h-2.6c-1.3-0.9-2.1-2.3-2.2-3.9h15.6c2.7,0,4.9-2.2,4.9-4.8V15.5
	C61,12.8,58.8,10.6,56.1,10.6L56.1,10.6z"/>
<defs>
	<filter id="Adobe_OpacityMaskFilter_1_" filterUnits="userSpaceOnUse" x="54.2" y="43.3" width="1.6" height="1.6">
		<feColorMatrix  type="matrix" values="1 0 0 0 0  0 1 0 0 0  0 0 1 0 0  0 0 0 1 0"/>
	</filter>
</defs>
<mask maskUnits="userSpaceOnUse" x="54.2" y="43.3" width="1.6" height="1.6" id="mask-5_1_">
	<g class="st4">
		<polygon id="path-4_1_" class="st2" points="0.4,61 61.4,61 61.4,0 0.4,0 		"/>
	</g>
</mask>
<polygon id="Fill-8" class="st5" points="54.2,44.9 55.8,44.9 55.8,43.3 54.2,43.3 "/>
<defs>
	<filter id="Adobe_OpacityMaskFilter_2_" filterUnits="userSpaceOnUse" x="50.2" y="43.3" width="1.6" height="1.6">
		<feColorMatrix  type="matrix" values="1 0 0 0 0  0 1 0 0 0  0 0 1 0 0  0 0 0 1 0"/>
	</filter>
</defs>
<mask maskUnits="userSpaceOnUse" x="50.2" y="43.3" width="1.6" height="1.6" id="mask-5_2_">
	<g class="st6">
		<polygon id="path-4_2_" class="st2" points="0.4,61 61.4,61 61.4,0 0.4,0 		"/>
	</g>
</mask>
<polygon id="Fill-10" class="st7" points="50.2,44.9 51.8,44.9 51.8,43.3 50.2,43.3 "/>
<defs>
	<filter id="Adobe_OpacityMaskFilter_3_" filterUnits="userSpaceOnUse" x="46.2" y="43.3" width="1.6" height="1.6">
		<feColorMatrix  type="matrix" values="1 0 0 0 0  0 1 0 0 0  0 0 1 0 0  0 0 0 1 0"/>
	</filter>
</defs>
<mask maskUnits="userSpaceOnUse" x="46.2" y="43.3" width="1.6" height="1.6" id="mask-5_3_">
	<g class="st8">
		<polygon id="path-4_3_" class="st2" points="0.4,61 61.4,61 61.4,0 0.4,0 		"/>
	</g>
</mask>
<polygon id="Fill-11" class="st9" points="46.2,44.9 47.8,44.9 47.8,43.3 46.2,43.3 "/>
<defs>
	<filter id="Adobe_OpacityMaskFilter_4_" filterUnits="userSpaceOnUse" x="12.4" y="4.8" width="1.6" height="1.6">
		<feColorMatrix  type="matrix" values="1 0 0 0 0  0 1 0 0 0  0 0 1 0 0  0 0 0 1 0"/>
	</filter>
</defs>
<mask maskUnits="userSpaceOnUse" x="12.4" y="4.8" width="1.6" height="1.6" id="mask-5_4_">
	<g class="st10">
		<polygon id="path-4_4_" class="st2" points="0.4,61 61.4,61 61.4,0 0.4,0 		"/>
	</g>
</mask>
<polygon id="Fill-12" class="st11" points="12.4,6.4 14,6.4 14,4.8 12.4,4.8 "/>
<defs>
	<filter id="Adobe_OpacityMaskFilter_5_" filterUnits="userSpaceOnUse" x="16.5" y="4.8" width="1.6" height="1.6">
		<feColorMatrix  type="matrix" values="1 0 0 0 0  0 1 0 0 0  0 0 1 0 0  0 0 0 1 0"/>
	</filter>
</defs>
<mask maskUnits="userSpaceOnUse" x="16.5" y="4.8" width="1.6" height="1.6" id="mask-5_5_">
	<g class="st12">
		<polygon id="path-4_5_" class="st2" points="0.4,61 61.4,61 61.4,0 0.4,0 		"/>
	</g>
</mask>
<polygon id="Fill-13" class="st13" points="16.5,6.4 18.1,6.4 18.1,4.8 16.5,4.8 "/>
<defs>
	<filter id="Adobe_OpacityMaskFilter_6_" filterUnits="userSpaceOnUse" x="39.7" y="26.5" width="1.6" height="1.6">
		<feColorMatrix  type="matrix" values="1 0 0 0 0  0 1 0 0 0  0 0 1 0 0  0 0 0 1 0"/>
	</filter>
</defs>
<mask maskUnits="userSpaceOnUse" x="39.7" y="26.5" width="1.6" height="1.6" id="mask-5_6_">
	<g class="st14">
		<polygon id="path-4_6_" class="st2" points="0.4,61 61.4,61 61.4,0 0.4,0 		"/>
	</g>
</mask>
<polygon id="Fill-14" class="st15" points="39.7,28.1 41.3,28.1 41.3,26.5 39.7,26.5 "/>
<defs>
	<filter id="Adobe_OpacityMaskFilter_7_" filterUnits="userSpaceOnUse" x="12.4" y="8.8" width="10.4" height="15.2">
		<feColorMatrix  type="matrix" values="1 0 0 0 0  0 1 0 0 0  0 0 1 0 0  0 0 0 1 0"/>
	</filter>
</defs>
<mask maskUnits="userSpaceOnUse" x="12.4" y="8.8" width="10.4" height="15.2" id="mask-5_7_">
	<g class="st16">
		<polygon id="path-4_7_" class="st2" points="0.4,61 61.4,61 61.4,0 0.4,0 		"/>
	</g>
</mask>
<path id="Fill-15" class="st17" d="M19.1,11.8v8.5h-4.6L19.1,11.8z M12.4,22.2h6.6v1.9H21v-1.9h1.9v-1.9H21V8.8h-2.5L12.4,20V22.2z"
	/>
<defs>
	<filter id="Adobe_OpacityMaskFilter_8_" filterUnits="userSpaceOnUse" x="38.9" y="8.8" width="10.4" height="15.2">
		<feColorMatrix  type="matrix" values="1 0 0 0 0  0 1 0 0 0  0 0 1 0 0  0 0 0 1 0"/>
	</filter>
</defs>
<mask maskUnits="userSpaceOnUse" x="38.9" y="8.8" width="10.4" height="15.2" id="mask-5_8_">
	<g class="st18">
		<polygon id="path-4_8_" class="st2" points="0.4,61 61.4,61 61.4,0 0.4,0 		"/>
	</g>
</mask>
<path id="Fill-16" class="st19" d="M41,20.3l4.6-8.5v8.5H41z M45.6,24.1h1.9v-1.9h1.9v-1.9h-1.9V8.8H45L38.9,20v2.1h6.6V24.1z"/>
<defs>
	<filter id="Adobe_OpacityMaskFilter_9_" filterUnits="userSpaceOnUse" x="24.5" y="8.8" width="13.6" height="15.2">
		<feColorMatrix  type="matrix" values="1 0 0 0 0  0 1 0 0 0  0 0 1 0 0  0 0 0 1 0"/>
	</filter>
</defs>
<mask maskUnits="userSpaceOnUse" x="24.5" y="8.8" width="13.6" height="15.2" id="mask-5_9_">
	<g class="st20">
		<polygon id="path-4_9_" class="st2" points="0.4,61 61.4,61 61.4,0 0.4,0 		"/>
	</g>
</mask>
<path id="Fill-17" class="st21" d="M26.4,15.5c0-2.6,2.2-4.8,4.9-4.8s4.9,2.1,4.9,4.8V16c0,1.3-0.5,2.5-1.4,3.4l-0.5,0.5v1.3
	c0,0.5-0.4,1-1,1h-1v-1.9h-2v1.9h-1c-0.5,0-1-0.4-1-1v-1.3l-0.5-0.5c-0.9-0.9-1.4-2.1-1.4-3.4V15.5z M26.4,21.2
	c0,1.6,1.3,2.9,2.9,2.9h3.9c1.6,0,2.9-1.3,2.9-2.9v-0.6c1.3-1.3,2-2.9,2-4.7v-0.5c0-3.7-3.1-6.7-6.8-6.7c-3.8,0-6.8,3-6.8,6.7V16
	c0,1.8,0.7,3.4,2,4.7V21.2z"/>
<defs>
	<filter id="Adobe_OpacityMaskFilter_10_" filterUnits="userSpaceOnUse" x="20.5" y="4.8" width="1.6" height="1.6">
		<feColorMatrix  type="matrix" values="1 0 0 0 0  0 1 0 0 0  0 0 1 0 0  0 0 0 1 0"/>
	</filter>
</defs>
<mask maskUnits="userSpaceOnUse" x="20.5" y="4.8" width="1.6" height="1.6" id="mask-5_10_">
	<g class="st22">
		<polygon id="path-4_10_" class="st2" points="0.4,61 61.4,61 61.4,0 0.4,0 		"/>
	</g>
</mask>
<polygon id="Fill-18" class="st23" points="20.5,6.4 22.1,6.4 22.1,4.8 20.5,4.8 "/>
<defs>
	<filter id="Adobe_OpacityMaskFilter_11_" filterUnits="userSpaceOnUse" x="47.8" y="26.5" width="1.6" height="1.6">
		<feColorMatrix  type="matrix" values="1 0 0 0 0  0 1 0 0 0  0 0 1 0 0  0 0 0 1 0"/>
	</filter>
</defs>
<mask maskUnits="userSpaceOnUse" x="47.8" y="26.5" width="1.6" height="1.6" id="mask-5_11_">
	<g class="st24">
		<polygon id="path-4_11_" class="st2" points="0.4,61 61.4,61 61.4,0 0.4,0 		"/>
	</g>
</mask>
<polygon id="Fill-19" class="st25" points="47.8,28.1 49.4,28.1 49.4,26.5 47.8,26.5 "/>
<defs>
	<filter id="Adobe_OpacityMaskFilter_12_" filterUnits="userSpaceOnUse" x="43.7" y="26.5" width="1.6" height="1.6">
		<feColorMatrix  type="matrix" values="1 0 0 0 0  0 1 0 0 0  0 0 1 0 0  0 0 0 1 0"/>
	</filter>
</defs>
<mask maskUnits="userSpaceOnUse" x="43.7" y="26.5" width="1.6" height="1.6" id="mask-5_12_">
	<g class="st26">
		<polygon id="path-4_12_" class="st2" points="0.4,61 61.4,61 61.4,0 0.4,0 		"/>
	</g>
</mask>
<polygon id="Fill-20" class="st27" points="43.7,28.1 45.3,28.1 45.3,26.5 43.7,26.5 "/>
</svg>
