<?xml version="1.0" encoding="utf-8"?>
<!-- Generator: Adobe Illustrator 25.0.0, SVG Export Plug-In . SVG Version: 6.00 Build 0)  -->
<svg version="1.1" id="Calque_1" xmlns="http://www.w3.org/2000/svg" xmlns:xlink="http://www.w3.org/1999/xlink" x="0px" y="0px"
	 viewBox="0 0 61 61" style="enable-background:new 0 0 61 61;" xml:space="preserve">
<style type="text/css">
	.st0{fill-rule:evenodd;clip-rule:evenodd;fill:#04809F;}
	.st1{filter:url(#Adobe_OpacityMaskFilter);}
	.st2{fill-rule:evenodd;clip-rule:evenodd;fill:#FFFFFF;}
	.st3{mask:url(#mask-3_1_);fill-rule:evenodd;clip-rule:evenodd;fill:#04809F;}
</style>
<g id="Page-1">
	<g id="_x31_---PROGRAMME---Le-code-source" transform="translate(-690.000000, -1074.000000)">
		<g id="Nos-Piliers-section" transform="translate(0.000000, 784.000000)">
			<g id="Pédagogie-par-projets---bloc" transform="translate(545.000000, 251.000000)">
				<g id="Holygraph-icon">
					<g transform="translate(145.000000, 39.000000)">
						<path id="Fill-1" class="st0" d="M30,37.4c-4.1,0-7.4-3.3-7.4-7.4s3.3-7.4,7.4-7.4s7.4,3.3,7.4,7.4S34.1,37.4,30,37.4 M30,21
							C25,21,21,25,21,30s4.1,9.1,9.1,9.1s9.1-4.1,9.1-9.1S35,21,30,21"/>
						<g id="Group-5">
							<g id="Clip-4">
							</g>
							<defs>
								<filter id="Adobe_OpacityMaskFilter" filterUnits="userSpaceOnUse" x="0" y="0.1" width="60.9" height="60.9">
									<feColorMatrix  type="matrix" values="1 0 0 0 0  0 1 0 0 0  0 0 1 0 0  0 0 0 1 0"/>
								</filter>
							</defs>
							<mask maskUnits="userSpaceOnUse" x="0" y="0.1" width="60.9" height="60.9" id="mask-3_1_">
								<g class="st1">
									<polygon id="path-2_1_" class="st2" points="0,0.1 60.9,0.1 60.9,61 0,61 									"/>
								</g>
							</mask>
							<path id="Fill-3" class="st3" d="M54.6,35.2c-0.1,0-0.3,0-0.4,0l0,0c-1.8-0.2-3.2-1.3-3.9-2.9c-0.2-0.5-0.3-1.1-0.3-1.7
								c0-1.2,0.4-2.3,1.2-3.1c0.7-0.8,1.8-1.4,3-1.5l0,0c0.1,0,0.3,0,0.4,0c2.5,0,4.6,2.1,4.6,4.6C59.2,33.1,57.1,35.2,54.6,35.2
								 M36.5,53.2c0,0,0-0.1,0-0.1c0-0.1,0-0.2-0.1-0.3c0-0.1-0.1-0.2-0.1-0.3c0-0.1-0.1-0.2-0.1-0.3c0-0.1-0.1-0.2-0.1-0.3
								c0-0.1-0.1-0.2-0.1-0.2c0-0.1-0.1-0.2-0.1-0.3c0-0.1-0.1-0.1-0.1-0.2c-0.1-0.1-0.1-0.2-0.2-0.3c0-0.1-0.1-0.1-0.1-0.2
								c-0.1-0.1-0.2-0.2-0.3-0.3c0,0-0.1-0.1-0.1-0.1c-0.1-0.1-0.2-0.3-0.4-0.4c0,0-0.1-0.1-0.1-0.1c-0.1-0.1-0.2-0.2-0.3-0.2
								c0,0-0.1-0.1-0.2-0.1c-0.1-0.1-0.2-0.1-0.3-0.2c-0.1,0-0.1-0.1-0.2-0.1c-0.1-0.1-0.2-0.1-0.3-0.2c-0.1,0-0.1-0.1-0.2-0.1
								c-0.1-0.1-0.2-0.1-0.3-0.1c-0.1,0-0.1,0-0.2-0.1c-0.1,0-0.2-0.1-0.4-0.1c-0.1,0-0.1,0-0.2-0.1c-0.1,0-0.3-0.1-0.4-0.1
								c0,0-0.1,0-0.1,0c-0.2,0-0.3-0.1-0.5-0.1c0,0-0.1,0-0.1,0c-0.2,0-0.4,0-0.6,0c-0.2,0-0.4,0-0.6,0c0,0-0.1,0-0.1,0
								c-0.1,0-0.3,0-0.4,0.1c-0.1,0-0.1,0-0.2,0c-0.1,0-0.2,0.1-0.4,0.1c-0.1,0-0.1,0-0.2,0.1c-0.1,0-0.2,0.1-0.3,0.1
								c-0.1,0-0.1,0.1-0.2,0.1c-0.1,0-0.2,0.1-0.3,0.1c-0.1,0-0.1,0.1-0.2,0.1c-0.1,0-0.2,0.1-0.3,0.1c-0.1,0-0.1,0.1-0.2,0.1
								c-0.1,0.1-0.2,0.1-0.2,0.2c-0.1,0-0.1,0.1-0.2,0.2c-0.1,0.1-0.1,0.1-0.2,0.2c-0.1,0.1-0.1,0.1-0.2,0.2
								c-0.1,0.1-0.1,0.1-0.2,0.2c-0.1,0.1-0.2,0.2-0.3,0.4c-0.1,0.1-0.1,0.1-0.2,0.2c-0.1,0.1-0.1,0.2-0.2,0.2
								c0,0.1-0.1,0.1-0.1,0.2c-0.1,0.1-0.1,0.2-0.1,0.2c0,0.1-0.1,0.2-0.1,0.2c0,0.1-0.1,0.2-0.1,0.3c0,0.1-0.1,0.2-0.1,0.2
								c0,0.1-0.1,0.2-0.1,0.3c0,0.1-0.1,0.2-0.1,0.3c0,0.1-0.1,0.2-0.1,0.3c0,0,0,0.1,0,0.1C16.3,51,10,44.7,7.8,36.7
								c0,0,0.1,0,0.1,0c0.1,0,0.2-0.1,0.3-0.1c0.1,0,0.2-0.1,0.3-0.1c0.1,0,0.2-0.1,0.3-0.1c0.1,0,0.2-0.1,0.2-0.1
								c0.1,0,0.2-0.1,0.3-0.1c0.1,0,0.2-0.1,0.2-0.1c0.1,0,0.2-0.1,0.2-0.1c0.1,0,0.1-0.1,0.2-0.1c0.1-0.1,0.2-0.1,0.2-0.2
								c0.1-0.1,0.1-0.1,0.2-0.2c0.1-0.1,0.2-0.2,0.4-0.3c0.1-0.1,0.1-0.1,0.2-0.2c0.1-0.1,0.1-0.1,0.2-0.2c0.1-0.1,0.1-0.1,0.2-0.2
								c0.1-0.1,0.1-0.1,0.2-0.2c0.1-0.1,0.1-0.2,0.2-0.2c0-0.1,0.1-0.1,0.1-0.2c0.1-0.1,0.1-0.2,0.1-0.3c0-0.1,0.1-0.1,0.1-0.2
								c0-0.1,0.1-0.2,0.1-0.3c0-0.1,0.1-0.1,0.1-0.2c0-0.1,0.1-0.2,0.1-0.3c0-0.1,0-0.1,0.1-0.2c0-0.1,0.1-0.2,0.1-0.4
								c0-0.1,0-0.1,0-0.2c0-0.1,0-0.3,0.1-0.4c0,0,0-0.1,0-0.1c0-0.2,0-0.4,0-0.6c0-0.2,0-0.4,0-0.6c0,0,0-0.1,0-0.1
								c0-0.2,0-0.3-0.1-0.5c0,0,0-0.1,0-0.1c0-0.1-0.1-0.3-0.1-0.4c0-0.1,0-0.1-0.1-0.2c0-0.1-0.1-0.2-0.1-0.4c0-0.1,0-0.1-0.1-0.2
								c0-0.1-0.1-0.2-0.1-0.3c0-0.1-0.1-0.1-0.1-0.2c-0.1-0.1-0.1-0.2-0.2-0.3c0-0.1-0.1-0.1-0.1-0.2c-0.1-0.1-0.1-0.2-0.2-0.3
								c0-0.1-0.1-0.1-0.1-0.2c-0.1-0.1-0.2-0.2-0.2-0.3c0,0-0.1-0.1-0.1-0.1c-0.1-0.1-0.2-0.3-0.4-0.4c0,0-0.1-0.1-0.1-0.1
								c-0.1-0.1-0.2-0.2-0.3-0.3c-0.1,0-0.1-0.1-0.2-0.1c-0.1-0.1-0.2-0.1-0.3-0.2c-0.1,0-0.1-0.1-0.2-0.1c-0.1,0-0.2-0.1-0.3-0.1
								c-0.1,0-0.2-0.1-0.2-0.1c-0.1,0-0.2-0.1-0.3-0.1c-0.1,0-0.2-0.1-0.3-0.1c-0.1,0-0.2-0.1-0.3-0.1c-0.1,0-0.2-0.1-0.3-0.1
								c0,0-0.1,0-0.1,0c2.2-8,8.5-14.3,16.5-16.5c0.7,2.8,3.2,4.7,6.1,4.7s5.4-2,6.1-4.7c8,2.2,14.3,8.5,16.5,16.5c0,0-0.1,0-0.1,0
								c-0.1,0-0.2,0-0.3,0.1c-0.1,0-0.2,0.1-0.3,0.1c-0.1,0-0.2,0.1-0.3,0.1c-0.1,0-0.2,0.1-0.3,0.1c-0.1,0-0.2,0.1-0.2,0.1
								c-0.1,0-0.2,0.1-0.3,0.1c-0.1,0-0.1,0.1-0.2,0.1c-0.1,0.1-0.2,0.1-0.3,0.2c-0.1,0-0.1,0.1-0.2,0.1c-0.1,0.1-0.2,0.2-0.3,0.3
								c0,0-0.1,0.1-0.1,0.1c-0.1,0.1-0.3,0.2-0.4,0.4c0,0-0.1,0.1-0.1,0.1c-0.1,0.1-0.2,0.2-0.2,0.3c0,0-0.1,0.1-0.1,0.2
								c-0.1,0.1-0.1,0.2-0.2,0.3c0,0.1-0.1,0.1-0.1,0.2c-0.1,0.1-0.1,0.2-0.2,0.3c0,0.1-0.1,0.1-0.1,0.2c-0.1,0.1-0.1,0.2-0.2,0.3
								c0,0.1,0,0.1-0.1,0.2c0,0.1-0.1,0.2-0.1,0.4c0,0.1,0,0.1-0.1,0.2c0,0.1-0.1,0.3-0.1,0.4c0,0,0,0.1,0,0.1
								c0,0.2-0.1,0.3-0.1,0.5c0,0,0,0.1,0,0.1c0,0.2,0,0.4,0,0.6c0,0.2,0,0.4,0,0.6c0,0,0,0.1,0,0.1c0,0.1,0,0.3,0.1,0.4
								c0,0.1,0,0.1,0,0.2c0,0.1,0.1,0.2,0.1,0.4c0,0.1,0,0.1,0.1,0.2c0,0.1,0.1,0.2,0.1,0.3c0,0.1,0.1,0.1,0.1,0.2
								c0,0.1,0.1,0.2,0.1,0.3c0,0.1,0.1,0.1,0.1,0.2c0,0.1,0.1,0.2,0.1,0.3c0,0.1,0.1,0.1,0.1,0.2c0.1,0.1,0.1,0.2,0.2,0.2
								c0.1,0.1,0.1,0.1,0.2,0.2c0.1,0.1,0.1,0.1,0.2,0.2c0.1,0.1,0.1,0.1,0.2,0.2c0.1,0.1,0.1,0.1,0.2,0.2c0.1,0.1,0.2,0.2,0.4,0.3
								c0.1,0.1,0.1,0.1,0.2,0.2c0.1,0.1,0.2,0.1,0.2,0.2c0.1,0,0.1,0.1,0.2,0.1c0.1,0.1,0.2,0.1,0.2,0.1c0.1,0,0.2,0.1,0.2,0.1
								c0.1,0,0.2,0.1,0.3,0.1c0.1,0,0.2,0.1,0.2,0.1c0.1,0,0.2,0.1,0.3,0.1c0.1,0,0.2,0.1,0.3,0.1c0.1,0,0.2,0.1,0.3,0.1
								c0,0,0.1,0,0.1,0C50.9,44.7,44.5,51,36.5,53.2 M30.4,59.3c-2.5,0-4.6-2.1-4.6-4.6c0-0.1,0-0.3,0-0.4l0,0
								c0.2-1.8,1.3-3.2,2.9-3.9c0.5-0.2,1.1-0.3,1.7-0.3c1.2,0,2.3,0.4,3.1,1.2c0.8,0.7,1.4,1.8,1.5,3l0,0c0,0.1,0,0.3,0,0.4
								C35,57.2,33,59.3,30.4,59.3 M1.7,30.6C1.7,28,3.8,26,6.3,26c0.1,0,0.3,0,0.4,0l0,0c1.2,0.1,2.2,0.7,3,1.5
								c0.7,0.8,1.2,1.9,1.2,3.1c0,0.6-0.1,1.2-0.3,1.7C10,33.8,8.5,35,6.7,35.2l0,0c-0.1,0-0.3,0-0.4,0C3.8,35.2,1.7,33.1,1.7,30.6
								 M30.4,1.8C33,1.8,35,3.9,35,6.4c0,0.1,0,0.3,0,0.4l0,0c-0.2,2.4-2.2,4.2-4.6,4.2c-2.4,0-4.4-1.8-4.6-4.2l0,0
								c0-0.1,0-0.3,0-0.4C25.8,3.9,27.9,1.8,30.4,1.8 M60.9,30.6c0-3.4-2.8-6.2-6.2-6.3c-2.3-8.8-9.2-15.7-18-18
								c-0.1-3.4-2.9-6.2-6.3-6.2c-3.4,0-6.2,2.8-6.3,6.2c-8.8,2.3-15.7,9.2-18,18C2.8,24.4,0,27.1,0,30.6c0,3.4,2.8,6.2,6.2,6.3
								c2.3,8.8,9.2,15.7,18,18c0.1,3.4,2.9,6.2,6.3,6.2c3.4,0,6.2-2.8,6.3-6.2c8.8-2.3,15.7-9.2,18-18C58.1,36.8,60.9,34,60.9,30.6
								"/>
						</g>
					</g>
				</g>
			</g>
		</g>
	</g>
</g>
</svg>
