<?xml version="1.0" encoding="utf-8"?>
<!-- Generator: Adobe Illustrator 25.0.0, SVG Export Plug-In . SVG Version: 6.00 Build 0)  -->
<svg version="1.1" id="Calque_1" xmlns="http://www.w3.org/2000/svg" xmlns:xlink="http://www.w3.org/1999/xlink" x="0px" y="0px"
	 viewBox="0 0 112 73" style="enable-background:new 0 0 112 73;" xml:space="preserve">
<style type="text/css">
	.st0{filter:url(#Adobe_OpacityMaskFilter);}
	.st1{fill-rule:evenodd;clip-rule:evenodd;fill:#FFFFFF;}
	.st2{mask:url(#mask-3_1_);fill-rule:evenodd;clip-rule:evenodd;fill:#04809F;}
	.st3{filter:url(#Adobe_OpacityMaskFilter_1_);}
	.st4{mask:url(#mask-6_1_);fill-rule:evenodd;clip-rule:evenodd;fill:#04809F;}
</style>
<defs>
	<filter id="Adobe_OpacityMaskFilter" filterUnits="userSpaceOnUse" x="0" y="0.6" width="111.7" height="72.4">
		<feColorMatrix  type="matrix" values="1 0 0 0 0  0 1 0 0 0  0 0 1 0 0  0 0 0 1 0"/>
	</filter>
</defs>
<mask maskUnits="userSpaceOnUse" x="0" y="0.6" width="111.7" height="72.4" id="mask-3_1_">
	<g class="st0">
		<path id="path-2_1_" class="st1" d="M26,0.6c-6.1,0-11,4.9-11,10.9l0,0v16.9H6.3c-3.5,0-6.3,2.8-6.3,6.2l0,0v20.8
			c0,3.4,2.8,6.2,6.3,6.2l0,0h8.5v1.4c0,1.1-0.9,1.9-1.9,1.9l0,0c-0.6,0-1.1,0.5-1.1,1.1l0,0c0,0.6,0.5,1.1,1.1,1.1l0,0h17.8
			c0.6,0,1.1-0.5,1.1-1.1l0,0c0-0.6-0.5-1.1-1.1-1.1l0,0c-1.1,0-1.9-0.9-1.9-1.9l0,0v-0.9h14.7V66c0,2.6-2.1,4.7-4.8,4.7l0,0
			c-0.6,0-1.1,0.5-1.1,1.1l0,0c0,0.6,0.5,1.1,1.1,1.1l0,0h34.1c0.6,0,1.1-0.5,1.1-1.1l0,0c0-0.6-0.5-1.1-1.1-1.1l0,0
			c-2.6,0-4.8-2.1-4.8-4.7l0,0v-3.8h14.8v0.9c0,1.1-0.9,1.9-1.9,1.9l0,0c-0.6,0-1.1,0.5-1.1,1.1l0,0c0,0.6,0.5,1.1,1.1,1.1l0,0h17.8
			c0.6,0,1.1-0.5,1.1-1.1l0,0c0-0.6-0.5-1.1-1.1-1.1l0,0c-1.1,0-1.9-0.9-1.9-1.9l0,0v-1.4h8.7c3.5,0,6.3-2.8,6.3-6.2l0,0V34.6
			c0-3.4-2.8-6.2-6.3-6.2l0,0h-8.7V12c0-0.8-0.1-1.6-0.3-2.4l0,0C95.6,4.4,91,0.6,85.6,0.6l0,0H26z M17.3,29.5v-18
			c0-4.8,3.9-8.6,8.7-8.6l0,0h59.7c4.3,0,7.9,3,8.6,7.2l0,0c0.1,0.7,0.2,1.3,0.2,1.9l0,0v17.5v17H17.3V29.5z M96.7,50.7V30.6h8.7
			c2.2,0,4,1.8,4,4l0,0v16.9H96.7C96.7,51.3,96.7,51,96.7,50.7L96.7,50.7z M2.3,34.6c0-2.2,1.8-4,4-4l0,0H15v20.1c0,0.3,0,0.5,0,0.8
			l0,0H2.3V34.6z M17.3,50.7v-2h77.1v2c0,5.1-4.2,9.2-9.3,9.2l0,0h-1.3H66.8H44.5h-17h-1C21.5,59.9,17.3,55.8,17.3,50.7L17.3,50.7z
			 M85,63.1v-0.9h0.1c5.3,0,9.8-3.6,11.1-8.4l0,0h13.1v1.6c0,2.2-1.8,4-4,4l0,0h-9.9c-0.6,0-1.1,0.5-1.1,1.1l0,0v2.6
			c0,0.7,0.2,1.3,0.5,1.9l0,0H84.6C84.9,64.4,85,63.8,85,63.1L85,63.1z M2.3,55.4v-1.6h13.1c1.4,4.8,5.8,8.3,11,8.4l0,0v0.9
			c0,0.7,0.2,1.3,0.5,1.9l0,0H16.6c0.3-0.6,0.5-1.2,0.5-1.9l0,0v-2.6c0-0.6-0.5-1.1-1.1-1.1l0,0H6.3C4.1,59.4,2.3,57.6,2.3,55.4
			L2.3,55.4z M45.7,66v-3.8h20V66c0,1.8,0.7,3.5,1.9,4.7l0,0H43.8C45,69.5,45.7,67.8,45.7,66L45.7,66z"/>
	</g>
</mask>
<path id="Fill-1" class="st2" d="M26,0.6c-6.1,0-11,4.9-11,10.9l0,0v16.9H6.3c-3.5,0-6.3,2.8-6.3,6.2l0,0v20.8
	c0,3.4,2.8,6.2,6.3,6.2l0,0h8.5v1.4c0,1.1-0.9,1.9-1.9,1.9l0,0c-0.6,0-1.1,0.5-1.1,1.1l0,0c0,0.6,0.5,1.1,1.1,1.1l0,0h17.8
	c0.6,0,1.1-0.5,1.1-1.1l0,0c0-0.6-0.5-1.1-1.1-1.1l0,0c-1.1,0-1.9-0.9-1.9-1.9l0,0v-0.9h14.7V66c0,2.6-2.1,4.7-4.8,4.7l0,0
	c-0.6,0-1.1,0.5-1.1,1.1l0,0c0,0.6,0.5,1.1,1.1,1.1l0,0h34.1c0.6,0,1.1-0.5,1.1-1.1l0,0c0-0.6-0.5-1.1-1.1-1.1l0,0
	c-2.6,0-4.8-2.1-4.8-4.7l0,0v-3.8h14.8v0.9c0,1.1-0.9,1.9-1.9,1.9l0,0c-0.6,0-1.1,0.5-1.1,1.1l0,0c0,0.6,0.5,1.1,1.1,1.1l0,0h17.8
	c0.6,0,1.1-0.5,1.1-1.1l0,0c0-0.6-0.5-1.1-1.1-1.1l0,0c-1.1,0-1.9-0.9-1.9-1.9l0,0v-1.4h8.7c3.5,0,6.3-2.8,6.3-6.2l0,0V34.6
	c0-3.4-2.8-6.2-6.3-6.2l0,0h-8.7V12c0-0.8-0.1-1.6-0.3-2.4l0,0C95.6,4.4,91,0.6,85.6,0.6l0,0H26z M17.3,29.5v-18
	c0-4.8,3.9-8.6,8.7-8.6l0,0h59.7c4.3,0,7.9,3,8.6,7.2l0,0c0.1,0.7,0.2,1.3,0.2,1.9l0,0v17.5v17H17.3V29.5z M96.7,50.7V30.6h8.7
	c2.2,0,4,1.8,4,4l0,0v16.9H96.7C96.7,51.3,96.7,51,96.7,50.7L96.7,50.7z M2.3,34.6c0-2.2,1.8-4,4-4l0,0H15v20.1c0,0.3,0,0.5,0,0.8
	l0,0H2.3V34.6z M17.3,50.7v-2h77.1v2c0,5.1-4.2,9.2-9.3,9.2l0,0h-1.3H66.8H44.5h-17h-1C21.5,59.9,17.3,55.8,17.3,50.7L17.3,50.7z
	 M85,63.1v-0.9h0.1c5.3,0,9.8-3.6,11.1-8.4l0,0h13.1v1.6c0,2.2-1.8,4-4,4l0,0h-9.9c-0.6,0-1.1,0.5-1.1,1.1l0,0v2.6
	c0,0.7,0.2,1.3,0.5,1.9l0,0H84.6C84.9,64.4,85,63.8,85,63.1L85,63.1z M2.3,55.4v-1.6h13.1c1.4,4.8,5.8,8.3,11,8.4l0,0v0.9
	c0,0.7,0.2,1.3,0.5,1.9l0,0H16.6c0.3-0.6,0.5-1.2,0.5-1.9l0,0v-2.6c0-0.6-0.5-1.1-1.1-1.1l0,0H6.3C4.1,59.4,2.3,57.6,2.3,55.4
	L2.3,55.4z M45.7,66v-3.8h20V66c0,1.8,0.7,3.5,1.9,4.7l0,0H43.8C45,69.5,45.7,67.8,45.7,66L45.7,66z"/>
<defs>
	<filter id="Adobe_OpacityMaskFilter_1_" filterUnits="userSpaceOnUse" x="54.2" y="52.5" width="5.2" height="5.2">
		<feColorMatrix  type="matrix" values="1 0 0 0 0  0 1 0 0 0  0 0 1 0 0  0 0 0 1 0"/>
	</filter>
</defs>
<mask maskUnits="userSpaceOnUse" x="54.2" y="52.5" width="5.2" height="5.2" id="mask-6_1_">
	<g class="st3">
		<path id="path-5_1_" class="st1" d="M54.2,55.1c0,1.4,1.2,2.6,2.6,2.6l0,0c1.4,0,2.6-1.2,2.6-2.6l0,0c0-1.4-1.2-2.6-2.6-2.6l0,0
			C55.4,52.5,54.2,53.7,54.2,55.1"/>
	</g>
</mask>
<path id="Fill-4" class="st4" d="M54.2,55.1c0,1.4,1.2,2.6,2.6,2.6l0,0c1.4,0,2.6-1.2,2.6-2.6l0,0c0-1.4-1.2-2.6-2.6-2.6l0,0
	C55.4,52.5,54.2,53.7,54.2,55.1"/>
</svg>
