<?xml version="1.0" encoding="utf-8"?>
<!-- Generator: Adobe Illustrator 25.0.0, SVG Export Plug-In . SVG Version: 6.00 Build 0)  -->
<svg version="1.1" id="Capa_1" xmlns="http://www.w3.org/2000/svg" xmlns:xlink="http://www.w3.org/1999/xlink" x="0px" y="0px"
	 viewBox="0 0 301.2 301.2" style="enable-background:new 0 0 301.2 301.2;" xml:space="preserve">
<style type="text/css">
	.st0{fill:#04809F;}
</style>
<g>
	<path class="st0" d="M291.2,27.1H10c-5.5,0-10,4.5-10,10v181.5c0,5.5,4.5,10,10,10h108l-4.9,33.6h-4c-3.3,0-6,2.7-6,6s2.7,6,6,6
		h9.2c0,0,0,0,0,0s0,0,0,0h64.6c0,0,0,0,0,0s0,0,0,0h9.2c3.3,0,6-2.7,6-6s-2.7-6-6-6H188l-5.8-33.6h109c5.5,0,10-4.5,10-10V37.1
		C301.2,31.5,296.7,27.1,291.2,27.1z M289.2,39.1v132.9H12V39.1H289.2z M170.1,228.8l5.7,33.4h-50.6l4.9-33.5c0,0,0,0,0-0.1h40
		C170.1,228.6,170.1,228.7,170.1,228.8z M12,216.6v-32.7h277.2v32.7H12z"/>
	<circle class="st0" cx="150.6" cy="199.8" r="7.1"/>
</g>
</svg>
