<?xml version="1.0" encoding="utf-8"?>
<!-- Generator: Adobe Illustrator 25.0.0, SVG Export Plug-In . SVG Version: 6.00 Build 0)  -->
<svg version="1.1" id="Out_line" xmlns="http://www.w3.org/2000/svg" xmlns:xlink="http://www.w3.org/1999/xlink" x="0px" y="0px"
	 viewBox="0 0 512 512" style="enable-background:new 0 0 512 512;" xml:space="preserve">
<style type="text/css">
	.st0{fill:#04809F;}
</style>
<path class="st0" d="M472.2,152.8c-13.9-15.9-32.7-26.8-53.4-30.9C402.1,60.9,346.2,16,280,16c-49,0-94.6,24.9-121.1,66
	c-29.8-8.2-60.6,9.2-68.9,39c-0.1,0.5-0.3,1-0.4,1.6c-51.6,12.4-83.3,64.2-71,115.7c3.4,14.2,10,27.4,19.3,38.7l12.3-10.2
	C22.2,232.8,27,182.4,61.1,154.3C75.4,142.5,93.4,136,112,136c2.4,0,4.9,0.1,7.3,0.3l1.4-15.9c-2.9-0.3-5.8-0.4-8.7-0.4
	c-1.6,0-3.1,0-4.7,0.1c7.3-16.9,25.2-26.6,43.4-23.5c-2,4.1-3.9,8.3-5.5,12.6l15,5.6c25-66.2,98.8-99.5,165-74.6
	C375,59,408,106.7,408,160h16c0-7-0.5-13.9-1.5-20.8c34,10.1,57.4,41.3,57.5,76.8c0,16.5-5,32.5-14.5,46l13.1,9.2
	C504,235,501.4,186.1,472.2,152.8L472.2,152.8z"/>
<circle class="st0" cx="88" cy="360" r="8"/>
<circle class="st0" cx="112" cy="360" r="8"/>
<circle class="st0" cx="136" cy="360" r="8"/>
<rect x="160" y="352" class="st0" width="48" height="16"/>
<circle class="st0" cx="88" cy="296" r="8"/>
<circle class="st0" cx="112" cy="296" r="8"/>
<circle class="st0" cx="136" cy="296" r="8"/>
<rect x="160" y="288" class="st0" width="48" height="16"/>
<path class="st0" d="M208,192H88c-17.7,0-32,14.3-32,32v16c0,9.2,4,17.9,10.9,24C60,270.1,56,278.8,56,288v16c0,9.2,4,17.9,10.9,24
	C60,334.1,56,342.8,56,352v16c0,17.7,14.3,32,32,32h120c17.7,0,32-14.3,32-32v-16c0-9.2-4-17.9-10.9-24c6.9-6.1,10.9-14.8,10.9-24
	v-16c0-9.2-4-17.9-10.9-24c6.9-6.1,10.9-14.8,10.9-24v-16C240,206.3,225.7,192,208,192z M224,352v16c0,8.8-7.2,16-16,16H88
	c-8.8,0-16-7.2-16-16v-16c0-8.8,7.2-16,16-16h120C216.8,336,224,343.2,224,352z M224,288v16c0,8.8-7.2,16-16,16H88
	c-8.8,0-16-7.2-16-16v-16c0-8.8,7.2-16,16-16h120C216.8,272,224,279.2,224,288z M88,256c-8.8,0-16-7.2-16-16v-16c0-8.8,7.2-16,16-16
	h120c8.8,0,16,7.2,16,16v16c0,8.8-7.2,16-16,16H88z"/>
<circle class="st0" cx="88" cy="232" r="8"/>
<circle class="st0" cx="112" cy="232" r="8"/>
<circle class="st0" cx="136" cy="232" r="8"/>
<rect x="160" y="224" class="st0" width="48" height="16"/>
<path class="st0" d="M424,232h-64c-17.7,0-32,14.3-32,32v48c0,17.7,14.3,32,32,32h64c17.7,0,32-14.3,32-32v-48
	C456,246.3,441.7,232,424,232z M440,264v4.3c-4.9-2.8-10.4-4.3-16-4.3h-17.2c-6.1,0-11.6-3.4-14.3-8.8l-2.7-5.5
	c-0.3-0.6-0.6-1.1-0.9-1.7H424C432.8,248,440,255.2,440,264z M440,312c0,8.8-7.2,16-16,16h-64c-8.8,0-16-7.2-16-16v-48
	c0-8.8,7.2-16,16-16h1.2c6.1,0,11.6,3.4,14.3,8.8l2.7,5.5c5.4,10.9,16.5,17.7,28.6,17.7H424c8.8,0,16,7.2,16,16V312z"/>
<path class="st0" d="M424,384h-64c-17.7,0-32,14.3-32,32v48c0,17.7,14.3,32,32,32h64c17.7,0,32-14.3,32-32v-48
	C456,398.3,441.7,384,424,384z M440,416v4.3c-4.9-2.8-10.4-4.3-16-4.3h-17.2c-6.1,0-11.6-3.4-14.3-8.8l-2.7-5.5
	c-0.3-0.6-0.6-1.1-0.9-1.7H424C432.8,400,440,407.2,440,416z M440,464c0,8.8-7.2,16-16,16h-64c-8.8,0-16-7.2-16-16v-48
	c0-8.8,7.2-16,16-16h1.2c6.1,0,11.6,3.4,14.3,8.8l2.7,5.5c5.4,10.9,16.5,17.7,28.6,17.7H424c8.8,0,16,7.2,16,16V464z"/>
<path class="st0" d="M248,280v16h24v152c0,4.4,3.6,8,8,8h32v-16h-24V296h24v-16H248z"/>
</svg>
