<?xml version="1.0" encoding="utf-8"?>
<!-- Generator: Adobe Illustrator 25.0.0, SVG Export Plug-In . SVG Version: 6.00 Build 0)  -->
<svg version="1.1" id="Calque_1" xmlns="http://www.w3.org/2000/svg" xmlns:xlink="http://www.w3.org/1999/xlink" x="0px" y="0px"
	 viewBox="0 0 70.1 73.2" style="enable-background:new 0 0 70.1 73.2;" xml:space="preserve">
<style type="text/css">
	.st0{fill:#04809F;stroke:#04809F;stroke-miterlimit:10;}
</style>
<g id="Pages-principales">
	<g id="OUR-CAMPUSES" transform="translate(-212.000000, -822.000000)">
		<g id="Filter" transform="translate(165.000000, 732.000000)">
			<g id="Global-_x28_-actif_x29_" transform="translate(0.000000, 56.000000)">
				<g id="international">
					<g transform="translate(47.000000, 34.000000)">
						<path id="Shape" class="st0" d="M67,25.8c1.3-2.1,2.4-4.6,2.5-7.3c0.1-2.2-0.7-4.4-2.3-6c-1.5-1.6-3.6-2.5-5.8-2.5h-0.1
							c-1.9,0-3.8,0.7-5.2,1.9c-6-4.5-13.5-7-21.1-7C30,4.9,25.1,6,20.6,8c-0.2-1.8-1-3.6-2.3-4.9c-1.4-1.6-3.4-2.5-5.6-2.5h-0.1
							c-2.2,0-4.2,0.8-5.7,2.3C5.3,4.4,4.5,6.4,4.5,8.6c0,3.6,1.7,6.8,3.5,9.2c-2.2,2.7-3.9,5.6-5.1,8.8C2.7,27.1,3,27.8,3.5,28
							c0.1,0,0.3,0.1,0.4,0.1c0.4,0,0.8-0.3,1-0.7C6,24.6,7.5,22,9.3,19.6c0,0.2,0,0.5,0,0.7v5.1c0,1,0.6,1.9,1.5,2.4
							c0.4,0.2,0.8,0.3,1.3,0.3s1.1-0.2,1.6-0.5l3.8-2.6c1.1-0.7,2.3-1.1,3.7-1.1h5c1.9,0,3.7-0.7,5.1-2.1l4.9-4.8
							c1.6-1.6,1.7-4.2,0.2-5.9L34,8.4C33.7,8,33.5,7.5,33.6,7c0.5,0,1.1,0,1.6,0c7.1,0,14,2.3,19.6,6.5c-0.9,1.3-1.5,2.9-1.5,4.6
							c0,1.5,0.3,2.9,0.8,4.2c-0.3,2.3,0,4.6,1,6.7l2.1,4.6c1.1,2.4,3.6,4,6.3,4c1.4,0,2.7-0.4,3.9-1.2h0.1c0.1,0.8,0.1,1.6,0.1,2.4
							c0,17.5-14.5,31.7-32.4,31.7S2.7,56.3,2.7,38.8c0-2.5,0.3-4.9,0.9-7.3c0.1-0.6-0.2-1.1-0.8-1.3c-0.6-0.1-1.2,0.2-1.3,0.8
							c-0.6,2.5-0.9,5.1-0.9,7.8c0,9,3.6,17.5,10.1,23.9s15.2,9.9,24.4,9.9s17.9-3.5,24.4-9.9s10.1-14.9,10.1-23.9
							C69.6,34.3,68.7,29.9,67,25.8L67,25.8z M8.4,4.4c1.1-1.1,2.6-1.7,4.2-1.7c0,0,0,0,0.1,0c1.6,0,3.1,0.7,4.2,1.8
							c1.1,1.2,1.8,2.8,1.7,4.4c-0.2,4.7-4,8.9-5.7,10.5c-0.2,0.2-0.4,0.2-0.6,0c-1.7-1.6-5.7-6-5.7-10.8C6.6,7,7.2,5.5,8.4,4.4z
							 M32.2,9.8l2.4,2.7c0.8,0.9,0.7,2.2-0.1,3.1l-4.9,4.7c-1,0.9-2.2,1.4-3.6,1.4h-5c-1.8,0-3.4,0.5-4.9,1.5l-3.8,2.6
							c-0.3,0.2-0.5,0.1-0.6,0s-0.3-0.2-0.3-0.5v-4c0.4,0.2,0.8,0.3,1.2,0.3c0.7,0,1.3-0.2,1.8-0.7c2.1-2,5.5-5.9,6.2-10.6
							c3.3-1.6,7-2.7,10.7-3.1C31.3,8.2,31.6,9.1,32.2,9.8L32.2,9.8z M61.4,12.2L61.4,12.2c1.7,0,3.2,0.7,4.3,1.8
							c1.1,1.2,1.8,2.8,1.7,4.4c-0.2,4.7-4,8.9-5.7,10.5c-0.2,0.2-0.4,0.2-0.6,0c-1.7-1.7-5.7-6.1-5.7-10.9c0-1.6,0.6-3.1,1.8-4.2
							C58.3,12.8,59.8,12.2,61.4,12.2L61.4,12.2z M66.1,34.7c-0.8,0.5-1.7,0.8-2.7,0.8c-1.9,0-3.6-1.1-4.4-2.8l-2.1-4.6
							c-0.2-0.4-0.3-0.8-0.5-1.2c1.1,1.5,2.2,2.7,3.1,3.6c0.5,0.5,1.2,0.7,1.8,0.7c0.7,0,1.3-0.2,1.8-0.7c0.7-0.7,1.5-1.5,2.3-2.6
							c0.7,2,1.3,4,1.6,6.1L66.1,34.7z"/>
						<path id="Shape_1_" class="st0" d="M61.4,22.6c2.5,0,4.5-2,4.5-4.5s-2-4.5-4.5-4.5s-4.5,2-4.5,4.5S58.9,22.6,61.4,22.6z
							 M61.4,15.7c1.3,0,2.4,1.1,2.4,2.4s-1.1,2.4-2.4,2.4S59,19.4,59,18.1S60.1,15.7,61.4,15.7z"/>
						<path id="Shape_2_" class="st0" d="M44.4,24.1c-1.5-1.6-3.5-2.4-5.7-2.5h-0.1c-2.1,0-4.2,0.8-5.7,2.3c-1.2,1.1-1.9,2.5-2.2,4
							c-2.4-0.1-4.8,1-6.3,3l-3.6,5c-1.4,1.9-1.6,4.5-0.5,6.5c-0.5,1-0.7,2.1-0.7,3.2c0,4.6,2.9,8.7,5.2,11.2l-0.2,6.3
							c-0.1,1.5,0.6,2.9,1.9,3.7c0.8,0.5,1.7,0.8,2.6,0.8s1.8-0.3,2.5-0.8l9.8-6.7c1.5-1,2.8-2.3,3.9-3.8l3-4.1
							c0.3-0.5,0.2-1.1-0.3-1.5c-0.5-0.3-1.1-0.2-1.5,0.2l-3,4.1c-0.9,1.3-2.1,2.4-3.4,3.3L30.3,65c-0.8,0.5-1.9,0.5-2.7,0
							c-0.6-0.4-1-1.2-1-1.9l0.2-4.5c0.3,0.1,0.5,0.1,0.8,0.1c0.6,0,1.3-0.2,1.8-0.7c2.3-2.2,6.1-6.6,6.3-11.9
							c0.1-2.2-0.7-4.4-2.3-5.9c-1.5-1.6-3.5-2.4-5.7-2.5c-2.2,0-4.2,0.8-5.8,2.3c-0.1,0.1-0.1,0.1-0.2,0.2
							c-0.2-1.1,0.1-2.2,0.7-3.1l3.6-5c1-1.4,2.7-2.2,4.4-2.1c0.2,5.2,4,9.6,6.3,11.8c0.5,0.5,1.1,0.7,1.8,0.7
							c0.6,0,1.3-0.2,1.8-0.7c0.9-0.9,2.1-2.2,3.2-3.8l5.5,3.8c0.7,0.5,1.2,1.2,1.3,2s0,1.7-0.5,2.3L49,47.2
							c-0.3,0.5-0.2,1.1,0.3,1.5c0.2,0.1,0.4,0.2,0.6,0.2c0.3,0,0.7-0.2,0.9-0.4l0.8-1.1c0.8-1.1,1.1-2.5,0.9-3.9
							c-0.2-1.4-1-2.6-2.2-3.4l-5.6-3.9c1-1.9,1.8-4,1.9-6.3C46.7,27.8,45.9,25.6,44.4,24.1L44.4,24.1z M27.7,39.9L27.7,39.9
							c1.7,0,3.2,0.7,4.3,1.8c1.1,1.2,1.7,2.8,1.7,4.4c-0.2,4.7-4,8.9-5.7,10.5c-0.2,0.2-0.4,0.2-0.6,0c-1.7-1.7-5.7-6-5.7-10.8
							c0-1.6,0.6-3,1.8-4.2C24.6,40.5,26.1,39.9,27.7,39.9L27.7,39.9z M38.9,40.4c-0.2,0.2-0.4,0.2-0.6,0c-1.7-1.7-5.7-6-5.7-10.8
							c0-1.6,0.6-3,1.8-4.2c1.1-1.1,2.6-1.7,4.2-1.7c0,0,0,0,0.1,0c1.6,0,3.1,0.7,4.2,1.8c1.1,1.2,1.7,2.8,1.7,4.4
							C44.3,34.6,40.5,38.8,38.9,40.4L38.9,40.4z"/>
						<path id="Path" class="st0" d="M42,28.7c-0.6,0-1.1,0.5-1.1,1.1c0,1.3-1.1,2.4-2.4,2.4s-2.4-1.1-2.4-2.4s1.1-2.4,2.4-2.4
							c0.2,0,0.3,0,0.5,0c0.6,0.1,1.1-0.3,1.3-0.8c0.1-0.6-0.3-1.1-0.8-1.3c-0.3,0-0.6,0-0.9,0c-2.5,0-4.5,2-4.5,4.5s2,4.5,4.5,4.5
							s4.5-2,4.5-4.5C43.1,29.2,42.6,28.7,42,28.7L42,28.7z"/>
						<path id="Shape_3_" class="st0" d="M27.7,50.5c2.5,0,4.5-2,4.5-4.5s-2-4.5-4.5-4.5s-4.5,2-4.5,4.5S25.2,50.5,27.7,50.5z
							 M27.7,43.6c1.3,0,2.4,1.1,2.4,2.4s-1.1,2.4-2.4,2.4s-2.4-1.1-2.4-2.4C25.3,44.7,26.4,43.6,27.7,43.6z"/>
						<path id="Shape_4_" class="st0" d="M17.1,8.6c0-2.5-2-4.5-4.5-4.5s-4.5,2-4.5,4.5s2,4.5,4.5,4.5S17.1,11.1,17.1,8.6z
							 M10.2,8.6c0-1.3,1.1-2.4,2.4-2.4S15,7.3,15,8.6S13.9,11,12.6,11S10.2,9.9,10.2,8.6L10.2,8.6z"/>
					</g>
				</g>
			</g>
		</g>
	</g>
</g>
</svg>
