<?xml version="1.0" encoding="utf-8"?>
<!-- Generator: Adobe Illustrator 25.0.0, SVG Export Plug-In . SVG Version: 6.00 Build 0)  -->
<svg version="1.1" id="Layer_1" xmlns="http://www.w3.org/2000/svg" xmlns:xlink="http://www.w3.org/1999/xlink" x="0px" y="0px"
	 viewBox="0 0 512 512" style="enable-background:new 0 0 512 512;" xml:space="preserve">
<style type="text/css">
	.st0{fill:#04809F;}
</style>
<path class="st0" d="M379.9,180.3l27.1-21.9c28.6-23.2,45-57.5,45-94.3c0-2.2-1.8-4-4-4c-36.8,0-71.2,16.4-94.3,45L335,128.1
	c-40.2,0.5-79.1,16.7-107.1,44.7l-48.4,48.4c-1.1,1.1-1.5,2.9-0.9,4.4s2.1,2.5,3.7,2.5h20c0.9,0,1.8-0.3,2.5-0.8l52.8-41.5
	c1.4-1.1,3.1-1.7,4.9-1.7c4.4,0,7.9,3.5,7.9,7.9V208l-14.6,18l-4.9-4.9c-1.2-1.2-3.1-1.5-4.6-0.8l-16,8c-1.2,0.6-2,1.7-2.2,2.9
	s0.2,2.6,1.1,3.5l3.8,3.8c-12.8,6.7-21,19.9-21,34.7V296c0,2.2,1.8,4,4,4h22.7c14.7,0,28-8.2,34.7-21l3.8,3.8
	c0.7,0.8,1.8,1.2,2.8,1.2c0.2,0,0.4,0,0.6-0.1c1.3-0.2,2.4-1,2.9-2.2l8-16c0.8-1.5,0.5-3.4-0.8-4.6l-4.9-4.9l15.2-12.3h14.9
	c4.4,0,7.9,3.5,7.9,7.9c0,1.8-0.6,3.5-1.7,4.9l-41.5,52.8c-0.5,0.7-0.8,1.6-0.8,2.5v20c0,1.6,1,3.1,2.5,3.7c0.5,0.2,1,0.3,1.5,0.3
	c1,0,2.1-0.4,2.8-1.2l48.4-48.4C363.6,258,379.4,220.4,379.9,180.3L379.9,180.3z M419.7,134.1l-41.8-41.8
	c18.7-14.8,41.7-23.3,66-24.2C443.1,92.4,434.5,115.3,419.7,134.1L419.7,134.1z M262.4,176c-3.5,0-7,1.2-9.8,3.4L200.9,220h-9
	l41.5-41.5c25-25,59.1-39.9,94.7-42l-49.9,61.7v-6.2C278.3,183.1,271.2,176,262.4,176z M238.7,292H220v-18.7
	c0-12.6,7.6-23.7,19.1-28.6l28.2,28.2C262.4,284.4,251.3,292,238.7,292L238.7,292z M277.5,252.9c-0.9,0.7-1.4,1.8-1.5,2.9
	c-0.1,1.1,0.4,2.2,1.2,3l6,6l-4.2,8.5l-40.2-40.2l8.5-4.2l6,6c0.8,0.8,1.9,1.3,3,1.2c1.1-0.1,2.2-0.6,2.9-1.5L359.9,110
	c3.7-4.5,7.8-8.6,12-12.5l42.6,42.6c-3.9,4.2-8,8.3-12.5,12L277.5,252.9z M288,322.3v-9l40.6-51.7c2.2-2.8,3.4-6.3,3.4-9.8
	c0-8.8-7.1-15.9-15.9-15.9h-5l60.5-49c-2.1,35.4-16.7,68.5-42,93.8L288,322.3z"/>
<path class="st0" d="M368,124c-11,0-20,9-20,20s9,20,20,20s20-9,20-20S379,124,368,124z M368,156c-6.6,0-12-5.4-12-12s5.4-12,12-12
	s12,5.4,12,12S374.6,156,368,156z"/>
<path class="st0" d="M253.2,325.2l-120,120c-1.6,1.6-1.6,4.1,0,5.7c0.8,0.8,1.8,1.2,2.8,1.2s2-0.4,2.8-1.2l120-120
	c1.6-1.6,1.6-4.1,0-5.7S254.7,323.6,253.2,325.2z"/>
<path class="st0" d="M64,380c1,0,2-0.4,2.8-1.2l120-120c1.6-1.6,1.6-4.1,0-5.7s-4.1-1.6-5.7,0l-120,120c-1.6,1.6-1.6,4.1,0,5.7
	C62,379.6,63,380,64,380z"/>
<path class="st0" d="M198.8,313.2c-1.6-1.6-4.1-1.6-5.7,0l-132,132c-1.6,1.6-1.6,4.1,0,5.7C62,451.6,63,452,64,452
	c1,0,2-0.4,2.8-1.2l132-132C200.4,317.3,200.4,314.7,198.8,313.2z"/>
<path class="st0" d="M400,276c-15.4,0-28,12.6-28,28s12.6,28,28,28s28-12.6,28-28S415.4,276,400,276z M400,324c-11,0-20-9-20-20
	s9-20,20-20s20,9,20,20S411,324,400,324z"/>
<path class="st0" d="M112,164c28.7,0,52-23.3,52-52s-23.3-52-52-52s-52,23.3-52,52S83.3,164,112,164z M112,68c24.3,0,44,19.7,44,44
	s-19.7,44-44,44s-44-19.7-44-44S87.7,68,112,68z"/>
<path class="st0" d="M96,124c11,0,20-9,20-20s-9-20-20-20s-20,9-20,20S85,124,96,124z M96,92c6.6,0,12,5.4,12,12s-5.4,12-12,12
	s-12-5.4-12-12S89.4,92,96,92z"/>
<circle class="st0" cx="208" cy="136" r="8"/>
<circle class="st0" cx="336" cy="384" r="8"/>
</svg>
