<?xml version="1.0" encoding="utf-8"?>
<!-- Generator: Adobe Illustrator 25.0.0, SVG Export Plug-In . SVG Version: 6.00 Build 0)  -->
<svg version="1.1" id="Calque_1" xmlns="http://www.w3.org/2000/svg" xmlns:xlink="http://www.w3.org/1999/xlink" x="0px" y="0px"
	 viewBox="0 0 74 73" style="enable-background:new 0 0 74 73;" xml:space="preserve">
<style type="text/css">
	.st0{fill-rule:evenodd;clip-rule:evenodd;fill:#04809F;}
</style>
<path id="Fill-5" class="st0" d="M56.3,64.1C56.3,64.1,56.3,64.2,56.3,64.1c0.4,1.2,1.5,2.8,2.3,4l0.2,0.3c0.4,0.6,1.1,0.7,1.5,0.7
	c0.3-0.1,0.8-0.3,0.9-1c0-0.1,0-0.2,0-0.3c0-0.3-0.1-0.7,0-1.1s0.2-0.7,0.3-0.9l0.1-0.1c0-0.3,0-0.7-0.1-0.9c-1.5,0.3-2.7,0-3.8-0.3
	c-0.4-0.1-0.8-0.2-1.3-0.3C56.4,64.1,56.4,64.1,56.3,64.1 M60.1,72c-1.4,0-2.8-0.7-3.6-1.9l-0.2-0.3c-0.9-1.3-2.2-3.2-2.7-4.8
	c-0.4-1.5,0.1-2.4,0.5-2.9c0.4-0.4,1.3-1.1,2.9-0.8c0.5,0.1,1,0.2,1.5,0.3c1,0.3,1.7,0.4,2.6,0.3c0.9-0.2,1.7,0,2.3,0.6
	c1,0.9,1.2,2.5,1,3.6c-0.1,0.4-0.2,0.8-0.3,1c0,0,0,0.1-0.1,0.1c0,0.1,0,0.2,0,0.3c0,0.3,0.1,0.8,0,1.3c-0.4,1.7-1.6,2.8-3.2,3.1
	C60.6,72,60.3,72,60.1,72"/>
<path id="Fill-8" class="st0" d="M54.8,59.4c-0.3,0-0.7-0.1-1-0.2c-0.8-0.4-1.2-1.1-1.4-1.7c-0.1-0.1-0.2-0.3-0.2-0.4
	c0,0-0.1,0-0.1-0.1c-0.1,0-0.2,0-0.2,0c-0.1,0-0.3,0-0.4-0.1c-1.9-0.3-3.4-1.2-4.4-2.5c-0.5-0.7-0.8-1.5-1-2.2
	c-0.1-0.3-0.2-0.9-0.4-1.1c-0.1,0-0.2,0-0.3,0.1c-0.5,0.1-1.4,0.4-2.3-0.1c-0.8-0.4-1-1.2-1.1-1.6c-0.2,0-0.4-0.1-0.7-0.2
	C40,48.7,39,48,38,46.7c-2.1-2.5-4-3.7-6.3-4c-2.4-0.4-4.9,0.2-7.5,1.8c-2.1,1.3-4,2.1-6,2.3c-0.5,0.1-1,0.1-1.5,0.1
	c-0.9,0.1-1.8,0.1-2.6,0.4c-0.6,0.2-1.1,0.5-1.7,0.7c-1.7,0.8-3.5,1.6-6.2,0.7c-0.2-0.1-0.4-0.1-0.6-0.2c-1-0.4-2.3-0.8-2.9-2
	c-0.2-0.5-0.4-1.2,0-2.2C3,43.8,3.3,43.4,3.5,43C3.7,42.8,4,42.4,4,42.3c0-0.1-0.1-0.4-0.3-0.8c-0.2-0.4-0.4-0.9-0.5-1.4
	C3,39.1,3,38.3,3,37.5c0-1.3,0-2.3-0.7-3.5c-0.2-0.3-0.4-0.7-0.7-1.1c-0.8-1.1-1.6-2.4-1.7-4s0.5-3.3,1-4.6c0.1-0.2,0.2-0.5,0.2-0.7
	c1.3-3.9,5.2-5.2,8.3-6.3c0.6-0.2,1.2-0.4,1.8-0.6c0.4-0.1,0.7-0.3,1.1-0.4c0.9-0.3,1.7-0.6,2.3-1c0.3-0.2,0.3-0.4,0.4-1.1
	c0.1-0.5,0.2-1,0.4-1.6c0.4-0.8,0.9-1.3,1.4-1.7c0.1-0.1,0.1-0.1,0.2-0.2l0.4-0.4c1.2-1.1,2.5-2.2,3.8-3.3c0.9-0.7,1.9-1.4,3.4-1.5
	c1-0.1,1.8,0.3,2.5,0.5c0.4,0.2,0.7,0.3,1,0.3c0.5,0,1.4-1.2,1.9-1.9c0.3-0.4,0.6-0.8,1-1.2c2-2.1,4.2-2.1,6.2-1.9
	c0.4,0,0.8,0.1,1.3,0.1c1.4,0.1,3,0.1,4.2,0.8c0.8,0.4,1.2,1,1.4,1.7c0.3,1.2-0.3,2.3-0.8,3.2c-0.2,0.4-0.6,1-0.6,1.2
	c0.3,0.7,1.6,1.5,2.5,2c0.4,0.2,0.8,0.5,1.1,0.7c0.9,0.6,1.6,0.8,1.9,0.7c0.2-0.1,0.3-0.4,0.3-0.6c0.3-1.1,0.2-2.3,0.2-3.5
	c-0.1-1.6-0.2-3.5,0.5-5.3c0.8-1.9,1.9-2.1,2.6-2.1c1.2,0,2.3,1.1,2.9,2.8c0.1,0.3,0.2,0.6,0.3,0.9c0.2,0.6,0.3,1.1,0.5,1.5
	c0.1,0.2,0.2,0.3,0.6,0.6c0.4,0.2,0.8,0.5,1.2,1c1,1.1,1.3,2.6,1.6,4c0.1,0.5,0.2,1,0.3,1.4c0.6,1.8,1.6,2.5,3.2,3.7l0.2,0.1
	c1.4,1,1.9,2.3,2.3,3.3c0.3,0.6,0.5,1.2,0.9,1.7l3.1,3.6c0.1,0.1,0.5,0.2,0.8,0.3c0.7,0.1,1.7,0.3,2.3,1.2c0.7,1,0.4,2.2,0.2,3
	c-0.1,0.3-0.2,0.7-0.1,0.8c0.4,1.7,0.4,3.1,0.4,4.7c0,0.3,0,0.6,0,0.9c0.1,0.9,0.1,2-0.2,3c-0.2,0.8-1,1.2-1.8,0.9
	c-0.8-0.2-1.2-1-0.9-1.8c0.1-0.5,0.1-1.3,0.1-2c0-0.4,0-0.7,0-1.1c0-1.5-0.1-2.7-0.4-4.2c-0.2-0.7,0-1.4,0.2-2
	c0-0.2,0.1-0.5,0.1-0.7c-0.1,0-0.3-0.1-0.5-0.1c-0.7-0.1-1.7-0.3-2.4-1.2l-3.1-3.6c-0.7-0.8-1.1-1.7-1.4-2.5c-0.3-0.9-0.6-1.5-1.3-2
	l-0.2-0.1c-1.8-1.3-3.4-2.5-4.3-5.1c-0.2-0.5-0.3-1.1-0.4-1.7c-0.2-1-0.5-2.1-0.9-2.6c-0.1-0.2-0.3-0.3-0.6-0.4
	c-0.5-0.3-1.2-0.7-1.7-1.7c-0.3-0.6-0.5-1.3-0.7-2C52,4.5,51.9,4.2,51.8,4c-0.1-0.2-0.1-0.3-0.2-0.5c-0.5,1.2-0.4,2.5-0.3,4
	c0.1,1.5,0.2,3-0.3,4.5c-0.5,1.6-1.4,2.2-2.1,2.5c-1.7,0.6-3.6-0.4-4.5-1c-0.3-0.2-0.6-0.4-0.9-0.6c-1.4-0.8-3.1-1.8-3.7-3.4
	c-0.5-1.4,0.2-2.7,0.8-3.7c0.2-0.3,0.4-0.7,0.5-0.9l0,0c-0.6-0.3-1.9-0.4-2.9-0.4c-0.6,0-1.1,0-1.6-0.1c-1.9-0.2-2.9,0-3.8,1
	C32.6,5.6,32.3,6,32,6.3c-1,1.3-2.2,2.9-4.1,3c-0.9,0-1.6-0.3-2.2-0.5c-0.5-0.2-0.9-0.3-1.2-0.3c-0.6,0-1.1,0.3-1.9,0.9
	c-1.2,1-2.5,2.1-3.7,3.2L18.5,13c-0.1,0.1-0.2,0.2-0.3,0.2c-0.4,0.3-0.6,0.5-0.7,0.8c0.5,0,0.5,0.3,0.4,0.7
	c-0.1,0.8-0.3,1.9-1.5,2.9c-0.9,0.8-2.1,1.1-3.2,1.5c-0.3,0.1-0.7,0.2-1,0.3c-0.6,0.2-1.3,0.4-1.9,0.7c-2.9,1-5.7,1.9-6.5,4.4
	c-0.1,0.2-0.2,0.5-0.2,0.7c-0.4,1.2-0.9,2.6-0.8,3.6c0,0.8,0.6,1.7,1.2,2.5c0.3,0.4,0.6,0.9,0.8,1.3c1,1.8,1,3.4,1,4.9
	c0,0.7,0,1.4,0.1,2.2c0,0.2,0.1,0.4,0.3,0.7c0.3,0.6,0.6,1.4,0.5,2.4c-0.1,0.8-0.6,1.5-0.9,2c-0.2,0.2-0.3,0.5-0.4,0.6
	c0.3,0.2,0.8,0.3,1.1,0.5C6.7,46,6.9,46,7.1,46.1c1.5,0.6,2.5,0.1,4-0.6c0.6-0.3,1.2-0.6,2-0.8c1.2-0.4,2.3-0.5,3.3-0.5
	c0.5,0,0.9-0.1,1.4-0.1c1.6-0.2,3-0.8,4.8-1.9c3.2-2,6.3-2.7,9.5-2.3c3.9,0.6,6.4,3,8.1,5c0.8,0.9,1.4,1.4,2.3,1.8
	c0,0,0.2,0.1,0.3,0.1c0.4,0.1,1,0.3,1.5,0.8c0.3,0.3,0.4,0.6,0.5,0.8c0.6-0.2,1.5-0.3,2.5,0.3c1,0.7,1.3,1.8,1.6,2.8
	c0.1,0.5,0.3,1,0.5,1.2c0.6,0.8,1.5,1.3,2.7,1.5c0.1,0,0.2,0,0.3,0.1c0.7,0.1,1.2,0.2,1.8,0.8c0.3,0.3,0.5,0.6,0.7,0.9
	c0.2-0.4,0.5-0.8,1-1.1c1.3-0.8,2.3-0.5,3-0.4c0.3,0.1,0.5,0.1,0.7,0.1c0.1,0,0.1,0,0.5-0.4c0.4-0.5,1-1.2,2.1-1.4
	c0.3-0.1,0.7-0.1,0.9-0.2c0.8-0.1,0.9-0.1,1.1-0.5c0.2-0.4,0.3-0.9,0.2-1.6c0-0.1,0-0.2,0-0.3c0-1.6,0.4-2.3,1-3.3l0.1-0.2
	c0.4-0.7,1.2-1,1.9-0.6c0.7,0.4,1,1.2,0.6,1.9l-0.1,0.2c-0.5,0.9-0.6,1.1-0.6,2c0,0.1,0,0.2,0,0.3c0,1,0,2.2-0.7,3.3
	c-1,1.4-2.2,1.6-3.1,1.7c-0.2,0-0.5,0.1-0.7,0.1s-0.3,0.1-0.6,0.5c-0.4,0.5-1.1,1.3-2.5,1.4c-0.6,0-1.1-0.1-1.5-0.2
	c-0.5-0.1-0.6-0.1-0.8,0c-0.1,0.1-0.2,0.3-0.3,0.5c-0.2,0.4-0.5,0.8-0.9,1.2C55.8,59.2,55.3,59.4,54.8,59.4"/>
<path id="Fill-11" class="st0" d="M69.3,43.9c-0.2,0-0.5-0.1-0.7-0.2c-0.6-0.3-1-1.1-0.6-1.9l0,0l0,0l0,0l0,0l0,0l0,0
	c0.4-0.8,1.3-0.9,1.9-0.6c0.6,0.3,1,1.1,0.6,1.9l0,0l0,0l0,0l0,0l0,0l0,0l0,0C70.3,43.7,69.8,43.9,69.3,43.9"/>
</svg>
