<?xml version="1.0" encoding="utf-8"?>
<!-- Generator: Adobe Illustrator 25.0.0, SVG Export Plug-In . SVG Version: 6.00 Build 0)  -->
<svg version="1.1" id="Capa_1" xmlns="http://www.w3.org/2000/svg" xmlns:xlink="http://www.w3.org/1999/xlink" x="0px" y="0px"
	 viewBox="0 0 512 512" style="enable-background:new 0 0 512 512;" xml:space="preserve">
<style type="text/css">
	.st0{fill:#04809F;}
</style>
<g>
	<path class="st0" d="M256,386c42.2,0,85-13.7,85-40v-56.8l40-17.8V376c0,5.5,4.5,10,10,10s10-4.5,10-10V256c0-4.4-2.8-7.8-6.1-9.2
		l-134.8-59.9c-2.6-1.1-5.5-1.1-8.1,0l-135,60c-3.6,1.6-5.9,5.2-5.9,9.1c0,4,2.3,7.5,5.9,9.1l54.1,24V346
		C171,372.3,213.8,386,256,386L256,386z M321,346c0,6-22.1,20-65,20s-65-14-65-20v-47.9l60.9,27.1c1.3,0.6,2.7,0.9,4.1,0.9
		s2.8-0.3,4.1-0.9l60.9-27.1V346z M145.6,256L256,206.9L366.4,256L256,305.1L145.6,256z"/>
	<path class="st0" d="M502,36H10C4.5,36,0,40.5,0,46v420c0,5.5,4.5,10,10,10h201c5.5,0,10-4.5,10-10s-4.5-10-10-10H20V146h472v310
		H301c-5.5,0-10,4.5-10,10s4.5,10,10,10h201c5.5,0,10-4.5,10-10V46C512,40.5,507.5,36,502,36z M492,126H20V56h286v20
		c0,5.5,4.5,10,10,10s10-4.5,10-10V56h40v20c0,5.5,4.5,10,10,10s10-4.5,10-10V56h40v20c0,5.5,4.5,10,10,10s10-4.5,10-10V56h46V126z"
		/>
	<circle class="st0" cx="256" cy="466" r="10"/>
</g>
</svg>
