<?xml version="1.0" encoding="utf-8"?>
<!-- Generator: Adobe Illustrator 25.0.0, SVG Export Plug-In . SVG Version: 6.00 Build 0)  -->
<svg version="1.1" id="Capa_1" xmlns="http://www.w3.org/2000/svg" xmlns:xlink="http://www.w3.org/1999/xlink" x="0px" y="0px"
	 viewBox="0 0 512 512" style="enable-background:new 0 0 512 512;" xml:space="preserve">
<style type="text/css">
	.st0{fill:#04809F;}
</style>
<g>
	<g>
		<path class="st0" d="M503.9,191.6c-5.2-5.2-12.1-8.1-19.4-8.1H448L282.7,87.8c0.5-2.2,0.8-4.4,0.8-6.8c0-15.2-12.3-27.5-27.5-27.5
			c-15.2,0-27.5,12.3-27.5,27.5c0,2.3,0.3,4.6,0.8,6.8L64,183.5H27.5c-7.3,0-14.2,2.9-19.4,8.1S0,203.7,0,211v220
			c0,7.3,2.9,14.2,8.1,19.4s12.1,8.1,19.4,8.1h98.4c4.1,0,7.5-3.4,7.5-7.5c0-4.1-3.4-7.5-7.5-7.5H27.5c-3.3,0-6.4-1.3-8.8-3.7
			c-2.4-2.4-3.7-5.5-3.7-8.8V211c0-3.3,1.3-6.4,3.7-8.8c2.4-2.4,5.5-3.7,8.8-3.7h457c3.3,0,6.4,1.3,8.8,3.7c2.4,2.4,3.7,5.5,3.7,8.8
			v220c0,3.3-1.3,6.4-3.7,8.8c-2.4,2.4-5.5,3.7-8.8,3.7H155.9c-4.1,0-7.5,3.4-7.5,7.5c0,4.1,3.4,7.5,7.5,7.5h328.6
			c7.3,0,14.2-2.9,19.4-8.1s8.1-12.1,8.1-19.4V211C512,203.7,509.1,196.8,503.9,191.6z M256,68.5c6.9,0,12.5,5.6,12.5,12.5
			c0,6.9-5.6,12.5-12.5,12.5c-4.5,0-8.4-2.4-10.6-5.9c-0.1-0.1-0.1-0.2-0.2-0.3c-0.1-0.1-0.2-0.3-0.3-0.4c-0.9-1.7-1.4-3.7-1.4-5.8
			C243.5,74.1,249.1,68.5,256,68.5z M93.9,183.5l143-82.8c5,4.8,11.7,7.8,19.1,7.8c7.4,0,14.2-3,19.1-7.8l143,82.8H93.9z"/>
	</g>
</g>
<g>
	<g>
		<path class="st0" d="M479.8,225.7c-1.4-1.4-3.3-2.2-5.3-2.2c-1.4,0-2.5-1.1-2.5-2.5c0-2-0.8-3.9-2.2-5.3c-1.4-1.4-3.3-2.2-5.3-2.2
			h-34.3c-4.1,0-7.5,3.4-7.5,7.5c0,4.1,3.4,7.5,7.5,7.5h28.5c1.7,3.6,4.7,6.6,8.3,8.3v168.4c-3.6,1.7-6.6,4.7-8.3,8.3H53.3
			c-1.7-3.6-4.7-6.6-8.3-8.3V236.8c3.6-1.7,6.6-4.7,8.3-8.3h346.9c4.1,0,7.5-3.4,7.5-7.5c0-4.1-3.4-7.5-7.5-7.5H47.5
			c-2,0-3.9,0.8-5.3,2.2c-1.4,1.4-2.2,3.3-2.2,5.3c0,1.4-1.1,2.5-2.5,2.5c-2,0-3.9,0.8-5.3,2.2c-1.4,1.4-2.2,3.3-2.2,5.3v180
			c0,2,0.8,3.9,2.2,5.3c1.4,1.4,3.3,2.2,5.3,2.2c1.4,0,2.5,1.1,2.5,2.5c0,2,0.8,3.9,2.2,5.3c1.4,1.4,3.3,2.2,5.3,2.2h417
			c2,0,3.9-0.8,5.3-2.2c1.4-1.4,2.2-3.3,2.2-5.3c0-1.4,1.1-2.5,2.5-2.5c2,0,3.9-0.8,5.3-2.2c1.4-1.4,2.2-3.3,2.2-5.3V231
			C482,229,481.2,227.1,479.8,225.7z"/>
	</g>
</g>
<g>
	<g>
		<path class="st0" d="M126,263.5c-20.7,0-37.5,16.8-37.5,37.5v40c0,20.7,16.8,37.5,37.5,37.5s37.5-16.8,37.5-37.5v-40
			C163.5,280.3,146.7,263.5,126,263.5z M148.5,341c0,12.4-10.1,22.5-22.5,22.5s-22.5-10.1-22.5-22.5v-40c0-12.4,10.1-22.5,22.5-22.5
			c12.4,0,22.5,10.1,22.5,22.5V341z"/>
	</g>
</g>
<g>
	<g>
		<path class="st0" d="M216,263.5h-30c-4.1,0-7.5,3.4-7.5,7.5v100c0,4.1,3.4,7.5,7.5,7.5s7.5-3.4,7.5-7.5v-32.5H216
			c20.7,0,37.5-16.8,37.5-37.5S236.7,263.5,216,263.5z M216,323.5h-22.5v-45H216c12.4,0,22.5,10.1,22.5,22.5S228.4,323.5,216,323.5z
			"/>
	</g>
</g>
<g>
	<g>
		<path class="st0" d="M326,363.5h-42.5v-35H316c4.1,0,7.5-3.4,7.5-7.5s-3.4-7.5-7.5-7.5h-32.5v-35H326c4.1,0,7.5-3.4,7.5-7.5
			s-3.4-7.5-7.5-7.5h-50c-4.1,0-7.5,3.4-7.5,7.5v100c0,4.1,3.4,7.5,7.5,7.5h50c4.1,0,7.5-3.4,7.5-7.5S330.1,363.5,326,363.5z"/>
	</g>
</g>
<g>
	<g>
		<path class="st0" d="M416,263.5c-4.1,0-7.5,3.4-7.5,7.5v72.9l-46.1-76.8c0,0-0.1-0.1-0.1-0.1c-0.1-0.1-0.2-0.2-0.2-0.4
			c-0.1-0.1-0.1-0.2-0.2-0.3c-0.1-0.1-0.1-0.2-0.2-0.3c-0.1-0.1-0.2-0.2-0.3-0.3c-0.1-0.1-0.1-0.1-0.2-0.2c-0.1-0.1-0.2-0.2-0.3-0.3
			c-0.1-0.1-0.1-0.1-0.2-0.2c-0.1-0.1-0.2-0.2-0.3-0.3c-0.1-0.1-0.2-0.1-0.3-0.2c-0.1-0.1-0.2-0.1-0.3-0.2c-0.1-0.1-0.2-0.1-0.3-0.2
			c-0.1-0.1-0.2-0.1-0.3-0.1c-0.1-0.1-0.2-0.1-0.4-0.2c-0.1,0-0.2-0.1-0.3-0.1c-0.1,0-0.3-0.1-0.4-0.1c-0.1,0-0.2-0.1-0.3-0.1
			c-0.1,0-0.3-0.1-0.4-0.1c-0.1,0-0.2,0-0.4-0.1c-0.1,0-0.2,0-0.3,0c-0.1,0-0.3,0-0.4,0c-0.1,0-0.1,0-0.2,0c0,0-0.1,0-0.1,0
			c-0.2,0-0.3,0-0.5,0c-0.1,0-0.2,0-0.3,0c-0.1,0-0.3,0-0.4,0.1c-0.1,0-0.2,0-0.3,0.1c-0.1,0-0.2,0.1-0.4,0.1
			c-0.1,0-0.2,0.1-0.4,0.1c-0.1,0-0.2,0.1-0.3,0.1c-0.1,0-0.3,0.1-0.4,0.2c-0.1,0-0.2,0.1-0.3,0.1c-0.1,0.1-0.3,0.1-0.4,0.2
			c0,0-0.1,0-0.1,0.1c0,0-0.1,0.1-0.1,0.1c-0.1,0.1-0.2,0.2-0.4,0.2c-0.1,0.1-0.2,0.1-0.3,0.2c-0.1,0.1-0.2,0.1-0.3,0.2
			c-0.1,0.1-0.2,0.2-0.3,0.3c-0.1,0.1-0.1,0.1-0.2,0.2c-0.1,0.1-0.2,0.2-0.3,0.3c-0.1,0.1-0.1,0.2-0.2,0.2c-0.1,0.1-0.2,0.2-0.3,0.3
			c-0.1,0.1-0.1,0.2-0.2,0.3c-0.1,0.1-0.1,0.2-0.2,0.3c-0.1,0.1-0.1,0.2-0.2,0.3c-0.1,0.1-0.1,0.2-0.1,0.3c-0.1,0.1-0.1,0.2-0.2,0.4
			c0,0.1-0.1,0.2-0.1,0.3c0,0.1-0.1,0.3-0.1,0.4c0,0.1-0.1,0.2-0.1,0.3c0,0.1-0.1,0.3-0.1,0.4c0,0.1,0,0.2-0.1,0.4
			c0,0.1,0,0.2,0,0.3c0,0.1,0,0.3,0,0.4c0,0.1,0,0.1,0,0.2v100c0,4.1,3.4,7.5,7.5,7.5s7.5-3.4,7.5-7.5v-72.9l46.1,76.8
			c0,0,0,0.1,0.1,0.1c0.1,0.2,0.3,0.4,0.4,0.6c0,0.1,0.1,0.1,0.1,0.2c0.2,0.2,0.4,0.4,0.6,0.6c0.1,0.1,0.1,0.1,0.2,0.2
			c0.1,0.1,0.3,0.3,0.5,0.4c0.1,0.1,0.2,0.1,0.3,0.2c0.2,0.1,0.4,0.3,0.6,0.4c0,0,0.1,0.1,0.1,0.1c0.3,0.1,0.5,0.3,0.8,0.4
			c0.1,0,0.1,0,0.2,0.1c0.2,0.1,0.4,0.2,0.7,0.2c0.1,0,0.2,0,0.2,0.1c0.2,0.1,0.4,0.1,0.7,0.1c0.1,0,0.2,0,0.2,0
			c0.3,0,0.6,0.1,0.8,0.1c0,0,0,0,0,0c0,0,0.1,0,0.1,0c0.3,0,0.5,0,0.8-0.1c0.1,0,0.2,0,0.3,0c0.2,0,0.4-0.1,0.6-0.1
			c0.1,0,0.2,0,0.3-0.1c0.6-0.2,1.2-0.4,1.7-0.7c0,0,0.1,0,0.1,0c0,0,0.1-0.1,0.1-0.1c0.1-0.1,0.2-0.2,0.4-0.2
			c0.1-0.1,0.2-0.1,0.3-0.2c0.1-0.1,0.2-0.1,0.3-0.2c0.1-0.1,0.2-0.2,0.3-0.3c0.1-0.1,0.1-0.1,0.2-0.2c0.1-0.1,0.2-0.2,0.3-0.3
			c0.1-0.1,0.1-0.2,0.2-0.2c0.1-0.1,0.2-0.2,0.3-0.3c0.1-0.1,0.1-0.2,0.2-0.3c0.1-0.1,0.1-0.2,0.2-0.3c0.1-0.1,0.1-0.2,0.2-0.3
			c0.1-0.1,0.1-0.2,0.1-0.3c0.1-0.1,0.1-0.2,0.2-0.4c0-0.1,0.1-0.2,0.1-0.3c0-0.1,0.1-0.3,0.1-0.4c0-0.1,0.1-0.2,0.1-0.3
			c0-0.1,0.1-0.3,0.1-0.4c0-0.1,0-0.2,0.1-0.4c0-0.1,0-0.2,0-0.3c0-0.1,0-0.3,0-0.4c0-0.1,0-0.1,0-0.2V271
			C423.5,266.9,420.1,263.5,416,263.5z"/>
	</g>
</g>
</svg>
