<?xml version="1.0" encoding="utf-8"?>
<!-- Generator: Adobe Illustrator 25.0.0, SVG Export Plug-In . SVG Version: 6.00 Build 0)  -->
<svg version="1.1" id="Calque_1" xmlns="http://www.w3.org/2000/svg" xmlns:xlink="http://www.w3.org/1999/xlink" x="0px" y="0px"
	 viewBox="0 0 61 62" style="enable-background:new 0 0 61 62;" xml:space="preserve">
<style type="text/css">
	.st0{filter:url(#Adobe_OpacityMaskFilter);}
	.st1{fill-rule:evenodd;clip-rule:evenodd;fill:#FFFFFF;}
	.st2{mask:url(#mask-3_1_);fill-rule:evenodd;clip-rule:evenodd;fill:#04809F;}
	.st3{filter:url(#Adobe_OpacityMaskFilter_1_);}
	.st4{mask:url(#mask-6_1_);fill-rule:evenodd;clip-rule:evenodd;fill:#04809F;}
</style>
<defs>
	<filter id="Adobe_OpacityMaskFilter" filterUnits="userSpaceOnUse" x="7.7" y="29.5" width="52.1" height="30.9">
		<feColorMatrix  type="matrix" values="1 0 0 0 0  0 1 0 0 0  0 0 1 0 0  0 0 0 1 0"/>
	</filter>
</defs>
<mask maskUnits="userSpaceOnUse" x="7.7" y="29.5" width="52.1" height="30.9" id="mask-3_1_">
	<g class="st0">
		<path id="path-2_1_" class="st1" d="M33.7,33.8c-3.1,2.9-4.8,6.9-4.8,11.2l0,0v9.6h1.9V45c0-3.7,1.5-7.2,4.2-9.8l0,0
			c2.7-2.6,6.2-3.9,10-3.7l0,0c6.9,0.3,12.5,6,12.9,12.9l0,0c0.2,3.7-1.1,7.3-3.7,10l0,0c0,0-0.1,0.1-0.1,0.1l0,0v-4
			c0-2.5-2-4.5-4.5-4.5l0,0h-0.1c-0.8,0-1.5-0.3-1.9-0.9l0,0c1.6-1,2.7-2.8,2.7-4.9l0,0v-1.9c0-3.2-2.6-5.8-5.8-5.8l0,0
			c-3.2,0-5.8,2.6-5.8,5.8l0,0v1.9c0,2,1.1,3.8,2.7,4.9l0,0c-0.5,0.6-1.2,0.9-1.9,0.9l0,0h-0.1c-2.5,0-4.5,2-4.5,4.5l0,0v4.2
			c0,0.5,0.4,1,1,1l0,0h17c-2.4,1.9-5.3,2.9-8.3,2.9l0,0h-7.7c-9.3,0-16.8-7.3-17.3-16.4l0,0h2.9c0.4,0,0.7-0.2,0.9-0.6l0,0
			c0.1-0.4,0.1-0.8-0.2-1.1l0,0l-6.8-6.8c-0.4-0.4-1-0.4-1.4,0l0,0L8,40.4c-0.3,0.3-0.4,0.7-0.2,1.1l0,0c0.1,0.4,0.5,0.6,0.9,0.6
			l0,0h2.9c0.5,10.2,9,18.3,19.3,18.3l0,0h13.5c4.3,0,8.2-1.7,11.2-4.8l0,0c2.8-2.9,4.3-6.7,4.3-10.6l0,0v0c0-0.2,0-0.5,0-0.7l0,0
			c-0.4-7.9-6.8-14.3-14.7-14.7l0,0c-0.2,0-0.5,0-0.7,0l0,0C40.4,29.5,36.6,31,33.7,33.8L33.7,33.8z M40.5,40.1v-1.9
			c0-2.1,1.7-3.9,3.9-3.9l0,0c2.1,0,3.9,1.7,3.9,3.9l0,0v1.9c0,2.1-1.7,3.9-3.9,3.9l0,0C42.3,44,40.5,42.3,40.5,40.1L40.5,40.1z
			 M15.4,35.7l4.4,4.4h-1.5c-0.5,0-1,0.4-1,1l0,0c0,7.4,4.2,13.8,10.3,17.1l0,0c-8.1-1.5-14.2-8.6-14.2-17.1l0,0c0-0.5-0.4-1-1-1
			l0,0H11L15.4,35.7z M45.7,45.8c0.3,0.5,0.7,0.9,1.1,1.2l0,0c-0.7,0.6-1.5,0.9-2.4,0.9l0,0c-0.9,0-1.7-0.3-2.4-0.9l0,0
			c0.4-0.3,0.8-0.7,1.1-1.2l0,0c0.4,0.1,0.8,0.2,1.3,0.2l0,0C44.8,45.9,45.3,45.9,45.7,45.8L45.7,45.8z M48.4,48.1l0.3-0.3
			c0.2,0,0.5,0.1,0.7,0.1l0,0h0.1c1.4,0,2.5,1.1,2.5,2.5l0,0v3.3h-1.9v-1.9h-1.9v1.9h-7.7v-1.9h-1.9v1.9h-1.9v-3.3
			c0-1.4,1.1-2.5,2.5-2.5l0,0h0.1c0.2,0,0.5,0,0.7-0.1l0,0l0.3,0.3c1,1,2.5,1.6,4,1.6l0,0C45.9,49.8,47.3,49.2,48.4,48.1L48.4,48.1z
			"/>
	</g>
</mask>
<path id="Fill-1" class="st2" d="M33.7,33.8c-3.1,2.9-4.8,6.9-4.8,11.2l0,0v9.6h1.9V45c0-3.7,1.5-7.2,4.2-9.8l0,0
	c2.7-2.6,6.2-3.9,10-3.7l0,0c6.9,0.3,12.5,6,12.9,12.9l0,0c0.2,3.7-1.1,7.3-3.7,10l0,0c0,0-0.1,0.1-0.1,0.1l0,0v-4
	c0-2.5-2-4.5-4.5-4.5l0,0h-0.1c-0.8,0-1.5-0.3-1.9-0.9l0,0c1.6-1,2.7-2.8,2.7-4.9l0,0v-1.9c0-3.2-2.6-5.8-5.8-5.8l0,0
	c-3.2,0-5.8,2.6-5.8,5.8l0,0v1.9c0,2,1.1,3.8,2.7,4.9l0,0c-0.5,0.6-1.2,0.9-1.9,0.9l0,0h-0.1c-2.5,0-4.5,2-4.5,4.5l0,0v4.2
	c0,0.5,0.4,1,1,1l0,0h17c-2.4,1.9-5.3,2.9-8.3,2.9l0,0h-7.7c-9.3,0-16.8-7.3-17.3-16.4l0,0h2.9c0.4,0,0.7-0.2,0.9-0.6l0,0
	c0.1-0.4,0.1-0.8-0.2-1.1l0,0l-6.8-6.8c-0.4-0.4-1-0.4-1.4,0l0,0L8,40.4c-0.3,0.3-0.4,0.7-0.2,1.1l0,0c0.1,0.4,0.5,0.6,0.9,0.6l0,0
	h2.9c0.5,10.2,9,18.3,19.3,18.3l0,0h13.5c4.3,0,8.2-1.7,11.2-4.8l0,0c2.8-2.9,4.3-6.7,4.3-10.6l0,0v0c0-0.2,0-0.5,0-0.7l0,0
	c-0.4-7.9-6.8-14.3-14.7-14.7l0,0c-0.2,0-0.5,0-0.7,0l0,0C40.4,29.5,36.6,31,33.7,33.8L33.7,33.8z M40.5,40.1v-1.9
	c0-2.1,1.7-3.9,3.9-3.9l0,0c2.1,0,3.9,1.7,3.9,3.9l0,0v1.9c0,2.1-1.7,3.9-3.9,3.9l0,0C42.3,44,40.5,42.3,40.5,40.1L40.5,40.1z
	 M15.4,35.7l4.4,4.4h-1.5c-0.5,0-1,0.4-1,1l0,0c0,7.4,4.2,13.8,10.3,17.1l0,0c-8.1-1.5-14.2-8.6-14.2-17.1l0,0c0-0.5-0.4-1-1-1l0,0
	H11L15.4,35.7z M45.7,45.8c0.3,0.5,0.7,0.9,1.1,1.2l0,0c-0.7,0.6-1.5,0.9-2.4,0.9l0,0c-0.9,0-1.7-0.3-2.4-0.9l0,0
	c0.4-0.3,0.8-0.7,1.1-1.2l0,0c0.4,0.1,0.8,0.2,1.3,0.2l0,0C44.8,45.9,45.3,45.9,45.7,45.8L45.7,45.8z M48.4,48.1l0.3-0.3
	c0.2,0,0.5,0.1,0.7,0.1l0,0h0.1c1.4,0,2.5,1.1,2.5,2.5l0,0v3.3h-1.9v-1.9h-1.9v1.9h-7.7v-1.9h-1.9v1.9h-1.9v-3.3
	c0-1.4,1.1-2.5,2.5-2.5l0,0h0.1c0.2,0,0.5,0,0.7-0.1l0,0l0.3,0.3c1,1,2.5,1.6,4,1.6l0,0C45.9,49.8,47.3,49.2,48.4,48.1L48.4,48.1z"
	/>
<defs>
	<filter id="Adobe_OpacityMaskFilter_1_" filterUnits="userSpaceOnUse" x="0" y="0.6" width="52.1" height="30.9">
		<feColorMatrix  type="matrix" values="1 0 0 0 0  0 1 0 0 0  0 0 1 0 0  0 0 0 1 0"/>
	</filter>
</defs>
<mask maskUnits="userSpaceOnUse" x="0" y="0.6" width="52.1" height="30.9" id="mask-6_1_">
	<g class="st3">
		<path id="path-5_1_" class="st1" d="M15.4,0.6c-4.3,0-8.2,1.7-11.2,4.8l0,0C1.5,8.2,0,12,0,16l0,0v0c0,0.2,0,0.5,0,0.7l0,0
			c0.4,7.9,6.8,14.3,14.7,14.7l0,0c0.2,0,0.5,0,0.7,0l0,0c4,0,7.8-1.5,10.7-4.3l0,0c3.1-2.9,4.8-6.9,4.8-11.2l0,0V6.4h-1.9V16
			c0,3.6-1.4,6.9-3.9,9.4l0,0v-4c0-2.5-2-4.5-4.5-4.5l0,0h-0.1c-0.8,0-1.5-0.3-1.9-0.9l0,0c1.6-1,2.7-2.8,2.7-4.9l0,0V9.3
			c0-3.2-2.6-5.8-5.8-5.8l0,0c-3.2,0-5.8,2.6-5.8,5.8l0,0v1.9c0,2,1.1,3.8,2.7,4.9l0,0c-0.5,0.6-1.2,0.9-1.9,0.9l0,0h-0.1
			c-2.5,0-4.5,2-4.5,4.5l0,0v4c-2.2-2.3-3.7-5.4-3.8-8.8l0,0c-0.2-3.7,1.1-7.3,3.7-10l0,0c2.6-2.7,6-4.2,9.8-4.2l0,0h7.7
			c9.3,0,16.8,7.3,17.3,16.4l0,0h-2.9c-0.4,0-0.7,0.2-0.9,0.6l0,0c-0.1,0.4-0.1,0.8,0.2,1.1l0,0l6.8,6.8c0.4,0.4,1,0.4,1.4,0l0,0
			l6.8-6.8c0.3-0.3,0.4-0.7,0.2-1.1l0,0c-0.1-0.4-0.5-0.6-0.9-0.6l0,0h-2.9c-0.5-10.2-9-18.3-19.3-18.3l0,0H15.4z M40,20.8h1.5
			c0.5,0,1-0.4,1-1l0,0c0-7.4-4.2-13.8-10.3-17.1l0,0c8.1,1.5,14.2,8.6,14.2,17.1l0,0c0,0.5,0.4,1,1,1l0,0h1.5l-4.4,4.4L40,20.8z
			 M11.6,11.2V9.3c0-2.1,1.7-3.9,3.9-3.9l0,0c2.1,0,3.9,1.7,3.9,3.9l0,0v1.9c0,2.1-1.7,3.9-3.9,3.9l0,0C13.3,15,11.6,13.3,11.6,11.2
			L11.6,11.2z M16.7,16.8c0.3,0.5,0.7,0.9,1.1,1.2l0,0c-0.7,0.6-1.5,0.9-2.4,0.9l0,0c-0.9,0-1.7-0.3-2.4-0.9l0,0
			c0.4-0.3,0.8-0.7,1.1-1.2l0,0c0.4,0.1,0.8,0.2,1.3,0.2l0,0C15.9,17,16.3,16.9,16.7,16.8L16.7,16.8z M19.4,19.2l0.3-0.3
			c0.2,0,0.5,0.1,0.7,0.1l0,0h0.1c1.4,0,2.5,1.1,2.5,2.5l0,0v3.3h-1.9v-1.9h-1.9v1.9h-7.7v-1.9H9.6v1.9H7.7v-3.3
			c0-1.4,1.1-2.5,2.5-2.5l0,0h0.1c0.2,0,0.5,0,0.7-0.1l0,0l0.3,0.3c1,1,2.5,1.6,4,1.6l0,0C16.9,20.8,18.4,20.2,19.4,19.2L19.4,19.2z
			 M14.8,29.5c-2.9-0.1-5.5-1.2-7.7-2.9l0,0h16.6c-2.4,1.9-5.3,2.9-8.4,2.9l0,0C15.2,29.5,15,29.5,14.8,29.5L14.8,29.5z"/>
	</g>
</mask>
<path id="Fill-4" class="st4" d="M15.4,0.6c-4.3,0-8.2,1.7-11.2,4.8l0,0C1.5,8.2,0,12,0,16l0,0v0c0,0.2,0,0.5,0,0.7l0,0
	c0.4,7.9,6.8,14.3,14.7,14.7l0,0c0.2,0,0.5,0,0.7,0l0,0c4,0,7.8-1.5,10.7-4.3l0,0c3.1-2.9,4.8-6.9,4.8-11.2l0,0V6.4h-1.9V16
	c0,3.6-1.4,6.9-3.9,9.4l0,0v-4c0-2.5-2-4.5-4.5-4.5l0,0h-0.1c-0.8,0-1.5-0.3-1.9-0.9l0,0c1.6-1,2.7-2.8,2.7-4.9l0,0V9.3
	c0-3.2-2.6-5.8-5.8-5.8l0,0c-3.2,0-5.8,2.6-5.8,5.8l0,0v1.9c0,2,1.1,3.8,2.7,4.9l0,0c-0.5,0.6-1.2,0.9-1.9,0.9l0,0h-0.1
	c-2.5,0-4.5,2-4.5,4.5l0,0v4c-2.2-2.3-3.7-5.4-3.8-8.8l0,0c-0.2-3.7,1.1-7.3,3.7-10l0,0c2.6-2.7,6-4.2,9.8-4.2l0,0h7.7
	c9.3,0,16.8,7.3,17.3,16.4l0,0h-2.9c-0.4,0-0.7,0.2-0.9,0.6l0,0c-0.1,0.4-0.1,0.8,0.2,1.1l0,0l6.8,6.8c0.4,0.4,1,0.4,1.4,0l0,0
	l6.8-6.8c0.3-0.3,0.4-0.7,0.2-1.1l0,0c-0.1-0.4-0.5-0.6-0.9-0.6l0,0h-2.9c-0.5-10.2-9-18.3-19.3-18.3l0,0H15.4z M40,20.8h1.5
	c0.5,0,1-0.4,1-1l0,0c0-7.4-4.2-13.8-10.3-17.1l0,0c8.1,1.5,14.2,8.6,14.2,17.1l0,0c0,0.5,0.4,1,1,1l0,0h1.5l-4.4,4.4L40,20.8z
	 M11.6,11.2V9.3c0-2.1,1.7-3.9,3.9-3.9l0,0c2.1,0,3.9,1.7,3.9,3.9l0,0v1.9c0,2.1-1.7,3.9-3.9,3.9l0,0C13.3,15,11.6,13.3,11.6,11.2
	L11.6,11.2z M16.7,16.8c0.3,0.5,0.7,0.9,1.1,1.2l0,0c-0.7,0.6-1.5,0.9-2.4,0.9l0,0c-0.9,0-1.7-0.3-2.4-0.9l0,0
	c0.4-0.3,0.8-0.7,1.1-1.2l0,0c0.4,0.1,0.8,0.2,1.3,0.2l0,0C15.9,17,16.3,16.9,16.7,16.8L16.7,16.8z M19.4,19.2l0.3-0.3
	c0.2,0,0.5,0.1,0.7,0.1l0,0h0.1c1.4,0,2.5,1.1,2.5,2.5l0,0v3.3h-1.9v-1.9h-1.9v1.9h-7.7v-1.9H9.6v1.9H7.7v-3.3
	c0-1.4,1.1-2.5,2.5-2.5l0,0h0.1c0.2,0,0.5,0,0.7-0.1l0,0l0.3,0.3c1,1,2.5,1.6,4,1.6l0,0C16.9,20.8,18.4,20.2,19.4,19.2L19.4,19.2z
	 M14.8,29.5c-2.9-0.1-5.5-1.2-7.7-2.9l0,0h16.6c-2.4,1.9-5.3,2.9-8.4,2.9l0,0C15.2,29.5,15,29.5,14.8,29.5L14.8,29.5z"/>
</svg>
