<?xml version="1.0" encoding="utf-8"?>
<!-- Generator: Adobe Illustrator 25.0.0, SVG Export Plug-In . SVG Version: 6.00 Build 0)  -->
<svg version="1.1" id="Calque_1" xmlns="http://www.w3.org/2000/svg" xmlns:xlink="http://www.w3.org/1999/xlink" x="0px" y="0px"
	 viewBox="0 0 80 62" style="enable-background:new 0 0 80 62;" xml:space="preserve">
<style type="text/css">
	.st0{fill-rule:evenodd;clip-rule:evenodd;fill:#04809F;}
	.st1{filter:url(#Adobe_OpacityMaskFilter);}
	.st2{fill-rule:evenodd;clip-rule:evenodd;fill:#FFFFFF;}
	.st3{mask:url(#mask-3_1_);fill-rule:evenodd;clip-rule:evenodd;fill:#04809F;}
	.st4{filter:url(#Adobe_OpacityMaskFilter_1_);}
	.st5{mask:url(#mask-5_1_);fill-rule:evenodd;clip-rule:evenodd;fill:#04809F;}
</style>
<path id="Fill-37" class="st0" d="M69.2,13.4c0,0.4-0.3,0.8-0.8,0.8H52.9c-0.4,0-0.8-0.3-0.8-0.8s0.3-0.8,0.8-0.8h15.6
	C68.9,12.6,69.2,13,69.2,13.4"/>
<path id="Fill-39" class="st0" d="M76,13.4c0,0.4-0.3,0.8-0.8,0.8h-3.1c-0.4,0-0.8-0.3-0.8-0.8s0.3-0.8,0.8-0.8h3.1
	C75.6,12.6,76,13,76,13.4"/>
<defs>
	<filter id="Adobe_OpacityMaskFilter" filterUnits="userSpaceOnUse" x="41.8" y="15.6" width="37.5" height="45.3">
		<feColorMatrix  type="matrix" values="1 0 0 0 0  0 1 0 0 0  0 0 1 0 0  0 0 0 1 0"/>
	</filter>
</defs>
<mask maskUnits="userSpaceOnUse" x="41.8" y="15.6" width="37.5" height="45.3" id="mask-3_1_">
	<g class="st1">
		<polygon id="path-2_1_" class="st2" points="41.8,15.6 79.3,15.6 79.3,60.9 41.8,60.9 		"/>
	</g>
</mask>
<path id="Fill-41" class="st3" d="M79.3,16.4v42.2c0,1.3-1,2.3-2.3,2.3H44.1c-1.3,0-2.3-1-2.3-2.3V16.4c0-0.4,0.3-0.8,0.8-0.8
	s0.8,0.3,0.8,0.8v42.2c0,0.4,0.3,0.7,0.7,0.7H77c0.4,0,0.7-0.3,0.7-0.7V16.4c0-0.4,0.3-0.8,0.8-0.8C78.9,15.6,79.3,16,79.3,16.4"/>
<path id="Fill-44" class="st0" d="M27.4,3.9c0,0.4-0.3,0.8-0.8,0.8H11.1c-0.4,0-0.8-0.3-0.8-0.8s0.3-0.8,0.8-0.8h15.6
	C27.1,3.1,27.4,3.5,27.4,3.9"/>
<path id="Fill-46" class="st0" d="M34.2,3.9c0,0.4-0.3,0.8-0.8,0.8h-3.1c-0.4,0-0.8-0.3-0.8-0.8s0.3-0.8,0.8-0.8h3.1
	C33.8,3.1,34.2,3.5,34.2,3.9"/>
<path id="Fill-48" class="st0" d="M37.5,6.9v42.2c0,1.3-1,2.3-2.3,2.3H2.3c-1.3,0-2.3-1-2.3-2.3V6.9c0-0.4,0.3-0.8,0.8-0.8
	c0.4,0,0.8,0.3,0.8,0.8v42.2c0,0.4,0.3,0.7,0.7,0.7h32.9c0.4,0,0.7-0.3,0.7-0.7V6.9c0-0.4,0.3-0.8,0.8-0.8
	C37.1,6.1,37.5,6.4,37.5,6.9"/>
<path id="Fill-50" class="st0" d="M43.3,15.6v-3.7c0-0.4,0.3-0.7,0.7-0.7H77c0.4,0,0.7,0.3,0.7,0.7v3.7H43.3z M77,9.7H44.1
	c-1.3,0-2.3,1-2.3,2.3v4.4c0,0.4,0.3,0.8,0.8,0.8h35.9c0.4,0,0.8-0.3,0.8-0.8v-4.4C79.3,10.7,78.2,9.7,77,9.7L77,9.7z"/>
<defs>
	<filter id="Adobe_OpacityMaskFilter_1_" filterUnits="userSpaceOnUse" x="0" y="0.2" width="37.5" height="7.5">
		<feColorMatrix  type="matrix" values="1 0 0 0 0  0 1 0 0 0  0 0 1 0 0  0 0 0 1 0"/>
	</filter>
</defs>
<mask maskUnits="userSpaceOnUse" x="0" y="0.2" width="37.5" height="7.5" id="mask-5_1_">
	<g class="st4">
		<polygon id="path-4_1_" class="st2" points="0,0.2 37.5,0.2 37.5,7.6 0,7.6 		"/>
	</g>
</mask>
<path id="Fill-52" class="st5" d="M1.5,6.1V2.4c0-0.4,0.3-0.7,0.7-0.7h32.9c0.4,0,0.7,0.3,0.7,0.7v3.7H1.5z M35.2,0.2H2.3
	C1,0.2,0,1.2,0,2.4v4.4c0,0.4,0.3,0.8,0.8,0.8h35.9c0.4,0,0.8-0.3,0.8-0.8V2.4C37.5,1.2,36.4,0.2,35.2,0.2L35.2,0.2z"/>
<path id="Fill-55" class="st0" d="M60.5,47.7c-6,0-10.9-4.9-10.9-10.9c0-6,4.9-10.9,10.9-10.9c6,0,10.9,4.9,10.9,10.9
	C71.4,42.8,66.5,47.7,60.5,47.7 M60.5,24.4c-6.9,0-12.4,5.6-12.4,12.4c0,6.9,5.6,12.4,12.4,12.4c6.9,0,12.4-5.6,12.4-12.4
	C73,30,67.4,24.4,60.5,24.4"/>
<path id="Fill-57" class="st0" d="M18.7,38.2c-6,0-10.9-4.9-10.9-10.9c0-6,4.9-10.9,10.9-10.9s10.9,4.9,10.9,10.9
	C29.6,33.3,24.7,38.2,18.7,38.2 M18.7,14.9c-6.9,0-12.4,5.6-12.4,12.4c0,6.9,5.6,12.4,12.4,12.4c6.9,0,12.4-5.6,12.4-12.4
	C31.2,20.4,25.6,14.9,18.7,14.9"/>
<path id="Fill-59" class="st0" d="M67,34.7l-7,7c-0.2,0.2-0.4,0.3-0.7,0.3c-0.3,0-0.5-0.1-0.7-0.3l-3.9-3.9
	c-0.2-0.2-0.3-0.4-0.3-0.7c0-0.3,0.1-0.5,0.3-0.7c0.2-0.2,0.4-0.3,0.7-0.3c0.3,0,0.5,0.1,0.7,0.3l2.7,2.7c0.3,0.3,0.8,0.3,1.1,0
	l5.8-5.8c0.4-0.4,1-0.4,1.4,0c0.2,0.2,0.3,0.4,0.3,0.7C67.3,34.3,67.2,34.5,67,34.7 M68.1,32.2c-0.5-0.5-1.1-0.7-1.8-0.7
	c-0.7,0-1.3,0.3-1.8,0.7l-5.2,5.2l-2.2-2.1c-0.5-0.5-1.1-0.7-1.8-0.7c-0.7,0-1.3,0.3-1.8,0.7c-1,1-1,2.6,0,3.6l3.9,3.9
	c0.5,0.5,1.1,0.7,1.8,0.7c0.7,0,1.3-0.3,1.8-0.7l7-7c0.5-0.5,0.7-1.1,0.7-1.8C68.9,33.3,68.6,32.7,68.1,32.2"/>
<path id="Fill-61" class="st0" d="M23.5,32.1c-0.3,0.3-0.9,0.3-1.3,0l-3-3c-0.1-0.1-0.3-0.2-0.5-0.2c-0.2,0-0.4,0.1-0.5,0.2l-3,3
	c-0.3,0.3-0.9,0.3-1.3,0c-0.3-0.3-0.3-0.9,0-1.3l3-3c0.1-0.1,0.2-0.3,0.2-0.5c0-0.2-0.1-0.4-0.2-0.5l-3-3c-0.3-0.3-0.3-0.9,0-1.3
	c0.3-0.3,0.9-0.3,1.3,0l3,3c0.3,0.3,0.8,0.3,1.1,0l3-3c0.3-0.3,0.9-0.3,1.3,0c0.2,0.2,0.3,0.4,0.3,0.6c0,0.2-0.1,0.5-0.3,0.6l-3,3
	c-0.3,0.3-0.3,0.8,0,1.1l3,3c0.2,0.2,0.3,0.4,0.3,0.6C23.8,31.7,23.7,31.9,23.5,32.1L23.5,32.1z M22.2,27.3l2.4-2.4
	c0.5-0.5,0.7-1.1,0.7-1.7c0-0.6-0.3-1.3-0.7-1.7c-0.5-0.5-1.1-0.7-1.7-0.7c-0.7,0-1.3,0.3-1.7,0.7l-2.4,2.4l-2.4-2.4
	c-0.9-0.9-2.5-0.9-3.4,0c-0.9,0.9-0.9,2.5,0,3.4l2.4,2.4l-2.4,2.4c-0.9,0.9-0.9,2.5,0,3.4c0.9,0.9,2.5,0.9,3.4,0l2.4-2.4l2.4,2.4
	c0.5,0.5,1.1,0.7,1.7,0.7c0.7,0,1.3-0.3,1.7-0.7c0.5-0.5,0.7-1.1,0.7-1.7c0-0.7-0.3-1.3-0.7-1.7L22.2,27.3z"/>
<path id="Fill-63" class="st0" d="M49.7,10.6v5.5c0,0.1,0,0.2,0,0.2c-0.1,0.3-0.4,0.6-0.7,0.6c-0.4,0-0.6-0.2-0.7-0.6
	c0-0.1,0-0.1,0-0.2v-5.5c0-0.1,0-0.1,0-0.2c0.1-0.3,0.4-0.6,0.7-0.6s0.7,0.2,0.7,0.6C49.7,10.5,49.7,10.6,49.7,10.6"/>
<path id="Fill-65" class="st0" d="M7.9,1.2v5.4c0,0.1,0,0.2,0,0.2C7.8,7.2,7.5,7.4,7.1,7.4S6.5,7.2,6.4,6.9c0-0.1,0-0.2,0-0.2V1.2
	c0-0.1,0-0.2,0.1-0.3c0.1-0.3,0.4-0.5,0.7-0.5c0.3,0,0.6,0.2,0.7,0.5C7.9,1,7.9,1.1,7.9,1.2"/>
</svg>
