<?xml version="1.0" encoding="utf-8"?>
<!-- Generator: Adobe Illustrator 25.0.0, SVG Export Plug-In . SVG Version: 6.00 Build 0)  -->
<svg version="1.1" id="Capa_1" xmlns="http://www.w3.org/2000/svg" xmlns:xlink="http://www.w3.org/1999/xlink" x="0px" y="0px"
	 viewBox="0 0 480 480" style="enable-background:new 0 0 480 480;" xml:space="preserve">
<style type="text/css">
	.st0{fill:#04809F;}
</style>
<g>
	<g>
		<path class="st0" d="M480,360V136c0-22.1-17.9-40-40-40h-88V0h-16v184c0,4.4,3.6,8,8,8h27.1L240,270.7L108.9,192H136
			c4.4,0,8-3.6,8-8V0h-16v96H40c-22.1,0-40,17.9-40,40v224c0,22.1,17.9,40,40,40h131.1l-16,32H8c-4.4,0-8,3.6-8,8
			c0,40,42.2,40,56,40h368c13.8,0,56,0,56-40c0-4.4-3.6-8-8-8H324.9l-16-32H440C462.1,400,480,382.1,480,360z M128,176H80
			c-4.4,0-8,3.6-8,8c0,2.8,1.5,5.4,3.9,6.9l160,96c2.5,1.5,5.7,1.5,8.2,0l160-96c3.8-2.3,5-7.2,2.7-11c-1.4-2.4-4-3.9-6.9-3.9h-48
			v-32h80v192H48V144h80V176z M463,448c-2.8,9.8-12.4,16-39,16H56c-26.6,0-36.2-6.2-39-16H463z M172.9,432l16-32h102.1l16,32H172.9z
			 M40,384c-13.3,0-24-10.7-24-24V136c0-13.3,10.7-24,24-24h88v16H40c-4.4,0-8,3.6-8,8v208c0,4.4,3.6,8,8,8h400c4.4,0,8-3.6,8-8V136
			c0-4.4-3.6-8-8-8h-88v-16h88c13.3,0,24,10.7,24,24v224c0,13.3-10.7,24-24,24H40z"/>
	</g>
</g>
<g>
	<g>
		<path class="st0" d="M274.9,120.4c12.5-9.8,20.2-24.5,21.1-40.4c0-52.9-30.5-64-56-64s-56,11.1-56,64c0.9,15.9,8.6,30.6,21.1,40.4
			c-21.2,2.6-37.1,20.6-37.1,42V192h16v-29.6c0-14.6,11.8-26.4,26.4-26.4h59.2c14.6,0,26.4,11.8,26.4,26.4V192h16v-29.6
			C312,141,296.1,123,274.9,120.4z M200.4,71.5C202.6,44.7,215.2,32,240,32c22.7,0,35.2,10.7,38.8,33.1l-26.7-16
			c-3.8-2.3-8.7-1-11,2.7c-0.3,0.5-0.5,1-0.7,1.6C236.4,65.6,214.5,70.2,200.4,71.5z M240,120c-17.8-3-32.7-15.4-38.9-32.4v0
			c13.7-1.1,38.4-5.3,49.9-20.4l28.6,17.2C276.4,103.9,252.3,120,240,120z"/>
	</g>
</g>
<g>
	<g>
		<polygon class="st0" points="400,288 400,272 384,272 384,288 368,288 368,304 384,304 384,320 400,320 400,304 416,304 416,288 
					"/>
	</g>
</g>
</svg>
