<?xml version="1.0" encoding="utf-8"?>
<!-- Generator: Adobe Illustrator 25.0.0, SVG Export Plug-In . SVG Version: 6.00 Build 0)  -->
<svg version="1.1" id="Calque_1" xmlns="http://www.w3.org/2000/svg" xmlns:xlink="http://www.w3.org/1999/xlink" x="0px" y="0px"
	 viewBox="0 0 61 61" style="enable-background:new 0 0 61 61;" xml:space="preserve">
<style type="text/css">
	.st0{fill-rule:evenodd;clip-rule:evenodd;fill:#04809F;}
	.st1{filter:url(#Adobe_OpacityMaskFilter);}
	.st2{fill-rule:evenodd;clip-rule:evenodd;fill:#FFFFFF;}
	.st3{mask:url(#mask-3_1_);fill-rule:evenodd;clip-rule:evenodd;fill:#04809F;}
</style>
<path id="Fill-1" class="st0" d="M46.8,29.7c0.5,0,0.9-0.4,0.9-0.9v-1.2c0-0.5-0.4-0.9-0.9-0.9c-0.5,0-0.9,0.4-0.9,0.9v1.2
	C45.9,29.3,46.3,29.7,46.8,29.7"/>
<path id="Fill-3" class="st0" d="M53.8,29.7c0.5,0,0.9-0.4,0.9-0.9v-1.2c0-0.5-0.4-0.9-0.9-0.9c-0.5,0-0.9,0.4-0.9,0.9v1.2
	C52.9,29.3,53.3,29.7,53.8,29.7"/>
<path id="Fill-5" class="st0" d="M7.1,29.7c0.5,0,0.9-0.4,0.9-0.9v-1.2c0-0.5-0.4-0.9-0.9-0.9s-0.9,0.4-0.9,0.9v1.2
	C6.2,29.3,6.6,29.7,7.1,29.7"/>
<path id="Fill-7" class="st0" d="M14.2,29.7c0.5,0,0.9-0.4,0.9-0.9v-1.2c0-0.5-0.4-0.9-0.9-0.9s-0.9,0.4-0.9,0.9v1.2
	C13.3,29.3,13.7,29.7,14.2,29.7"/>
<path id="Fill-9" class="st0" d="M25.7,28.2c0.5,0,0.9-0.4,0.9-0.9v-1.5c0-0.5-0.4-0.9-0.9-0.9c-0.5,0-0.9,0.4-0.9,0.9v1.5
	C24.8,27.8,25.2,28.2,25.7,28.2"/>
<path id="Fill-11" class="st0" d="M34.8,28.2c0.5,0,0.9-0.4,0.9-0.9v-1.5c0-0.5-0.4-0.9-0.9-0.9c-0.5,0-0.9,0.4-0.9,0.9v1.5
	C33.9,27.8,34.3,28.2,34.8,28.2"/>
<path id="Fill-13" class="st0" d="M30.2,33.1c1.6,0,2.9-1.2,2.9-2.7c0-0.5-0.4-0.9-0.9-0.9c-0.5,0-0.9,0.4-0.9,0.9
	c0,0.5-0.5,0.9-1.1,0.9s-1.1-0.4-1.1-0.9c0-0.5-0.4-0.9-0.9-0.9s-0.9,0.4-0.9,0.9C27.4,31.8,28.7,33.1,30.2,33.1"/>
<defs>
	<filter id="Adobe_OpacityMaskFilter" filterUnits="userSpaceOnUse" x="0" y="0" width="61" height="61">
		<feColorMatrix  type="matrix" values="1 0 0 0 0  0 1 0 0 0  0 0 1 0 0  0 0 0 1 0"/>
	</filter>
</defs>
<mask maskUnits="userSpaceOnUse" x="0" y="0" width="61" height="61" id="mask-3_1_">
	<g class="st1">
		<polygon id="path-2_1_" class="st2" points="0,0 61,0 61,61 0,61 		"/>
	</g>
</mask>
<path id="Fill-15" class="st3" d="M59.2,46.5H53h-0.1L52.2,43l0.2-0.9c0.1,0,0.3-0.1,0.4-0.2c0,0,0,0,0,0l3.3-2.5c0.8,0,0.8,0,1,0
	c1.1,0.2,2,1.2,2,2.3V46.5z M52.7,38.7l0.7-0.5l0.8,0.5L52.4,40l-0.7-0.7L52.7,38.7z M49.7,49.8c-5.7,5.7-13.6,8.6-21.7,7.9
	c0,0,0,0-0.1,0c-0.5-0.1-0.9,0.2-1,0.7l-0.1,0.2l-2.3-2.3l3-1.1c-0.1,0.5,0.3,1,0.8,1.1c7.8,0.6,15.3-2.3,20.7-8h1.9
	C50.7,48.8,50.2,49.3,49.7,49.8L49.7,49.8z M33.3,50.2l-0.9-4.7l0.3-1.4c0.2,0,0.4-0.1,0.5-0.2l4.3-3.2h0.9c0.7,0,1.3,0.2,1.8,0.5
	c0.9,0.6,1.5,1.6,1.5,2.7v6.2H33.3z M34.1,39.1l1.5,0.8L32.8,42l-1.2-1.3L34.1,39.1z M29,50.2l0.8-3.9h1l0.8,3.9H29z M27.6,42
	l-2.8-2.1l1.5-0.8l2.5,1.7L27.6,42z M21.9,38.9c-0.5,0-1.1,0.1-1.6,0.2c-0.8-0.9-1.9-1.5-3.2-1.5h-0.7l-1.9-1v-0.6
	c1.9-1.1,3.4-2.9,4-5.1c0.7-0.1,1.3-0.5,1.8-1c0.7,2.8,2.6,5.2,5.1,6.5v1.1l-2.6,1.4H21.9z M16.9,44v2.5h-3.6L12.5,43l0.2-0.9
	c0.1,0,0.3-0.1,0.4-0.2c0,0,0,0,0,0l3.3-2.5h0.7c0.6,0,1.1,0.2,1.6,0.6C17.5,41,16.9,42.5,16.9,44L16.9,44z M14.3,48.3h2.5v2
	C16,49.7,15.1,49,14.3,48.3L14.3,48.3z M17.5,53.5c-0.1,0.5-0.7,0.7-1.1,0.4c-2.5-1.5-4.7-3.4-6.6-5.6h1.9c1.6,1.7,3.4,3.2,5.4,4.4
	v0C17.5,52.8,17.6,53.2,17.5,53.5L17.5,53.5z M8.6,40l-1.8-1.4l0.8-0.5l1.7,1.1L8.6,40z M8.1,46.5H1.8v-4.7c0-1.2,0.9-2.2,2-2.3
	c0,0,0.1,0,0.1,0c0.2,0,0.2,0,0.9,0L8.2,42c0,0,0,0,0,0c0.1,0.1,0.2,0.1,0.4,0.2L8.8,43L8.1,46.5z M5.6,37.3l-0.7,0.4H4.2
	c-0.4-1.7-0.7-3.4-0.9-5.1c0.4,0.9,1,1.7,1.7,2.3C5.2,35.7,5.4,36.5,5.6,37.3L5.6,37.3z M13.7,38.2l0.8,0.5L12.7,40L12,39.3
	L13.7,38.2z M10.7,38.1l-1.9-1.3C9.3,37,10,37,10.7,37c0.6,0,1.3-0.1,1.9-0.2L10.7,38.1z M10.1,41.1l0.6-0.6l0.6,0.6l-0.3,1h-0.6
	L10.1,41.1z M10.4,43.9h0.5l0.5,2.6H9.9L10.4,43.9z M1.8,27.6c0-0.8,0.5-1.4,1.3-1.5c0.2,0-0.3,0,8.9,0c1,0,1.9-0.3,2.7-0.8
	c0.7,0.5,1.4,0.7,2.3,0.8c0.1,1.2,0.7,2.3,1.6,3c-0.2,0.1-0.5,0.1-0.7,0.1c-0.4,0-0.8,0.3-0.9,0.7c-0.5,3.2-3.2,5.3-6.3,5.3
	c-3.1,0-5.8-2.3-6.3-5.3c-0.1-0.4-0.4-0.7-0.9-0.7C2.4,29.2,1.8,28.4,1.8,27.6L1.8,27.6z M2.6,20.7c0-2.4,1.9-4.4,4.4-4.5
	c1,0-2.4,0,6.1,0c0.8,0,1.4,0.4,1.8,1c0.2,0.3,0.4,0.4,0.7,0.4c1.3,0,2.4,0.8,2.9,2v3c-0.6,0.4-1,1-1.3,1.7c-0.8,0-1.3-0.1-1.8-0.7
	c-0.3-0.4-0.9-0.4-1.3-0.1c-0.6,0.5-1.4,0.8-2.1,0.8H2.6V20.7L2.6,20.7z M31.2,42.9l-0.4,1.6h-1.1l-0.4-1.6c0.9-0.9,0.7-0.7,1-1
	C30.5,42.2,30.3,42,31.2,42.9L31.2,42.9z M30.2,39.5l-3-2v-0.4c0.9,0.3,2,0.4,3,0.4c1,0,2-0.1,3-0.4v0.4L30.2,39.5z M20.8,23.6h5.4
	c1.6,0,3.1-0.8,4-2.1c0.9,1.3,2.4,2.1,4,2.1h0h5.4c0.4,0,0.8,0.1,1.2,0.4c1.9,1.3,0.8,4.2-1.4,4.1c-0.5,0-0.8,0.3-0.9,0.7
	c-0.7,4.1-4.2,7-8.3,7c-4.1,0-7.6-2.9-8.3-7c-0.1-0.4-0.5-0.8-0.9-0.7c-1.2,0.1-2.2-0.9-2.3-2.1C18.6,24.8,19.6,23.7,20.8,23.6
	L20.8,23.6z M20.3,17.2c0-1.9,0.9-3.7,2.4-4.9c1.9-1.5,3.6-1.3,5.9-1.3c0.5,0,0.8,0.4,0.8,0.8c0,0.5,0.4,0.9,0.9,0.9
	s0.9-0.4,0.9-0.9c0-0.5,0.4-0.8,0.8-0.8c0.2,0,0.5,0,0.7,0c1.8,0,3.4,0,5.2,1.3c1.5,1.2,2.4,3,2.4,4.9v4.6h-6
	c-1.7,0-3.1-1.4-3.1-3.1h0c0-0.5-0.4-0.9-0.9-0.9c-0.5,0-0.9,0.4-0.9,0.9c0,1.7-1.4,3.1-3.1,3.1h-5.7c0-1,0-1.6-0.2-2.5L20.3,17.2
	L20.3,17.2z M42.4,30.9c0.6,2.2,2,4.1,4,5.1v0.6l-1.9,1h-0.7c-1.3,0-2.5,0.6-3.3,1.6c-0.6-0.2-1.2-0.4-1.9-0.4h-1L35,37.5v-1.1
	c2.6-1.4,4.5-3.8,5.2-6.6c0.1,0,0.2,0,0.3-0.1C40.9,30.4,41.6,30.8,42.4,30.9L42.4,30.9z M48.2,40l-1.8-1.4l0.8-0.5l1.7,1.1L48.2,40
	z M46.6,48.3c-0.9,0.9-2,1.7-3,2.4v-2.4H46.6z M43.6,46.5V44c0-1.4-0.6-2.7-1.6-3.7c0.4-0.5,1.1-0.8,1.8-0.8h0.7l3.3,2.5
	c0,0,0,0,0,0c0.1,0.1,0.2,0.1,0.4,0.2l0.2,0.9l-0.7,3.5L43.6,46.5L43.6,46.5z M50.3,38.1c-1.1-0.7-0.8-0.5-1.9-1.3
	C49,37,49.7,37,50.3,37c0.6,0,1.3-0.1,1.9-0.2L50.3,38.1z M49.7,41.1l0.6-0.6l0.6,0.6l-0.3,1H50L49.7,41.1z M50,43.9h0.5l0.5,2.6
	h-1.5L50,43.9z M57.6,32.5c-0.1,1.8-0.4,3.5-0.9,5.2h-0.7l-0.7-0.4c0.2-0.8,0.4-1.6,0.5-2.5C56.6,34.2,57.2,33.4,57.6,32.5
	L57.6,32.5z M43.6,26c0.7-0.4,0.3-0.9,1.1-2.4c0.9,1.6,2.5,2.5,4.4,2.5h8.6c0.8,0,1.5,0.7,1.5,1.6c0,0.9-0.8,1.6-1.6,1.6
	c-0.4,0-0.8,0.3-0.9,0.8c-0.5,2.9-3.1,5.3-6.3,5.3c-3.1,0-5.8-2.2-6.3-5.3c-0.1-0.4-0.4-0.7-0.9-0.7c0,0,0,0,0,0
	c-0.4,0-0.7-0.1-1-0.3C43,28.2,43.5,27.1,43.6,26L43.6,26z M42.2,20.8c0-1.2,0.7-2.3,1.8-2.9c0,0.1,0,0.3,0,0.4c0,3,0,2.8,0,2.9
	c-0.5,0.6-1,1.4-1.3,2.1c-0.2-0.2-0.3-0.4-0.5-0.6V20.8z M45.8,18.4c0-1.2,1-2.2,2.2-2.2c8.1,0,5.2,0,6.1,0c2.4,0.1,4.3,2.1,4.3,4.5
	v3.6H49c-1.6,0-3-1.2-3.2-2.8c0,0,0,0,0,0C45.7,21.2,45.8,21.2,45.8,18.4L45.8,18.4z M41.3,7.2C41.3,7.2,41.3,7.2,41.3,7.2
	c-0.3-0.1-0.5-0.5-0.4-0.8l0,0c0.1-0.4,0.6-0.7,1-0.5c2.9,1.3,5.5,3.2,7.8,5.5c0.9,0.9,1.8,2,2.6,3h-1.8C48,11.3,44.9,8.9,41.3,7.2
	L41.3,7.2z M58.5,38c0.7-2.5,1-5,1-7.6c0.1-0.1,0.3-0.2,0.4-0.3c0.7-0.6,1-1.5,1-2.4c0-0.8-0.3-1.6-0.8-2.2c0-0.1,0.1-0.2,0.1-0.3
	v-4.4c0-3.3-2.5-5.9-5.6-6.3c-1-1.6-2.2-3-3.6-4.3c-2.4-2.4-5.2-4.4-8.3-5.8c-1.4-0.7-3.1,0.1-3.5,1.6l0,0c-0.3,1.2,0.3,2.4,1.4,2.9
	l0,0c2.9,1.3,5.4,3.2,7.6,5.6c-1.4,0-2.5,0.5-3.3,1.5c-1.1,0.1-2.1,0.6-2.9,1.3v-0.1c0-2.5-1.1-4.8-3.1-6.3
	c-2.2-1.8-4.4-1.7-6.3-1.7c-0.2,0-0.4,0-0.7,0c-0.7,0-1.3,0.2-1.7,0.6c-0.5-0.4-1.1-0.6-1.7-0.6c-2.3,0-4.5-0.2-7,1.7
	c-1.9,1.5-2.9,3.6-3,5.9c-0.7-0.5-1.5-0.8-2.4-0.9c-0.8-1-1.8-1.5-3.3-1.5c4-4.3,9.4-7.1,15.3-7.7C28,7.7,29,8.3,29.8,7.9l4.7-2.4
	c0.8-0.4,0.9-1.5,0.2-2l-4.2-3.2C30.2,0.1,30,0,29.7,0c-0.6,0-1.1,0.5-1.2,1.1l-0.1,0.6c-1.6,0.1-3.2,0.3-4.7,0.7
	C23.3,2.5,23,3,23.1,3.5c0.1,0.5,0.6,0.8,1.1,0.7c1.7-0.4,3.4-0.6,5.2-0.7c0.4,0,0.8-0.4,0.9-0.8l0-0.3l2.6,2l-2.9,1.5
	c0-0.5-0.4-1-0.9-0.9c-7.2,0.4-14,3.9-18.5,9.5H8.6c0.8-1.1,1.7-2.1,2.6-3c2.6-2.6,5.7-4.7,9.1-6c0.5-0.2,0.7-0.7,0.5-1.2
	c-0.2-0.5-0.7-0.7-1.2-0.5C16,5.1,12.8,7.3,10,10.1c-1.3,1.3-2.5,2.8-3.6,4.3c-3.2,0.3-5.6,3-5.6,6.3v4.4c0,0.1,0,0.2,0.1,0.3
	C0.3,26.1,0,26.8,0,27.6c0,1.1,0.6,2.2,1.5,2.8c0,2.6,0.3,5.1,1,7.6C1,38.7,0,40.1,0,41.8v5.6c0,0.5,0.4,0.9,0.9,0.9h6.6
	c2.2,2.9,4.9,5.3,8,7.1c1.4,0.8,3.3,0.2,3.7-1.5c0.2-0.7,0.1-1.4-0.3-1.9h1.5c0.5,0,0.9-0.4,0.9-0.9c0-0.5-0.4-0.9-0.9-0.9h-1.8
	v-2.8V44c0-1.2,0.7-2.3,1.8-2.9c0.8-0.4,1.5-0.4,2.4-0.4l4.3,3.2c0.1,0.1,0.3,0.2,0.5,0.2l0.3,1.4l-0.9,4.7h-2.5
	c-0.5,0-0.9,0.4-0.9,0.9c0,0.5,0.4,0.9,0.9,0.9h3.3h4.7h8.7c-3.6,1.8-7.6,2.7-11.7,2.6l0,0c0.1-0.4-0.1-0.9-0.4-1.1
	c-0.3-0.3-0.8-0.4-1.2-0.2l-5,1.8c-0.8,0.3-1,1.3-0.4,1.9l3.8,3.7c0.7,0.7,1.8,0.3,2-0.6l0.1-0.6c0.6,0,1.3,0.1,1.9,0.1
	c7.7,0,15-3,20.5-8.5c0.9-0.9,1.7-1.8,2.5-2.8h6.6c0.5,0,0.9-0.4,0.9-0.9v-5.6C61,40.1,60,38.7,58.5,38L58.5,38z"/>
</svg>
