<?xml version="1.0" encoding="utf-8"?>
<!-- Generator: Adobe Illustrator 25.0.0, SVG Export Plug-In . SVG Version: 6.00 Build 0)  -->
<svg version="1.1" id="Layer_1" xmlns="http://www.w3.org/2000/svg" xmlns:xlink="http://www.w3.org/1999/xlink" x="0px" y="0px"
	 viewBox="0 0 512 512" style="enable-background:new 0 0 512 512;" xml:space="preserve">
<style type="text/css">
	.st0{fill:#04809F;}
</style>
<path class="st0" d="M80.1,233.1h57.4c4.8,0,8.7-3.9,8.7-8.7V205c0-3.3-2.7-6-6-6s-6,2.7-6,6v16.2H83.3v-50.8h25.5c3.3,0,6-2.7,6-6
	s-2.7-6-6-6H80.1c-4.8,0-8.7,3.9-8.7,8.7v57.4C71.3,229.2,75.2,233.1,80.1,233.1L80.1,233.1z"/>
<path class="st0" d="M151.2,154.9c-2.5-2.1-6.3-1.8-8.4,0.8c0,0,0,0,0,0l-28.6,34.4l-9.2-7.4c-2.6-2.1-6.3-1.8-8.4,0.8
	c-2.1,2.6-1.8,6.3,0.8,8.4c0,0,0.1,0.1,0.1,0.1l11,8.9c3.8,3.1,9.2,2.8,12.7-0.6l0.2-0.2l30.6-36.8
	C154.1,160.8,153.7,157.1,151.2,154.9C151.2,154.9,151.2,154.9,151.2,154.9L151.2,154.9z"/>
<path class="st0" d="M442.1,162.5H208c-3.3,0-6,2.7-6,6s2.7,6,6,6h234.1c3.3,0,6-2.7,6-6S445.4,162.5,442.1,162.5z"/>
<path class="st0" d="M442.1,212.2H208c-3.3,0-6,2.7-6,6s2.7,6,6,6h234.1c3.3,0,6-2.7,6-6S445.4,212.2,442.1,212.2z"/>
<path class="st0" d="M140.2,326.1c-3.3,0-6,2.7-6,6v16.2H83.3v-50.8h25.5c3.3,0,6-2.7,6-6s-2.7-6-6-6H80.1c-4.8,0-8.7,3.9-8.7,8.7
	v57.4c0,4.8,3.9,8.7,8.7,8.7h57.4c4.8,0,8.7-3.9,8.7-8.7v-19.4C146.2,328.8,143.6,326.1,140.2,326.1z"/>
<path class="st0" d="M151.2,282.1c-2.5-2.1-6.3-1.8-8.4,0.8c0,0,0,0,0,0l-28.6,34.4l-9.2-7.4c-2.6-2.1-6.3-1.8-8.4,0.8
	c-2.1,2.6-1.8,6.3,0.8,8.4c0,0,0.1,0.1,0.1,0.1l11,8.9c3.8,3.1,9.2,2.8,12.7-0.6l0.2-0.2l30.6-36.8
	C154.1,288,153.7,284.2,151.2,282.1C151.2,282.1,151.2,282.1,151.2,282.1z"/>
<path class="st0" d="M442.1,289.6h-48.7c-3.3,0-6,2.7-6,6s2.7,6,6,6h48.7c3.3,0,6-2.7,6-6S445.4,289.6,442.1,289.6L442.1,289.6z"/>
<path class="st0" d="M284,289.6h-76c-3.3,0-6,2.7-6,6s2.7,6,6,6h76c3.3,0,6-2.7,6-6S287.3,289.6,284,289.6z"/>
<path class="st0" d="M228.5,339.4H208c-3.3,0-6,2.7-6,6s2.7,6,6,6h20.5c3.3,0,6-2.7,6-6S231.8,339.4,228.5,339.4z"/>
<path class="st0" d="M472.4,10H39.6C24.4,10,12,22.4,12,37.6v358.6c0,15.2,12.4,27.6,27.6,27.6l228.8,1.6L280,471
	c0,0.1,0,0.2,0.1,0.2c5.4,18.3,22.2,30.8,41.3,30.7H405c23.8,0,43.1-19.3,43.1-43.1v-33.7l24.4-1.3c15.2-0.1,27.4-12.4,27.5-27.6
	V37.6C500,22.4,487.6,10,472.4,10L472.4,10z M39.6,22h432.7c8.6,0,15.6,7,15.6,15.6v60.7H24V37.6C24,29,31,22,39.6,22L39.6,22z
	 M436.1,458.9c0,17.2-13.9,31.1-31.1,31.1h-83.7c-13.7,0.1-25.8-8.9-29.7-22.1L278.9,418c-3-11.8-7-23.2-11.9-34.3l-1-2.3
	c13,0,25.1,6.4,32.5,17.1l10.3,14.9v22.3c0,3.3,2.7,6,6,6s6-2.7,6-6l0,0V272.6c0-6.2,5-11.3,11.3-11.3c6.2,0,11.3,5,11.3,11.3
	c0,0,0,0,0,0v106.5c0,0.6,0.1,1.2,0.3,1.7v24.5c0,3.3,2.7,6,6,6s6-2.7,6-6v-33.5c0-4.9,4-9,8.9-9c4.9,0,9,4,9,8.9c0,0,0,0,0,0v6.8
	c-0.2,1-0.2,2.1-0.2,3.2v23.6c0,3.3,2.7,6,6,6h0.1c0,0,0.1,0,0.1,0c3.3,0,6-2.7,6-6v-25.6c1.1-5.2,6.3-8.5,11.5-7.3
	c4.4,1,7.6,4.9,7.6,9.4v29.8c0,3.3,2.7,6,6,6s6-2.7,6-6v-20.4c-0.1-5.4,4.3-9.8,9.7-9.9c5.4-0.1,9.8,4.3,9.9,9.7c0,0.1,0,0.1,0,0.2
	L436.1,458.9z M472.4,411.9c-0.1,0-0.2,0-0.3,0l-23.9,1.3v-22c0-12-9.7-21.8-21.7-21.8c-4.2,0-8.2,1.2-11.7,3.4
	c-4.9-10.9-17.7-15.7-28.6-10.8c-0.8,0.4-1.6,0.8-2.3,1.2c-4.7-10.5-17-15.3-27.5-10.6c-0.3,0.1-0.5,0.2-0.8,0.4v-80.4
	c0-12.9-10.4-23.3-23.3-23.3c-12.9,0-23.3,10.4-23.3,23.3c0,0,0,0,0,0v119.7l-0.4-0.6c-9.6-13.9-25.5-22.2-42.4-22.2
	c-6.7,0-12,5.4-12,12c0,1.7,0.4,3.4,1.1,4.9l1,2.3c3.6,8.1,6.7,16.4,9.2,24.8l-225.6-1.6c-8.6,0-15.6-7-15.6-15.6V110.4h464v285.9
	C488,404.9,481,411.9,472.4,411.9L472.4,411.9z"/>
<path class="st0" d="M62.2,82.4c12.7,0,23-10.3,23-23s-10.3-23-23-23s-23,10.3-23,23C39.2,72.1,49.5,82.4,62.2,82.4z M62.2,48.4
	c6.1,0,11,4.9,11,11s-4.9,11-11,11s-11-4.9-11-11C51.2,53.4,56.1,48.4,62.2,48.4z"/>
<path class="st0" d="M122.8,82.4c12.7,0,23-10.3,23-23s-10.3-23-23-23s-23,10.3-23,23C99.8,72.1,110.1,82.4,122.8,82.4z M122.8,48.4
	c6.1,0,11,4.9,11,11s-4.9,11-11,11c-6.1,0-11-4.9-11-11C111.8,53.4,116.8,48.4,122.8,48.4z"/>
<path class="st0" d="M183.5,82.4c12.7,0,23-10.3,23-23s-10.3-23-23-23s-23,10.3-23,23C160.5,72.1,170.8,82.4,183.5,82.4z
	 M183.5,48.4c6.1,0,11,4.9,11,11s-4.9,11-11,11s-11-4.9-11-11C172.5,53.4,177.4,48.4,183.5,48.4z"/>
<path class="st0" d="M273,64.3h194.9c3.3,0,6-2.7,6-6s-2.7-6-6-6l0,0H273c-3.3,0-6,2.7-6,6S269.7,64.3,273,64.3z"/>
</svg>
